<?xml version="1.0" standalone="no"?>
<!DOCTYPE svg PUBLIC "-//W3C//DTD SVG 1.1//EN" "http://www.w3.org/Graphics/SVG/1.1/DTD/svg11.dtd" >
<svg>
<metadata>
Created by FontForge 20090914 at Thu Aug 24 09:57:15 2017
 By www-data
Font data copyright Google 2014
</metadata>
<defs>
<font id="RobotoCondensed-Light" horiz-adv-x="1123" >
  <font-face 
    font-family="Roboto Condensed"
    font-weight="300"
    font-stretch="normal"
    units-per-em="2048"
    panose-1="0 0 0 0 0 0 0 0 0 0"
    ascent="1536"
    descent="-512"
    x-height="1082"
    cap-height="1456"
    bbox="-875.995 -554.995 2027 2163"
    underline-thickness="100"
    underline-position="-100"
    unicode-range="U+0002-U+FFFD"
  />
<missing-glyph horiz-adv-x="460" 
 />
    <glyph glyph-name="fi" unicode="fi" horiz-adv-x="969" 
d="M207 0l0.000976562 982h-150v100h150v113c0 58 7.16699 109.5 21.5 154.5s34.833 82.833 61.5 113.5s59 54 97 70s80.667 24 128 24c38 0 76.333 -5 115 -15s78 -24.667 118 -44l-19 -105c-28.667 14.667 -59.167 27 -91.5 37s-70.5 15 -114.5 15
c-68.667 0 -119.834 -21.167 -153.501 -63.5s-50.5 -104.5 -50.5 -186.5v-113h207v-100h-207v-982h-112zM807.001 0h-112v1082h112v-1082z" />
    <glyph glyph-name=".notdef" horiz-adv-x="460" 
 />
    <glyph glyph-name="NULL" horiz-adv-x="0" 
 />
    <glyph glyph-name="NULL" horiz-adv-x="0" 
 />
    <glyph glyph-name="uni0002" horiz-adv-x="40" 
 />
    <glyph glyph-name="uni0009" unicode="&#x9;" horiz-adv-x="40" 
 />
    <glyph glyph-name="nonmarkingreturn" unicode="&#xd;" horiz-adv-x="460" 
 />
    <glyph glyph-name="space" unicode=" " horiz-adv-x="460" 
 />
    <glyph glyph-name="exclam" unicode="!" horiz-adv-x="438" 
d="M269 406h-103l-6 1050h116zM149 71c0 23.333 6.5 42.833 19.5 58.5s31.167 23.5 54.5 23.5s41.5 -7.83301 54.5 -23.5s19.5 -35.167 19.5 -58.5c0 -22.667 -6.5 -41.5 -19.5 -56.5s-31.167 -22.5 -54.5 -22.5s-41.5 7.5 -54.5 22.5s-19.5 33.833 -19.5 56.5z" />
    <glyph glyph-name="quotedbl" unicode="&#x22;" horiz-adv-x="588" 
d="M243 1396l-20 -315h-80l3 309v146h97v-140zM479 1396l-20 -315h-81l4 313v142h97v-140z" />
    <glyph glyph-name="numbersign" unicode="#" horiz-adv-x="1108" 
d="M634 410h-255l-65 -410h-91l65 410h-211v95h226l70 437h-233v98h248l67 416h91l-67 -416h255l67 416h92l-67 -416h188v-98h-204l-70 -437h211v-95h-226l-65 -410h-91zM394 505h255l70 437h-255z" />
    <glyph glyph-name="dollar" unicode="$" horiz-adv-x="996" 
d="M769 359c0 36.667 -4.49707 69.6641 -13.4971 98.9971s-24 56.333 -45 81s-48.333 47.667 -82 69s-75.5 42.666 -125.5 63.999c-53.333 20.667 -101.166 43 -143.499 67s-78.333 52.5 -108 85.5s-52.334 71.333 -68.001 115s-23.5 95.167 -23.5 154.5
c0 54 7.16699 103.333 21.5 148s35 83.5 62 116.5s59.667 59.5 98 79.5s81.166 32.333 128.499 37v203h94v-204c97.333 -11.333 172.833 -55 226.5 -131s80.5 -181.333 80.5 -316h-110c0 48.667 -5.33301 93.834 -16 135.501s-26.334 77.834 -47.001 108.501
s-46.5 54.5 -77.5 71.5s-66.5 25.5 -106.5 25.5c-41.333 0 -77.333 -7.16699 -108 -21.5s-56 -33.833 -76 -58.5s-35 -53.5 -45 -86.5s-15 -68.167 -15 -105.5c0 -36 4 -68.5 12 -97.5s22.167 -55.833 42.5 -80.5s47.833 -48 82.5 -70s79 -44 133 -66
c52.667 -21.333 100.167 -44 142.5 -68s78.166 -52.167 107.499 -84.5s51.833 -70.166 67.5 -113.499s23.5 -95 23.5 -155c0 -55.333 -7.66699 -105.333 -23 -150s-37 -83.167 -65 -115.5s-62 -58.166 -102 -77.499s-84.333 -31.333 -133 -36v-190h-92v189
c-44.667 4 -88 14.5 -130 31.5s-79.333 42.833 -112 77.5s-58.834 78.834 -78.501 132.501s-29.5 119.167 -29.5 196.5h111c0 -64 8.5 -117.333 25.5 -160s38.833 -76.834 65.5 -102.501s56.5 -43.667 89.5 -54s65.833 -15.5 98.5 -15.5c42 0 79.167 7 111.5 21
s59.833 33.333 82.5 58s39.834 53.5 51.501 86.5s17.5 68.5 17.5 106.5z" />
    <glyph glyph-name="percent" unicode="%" horiz-adv-x="1309" 
d="M111 1176c0 41.333 5.66797 80.166 17.001 116.499s27.333 68.166 48 95.499s45.834 49 75.501 65s63.167 24 100.5 24s70.833 -8 100.5 -24s55 -37.667 76 -65s37.167 -59.166 48.5 -95.499s17 -75.166 17 -116.499v-77c0 -40.667 -5.66699 -79.167 -17 -115.5
s-27.333 -68 -48 -95s-45.834 -48.5 -75.501 -64.5s-62.834 -24 -99.501 -24c-37.333 0 -71 8 -101 24s-55.5 37.5 -76.5 64.5s-37.167 58.667 -48.5 95s-17 74.833 -17 115.5v77zM199.001 1099c0 -26.667 3.16699 -52.667 9.5 -78s15.833 -47.833 28.5 -67.5
s28.834 -35.5 48.501 -47.5s42.5 -18 68.5 -18s48.5 6 67.5 18s34.667 27.833 47 47.5s21.666 42.167 27.999 67.5s9.5 51.333 9.5 78v77c0 26.667 -3.16699 52.667 -9.5 78s-15.833 48 -28.5 68s-28.667 36 -48 48s-42 18 -68 18s-48.5 -6 -67.5 -18s-34.833 -28 -47.5 -48
s-22.167 -42.667 -28.5 -68s-9.5 -51.333 -9.5 -78v-77zM723.001 357c0 40.667 5.66602 79.334 16.999 116.001s27.333 68.5 48 95.5s45.834 48.5 75.501 64.5s62.834 24 99.501 24c37.333 0 71 -8 101 -24s55.5 -37.5 76.5 -64.5s37.167 -58.833 48.5 -95.5
s17 -75.334 17 -116.001v-78c0 -41.333 -5.66699 -80.166 -17 -116.499s-27.5 -68 -48.5 -95s-46.333 -48.5 -76 -64.5s-62.834 -24 -99.501 -24c-37.333 0 -70.833 8 -100.5 24s-55 37.5 -76 64.5s-37.167 58.667 -48.5 95s-17 75.166 -17 116.499v78zM810 279
c0 -26.667 3.16797 -52.666 9.50098 -77.999s15.833 -48 28.5 -68s28.834 -36 48.501 -48s42.5 -18 68.5 -18s48.667 6 68 18s35.166 27.833 47.499 47.5s21.666 42.167 27.999 67.5s9.5 51.666 9.5 78.999v78c0 28 -3.16699 54.833 -9.5 80.5s-15.833 48.167 -28.5 67.5
s-28.834 34.666 -48.501 45.999s-42.5 17 -68.5 17c-25.333 0 -47.666 -5.66699 -66.999 -17s-35.333 -26.666 -48 -45.999s-22.167 -41.833 -28.5 -67.5s-9.5 -52.5 -9.5 -80.5v-78zM386.001 120.001l-67 49l597 1138l68 -49z" />
    <glyph glyph-name="ampersand" unicode="&#x26;" horiz-adv-x="1100" 
d="M359 792c-22 31.333 -41.8311 61.667 -59.498 91s-32.5 58.333 -44.5 87s-21.333 57.334 -28 86.001s-10 58 -10 88c0 51.333 6.66699 97.5 20 138.5s32.5 75.833 57.5 104.5s55.167 50.667 90.5 66s74.666 23 117.999 23c42 0 79.5 -7.66699 112.5 -23s61 -36 84 -62
s40.5 -56.333 52.5 -91s18 -71.334 18 -110.001c0 -33.333 -4.66699 -64.5 -14 -93.5s-21.5 -56.167 -36.5 -81.5s-32.5 -48.833 -52.5 -70.5s-40.333 -41.834 -61 -60.501l-109 -99l328 -458c22 44.667 39.333 94.334 52 149.001s19 113.334 19 176.001h102
c0 -166 -35.667 -304.667 -107 -416l169 -236h-134l-102 142c-44 -50.667 -94.667 -90.334 -152 -119.001s-117.333 -43 -180 -43c-59.333 0 -112.5 9.5 -159.5 28.5s-87 45.667 -120 80s-58.333 75.5 -76 123.5s-26.5 101.333 -26.5 160c0 44 6.16699 84.5 18.5 121.5
s29.166 72 50.499 105s46.833 64.833 76.5 95.5s61.5 61 95.5 91zM492.002 83.001c50 0 98.167 12.667 144.5 38s88.166 61 125.499 107l-337 472l-10 12l-36 -33c-35.333 -34.667 -63.333 -67.167 -84 -97.5s-36.667 -58.333 -48 -84s-18.666 -49 -21.999 -70
s-5 -39.5 -5 -55.5c0 -38.667 5.5 -75.5 16.5 -110.5s27.833 -65.667 50.5 -92s51 -47.333 85 -63s74 -23.5 120 -23.5zM328.002 1148c0 -43.333 9.83594 -88.333 29.5029 -135s47.167 -96 82.5 -148l105 96c35.333 30.667 64.166 64.167 86.499 100.5
s33.5 79.166 33.5 128.499c0 23.333 -3.5 46 -10.5 68s-17.333 41.5 -31 58.5s-30.667 30.5 -51 40.5s-43.833 15 -70.5 15c-28.667 0 -53.834 -6 -75.501 -18s-39.834 -28.167 -54.501 -48.5s-25.667 -44.166 -33 -71.499s-11 -56 -11 -86z" />
    <glyph glyph-name="quotesingle" unicode="'" horiz-adv-x="348" 
d="M226 1397l-17 -308h-90l5 298v149h102v-139z" />
    <glyph glyph-name="parenleft" unicode="(" horiz-adv-x="596" 
d="M136 588c0 130.667 12.167 252.832 36.5 366.499s55.333 215.667 93 306s79.167 167.333 124.5 231s89.333 110.834 132 141.501l26 -84c-36 -31.333 -72 -76.666 -108 -135.999s-68.167 -130.333 -96.5 -213s-51.333 -175.5 -69 -278.5s-26.5 -213.167 -26.5 -330.5v-20
c0 -117.333 8.83301 -227.5 26.5 -330.5s40.667 -195.833 69 -278.5s60.5 -154.167 96.5 -214.5s72 -106.5 108 -138.5l-26 -79c-42.667 30.667 -86.667 77.167 -132 139.5s-86.833 138.166 -124.5 227.499s-68.667 190.833 -93 304.5s-36.5 237.5 -36.5 371.5v15z" />
    <glyph glyph-name="parenright" unicode=")" horiz-adv-x="607" 
d="M460 573c0 -89.333 -5.5 -174.167 -16.5 -254.5s-26.167 -155.666 -45.5 -225.999s-41.666 -135.5 -66.999 -195.5s-52.333 -113.667 -81 -161s-58 -88.333 -88 -123s-59.333 -62.334 -88 -83.001l-25 79c36 31.333 72 77 108 137s68.167 131.5 96.5 214.5
s51.333 176.167 69 279.5s26.5 213.666 26.5 330.999v20c0 117.333 -9.16699 227.833 -27.5 331.5s-42 197.167 -71 280.5s-61.167 155 -96.5 215s-70.333 105.333 -105 136l25 79c28.667 -20.667 58 -48.667 88 -84s59.333 -77.166 88 -125.499
s55.667 -102.666 81 -162.999s47.666 -125.833 66.999 -196.5s34.5 -145.834 45.5 -225.501s16.5 -163.167 16.5 -250.5v-15z" />
    <glyph glyph-name="asterisk" unicode="*" horiz-adv-x="869" 
d="M361 1000l-332 106l32 104l332 -123l-4 369h104l-8 -372l324 127l33 -104l-333 -114l223 -293l-85 -64l-214 304l-204 -302l-85 62z" />
    <glyph glyph-name="plus" unicode="+" horiz-adv-x="1012" 
d="M556 742h366v-115h-366v-481h-113v481h-360v115h360v464h113v-464z" />
    <glyph glyph-name="comma" unicode="," horiz-adv-x="392" 
d="M271 49c0 -30 -3.16699 -59.999 -9.5 -89.999s-15.5 -58.833 -27.5 -86.5s-26.667 -53.834 -44 -78.501s-37 -47 -59 -67l-71 53c30.667 41.333 54 83 70 125s24 89.333 24 142v143h117v-141z" />
    <glyph glyph-name="hyphen" unicode="-" horiz-adv-x="529" 
d="M463 590h-404v103h404v-103z" />
    <glyph glyph-name="period" unicode="." horiz-adv-x="489" 
d="M145 73c0 24 7.5 44.167 22.5 60.5s35.833 24.5 62.5 24.5s47.667 -8.16699 63 -24.5s23 -36.5 23 -60.5c0 -23.333 -7.66699 -42.666 -23 -57.999s-36.333 -23 -63 -23s-47.5 7.66699 -62.5 23s-22.5 34.666 -22.5 57.999z" />
    <glyph glyph-name="slash" unicode="/" horiz-adv-x="728" 
d="M143 -125h-100l511 1581h99z" />
    <glyph glyph-name="zero" unicode="0" horiz-adv-x="996" 
d="M876 608c0 -107.333 -8.49707 -200.5 -25.4971 -279.5s-41.667 -144.333 -74 -196s-71.833 -90 -118.5 -115s-99.667 -37.5 -159 -37.5c-58.667 0 -111.334 12.5 -158.001 37.5s-86.334 63.333 -119.001 115s-57.834 117 -75.501 196s-26.5 172.167 -26.5 279.5v244
c0 107.333 8.66699 200.166 26 278.499s42.166 143.166 74.499 194.499s71.833 89.333 118.5 114s99.334 37 158.001 37s111.5 -12.333 158.5 -37s86.833 -62.667 119.5 -114s57.667 -116.166 75 -194.499s26 -171.166 26 -278.499v-244zM764.003 868
c0 166.667 -22.168 292.334 -66.501 377.001s-111.166 127 -200.499 127c-88 0 -154.5 -42.333 -199.5 -127s-67.5 -210.334 -67.5 -377.001v-274c0 -82 5.83301 -154.667 17.5 -218s28.667 -116.666 51 -159.999s50.333 -76.333 84 -99s72.5 -34 116.5 -34
c44.667 0 83.5 11.333 116.5 34s60.5 55.667 82.5 99s38.5 96.666 49.5 159.999s16.5 136 16.5 218v274z" />
    <glyph glyph-name="one" unicode="1" horiz-adv-x="996" 
d="M609 0h-112v1309l-329 -147v114l422 185h19v-1461z" />
    <glyph glyph-name="two" unicode="2" horiz-adv-x="996" 
d="M905 0h-772v94l400 540c37.333 50.667 68.833 96.334 94.5 137.001s46.334 78.5 62.001 113.5s26.834 67.833 33.501 98.5s10 61 10 91c0 43.333 -5.33301 83.333 -16 120s-26.334 68.167 -47.001 94.5s-46.5 46.833 -77.5 61.5s-66.5 22 -106.5 22
c-42 0 -79.667 -8.33301 -113 -25s-61.5 -40 -84.5 -70s-40.667 -65.5 -53 -106.5s-18.5 -85.833 -18.5 -134.5h-111c0 60 8.66699 116.667 26 170s42.166 100 74.499 140s72 71.667 119 95s100.5 35 160.5 35c55.333 0 105.333 -9 150 -27s82.5 -43.667 113.5 -77
s54.833 -74.333 71.5 -123s25 -103.334 25 -164.001c0 -44 -6.66699 -88.167 -20 -132.5s-31 -88.5 -53 -132.5s-47.5 -87.667 -76.5 -131l-89.5 -128l-339 -458h637v-103z" />
    <glyph glyph-name="three" unicode="3" horiz-adv-x="996" 
d="M356 794l105.003 0.00195312c46 0 86.167 7.5 120.5 22.5s63.166 35.167 86.499 60.5s40.833 55.166 52.5 89.499s17.5 70.833 17.5 109.5c0 44 -5 84.167 -15 120.5s-25.333 67.5 -46 93.5s-46.5 46.167 -77.5 60.5s-67.833 21.5 -110.5 21.5
c-37.333 0 -71.833 -6.83301 -103.5 -20.5s-59 -33.5 -82 -59.5s-41 -57.333 -54 -94s-19.5 -78 -19.5 -124h-111c0 58.667 9.16699 112.667 27.5 162s44 91.666 77 126.999s72.167 63 117.5 83s94.666 30 147.999 30c54 0 103.167 -9 147.5 -27s82.333 -44.167 114 -78.5
s56 -76.5 73 -126.5s25.5 -107.333 25.5 -172c0 -32.667 -4.33301 -65.167 -13 -97.5s-21.667 -62.833 -39 -91.5s-39 -54.834 -65 -78.501s-56.333 -43.167 -91 -58.5c40.667 -13.333 75.5 -31.666 104.5 -54.999s52.833 -50.166 71.5 -80.499
s32.334 -63.666 41.001 -99.999s13 -74.5 13 -114.5c0 -66 -9.5 -124.833 -28.5 -176.5s-45.5 -95.334 -79.5 -131.001s-74.167 -62.667 -120.5 -81s-96.5 -27.5 -150.5 -27.5c-50 0 -98.5 8.66699 -145.5 26s-88.667 43.166 -125 77.499s-65.333 77.333 -87 129
s-32.5 112.167 -32.5 181.5h111c0 -46 6.83301 -88 20.5 -126s32.667 -70.667 57 -98s53.666 -48.666 87.999 -63.999s72.166 -23 113.499 -23c84.667 0 150.5 26.5 197.5 79.5s70.5 129.5 70.5 229.5c0 52 -7.16699 96.833 -21.5 134.5s-34.666 68.667 -60.999 93
s-57.833 42.166 -94.5 53.499s-77.334 17 -122.001 17h-105v104z" />
    <glyph glyph-name="four" unicode="4" horiz-adv-x="996" 
d="M757 470h187v-104h-187v-366h-111v366h-572v71l563 1019h120v-986zM207 470h439v818l-40 -81z" />
    <glyph glyph-name="five" unicode="5" horiz-adv-x="996" 
d="M201 746l60.001 710.001h615v-114h-520l-41 -488c10.667 8.66699 23.667 17.834 39 27.501s32.666 18.334 51.999 26.001s40.166 14 62.499 19s46.166 7.5 71.499 7.5c54.667 0 104.334 -10.833 149.001 -32.5s82.667 -52.834 114 -93.501s55.666 -90 72.999 -148
s26 -123.333 26 -196c0 -70 -7.33301 -134.5 -22 -193.5s-37 -110 -67 -153s-68.167 -76.667 -114.5 -101s-101.5 -36.5 -165.5 -36.5c-49.333 0 -95.5 8.16699 -138.5 24.5s-81.167 41.166 -114.5 74.499s-60.666 75.333 -81.999 126s-34.333 110 -39 178h106
c9.33301 -98 37 -172.5 83 -223.5s107.667 -76.5 185 -76.5c84.667 0 148.834 33 192.501 99s65.5 159.333 65.5 280c0 50.667 -6 98 -18 142s-29.5 82.167 -52.5 114.5s-51.333 57.666 -85 75.999s-72.5 27.5 -116.5 27.5c-29.333 0 -55 -2.5 -77 -7.5
s-41.833 -12 -59.5 -21s-34 -19.833 -49 -32.5s-29.833 -27 -44.5 -43z" />
    <glyph glyph-name="six" unicode="6" horiz-adv-x="996" 
d="M729 1466l-0.00292969 -106.999h-15c-73.333 0 -138.333 -13.167 -195 -39.5s-104.667 -64.333 -144 -114s-70.166 -109.834 -92.499 -180.501s-35.833 -150 -40.5 -238c34 54 76.333 95.667 127 125s107 44 169 44c58.667 0 110.167 -13 154.5 -39
s81 -60.833 110 -104.5s50.833 -94.5 65.5 -152.5s22 -119 22 -183c0 -70 -8.33301 -135.333 -25 -196s-40.667 -113.167 -72 -157.5s-69.5 -79.333 -114.5 -105s-96.167 -38.5 -153.5 -38.5c-62.667 0 -118.5 14.167 -167.5 42.5s-90.5 66.833 -124.5 115.5
s-59.833 105.334 -77.5 170.001s-26.5 133.667 -26.5 207v127c0 123.333 11.167 235.666 33.5 336.999s57.333 188 105 260s108.334 127.833 182.001 167.5s161.834 59.5 264.501 59.5h15zM519.997 851.001c-32 0 -62.999 -5.99805 -92.999 -17.998s-57.5 -28.667 -82.5 -50
s-46.5 -46.5 -64.5 -75.5s-31.333 -60.5 -40 -94.5v-100c0 -67.333 7.5 -127.5 22.5 -180.5s35.333 -97.833 61 -134.5s55.834 -64.834 90.501 -84.501s71.667 -29.5 111 -29.5c40 0 75.833 10.167 107.5 30.5s58.5 48 80.5 83s38.833 76.167 50.5 123.5
s17.5 97.666 17.5 150.999c0 50.667 -5.33301 99 -16 145s-26.834 86.333 -48.501 121s-48.834 62.167 -81.501 82.5s-71 30.5 -115 30.5z" />
    <glyph glyph-name="seven" unicode="7" horiz-adv-x="996" 
d="M893 1386l-520 -1386h-116l517 1352h-689v104h808v-70z" />
    <glyph glyph-name="eight" unicode="8" horiz-adv-x="996" 
d="M857 1081c0 -38 -4.83398 -74.167 -14.501 -108.5s-23.167 -65.666 -40.5 -93.999s-38.166 -53.666 -62.499 -75.999s-51.5 -40.833 -81.5 -55.5c34.667 -14.667 66.167 -33.667 94.5 -57s52.666 -50.5 72.999 -81.5s36 -65.167 47 -102.5s16.5 -77.333 16.5 -120
c0 -66 -10.167 -124.333 -30.5 -175s-48 -93.167 -83 -127.5s-76.167 -60.166 -123.5 -77.499s-98 -26 -152 -26c-55.333 0 -106.666 8.66699 -153.999 26s-88.5 43.166 -123.5 77.499s-62.5 76.833 -82.5 127.5s-30 109 -30 175c0 42.667 5.33301 82.667 16 120
s26 71.5 46 102.5s44 58.167 72 81.5s59 42.333 93 57c-30 14.667 -57.167 33.167 -81.5 55.5s-45 47.666 -62 75.999s-30.167 59.666 -39.5 93.999s-14 70.5 -14 108.5c0 63.333 9 119.5 27 168.5s43 90.333 75 124s69.833 59.167 113.5 76.5s91.167 26 142.5 26
c50.667 0 98 -8.66699 142 -26s82 -42.833 114 -76.5s57.167 -75 75.5 -124s27.5 -105.167 27.5 -168.5zM776.999 386c0 46 -7.00195 88 -21.002 126s-33.5 70.5 -58.5 97.5s-54.5 48 -88.5 63s-71 22.5 -111 22.5c-40.667 0 -78 -7.5 -112 -22.5s-63.333 -36 -88 -63
s-43.834 -59.5 -57.501 -97.5s-20.5 -80 -20.5 -126c0 -48 6.83301 -90.833 20.5 -128.5s32.834 -69.5 57.501 -95.5s54.167 -45.667 88.5 -59s72.166 -20 113.499 -20c40.667 0 77.834 6.66699 111.501 20s62.834 33 87.501 59s43.834 57.833 57.501 95.5
s20.5 80.5 20.5 128.5zM745.997 1082c0 42 -6.33301 80.832 -19 116.499s-30 66.334 -52 92.001s-48.167 45.667 -78.5 60s-63.166 21.5 -98.499 21.5c-36 0 -69 -6.66699 -99 -20s-55.833 -32.5 -77.5 -57.5s-38.667 -55.5 -51 -91.5s-18.5 -76.333 -18.5 -121
c0 -43.333 6 -82.5 18 -117.5s29 -64.667 51 -89s48.167 -43.166 78.5 -56.499s63.5 -20 99.5 -20c35.333 0 68.166 6.66699 98.499 20s56.5 32.166 78.5 56.499s39.167 54 51.5 89s18.5 74.167 18.5 117.5z" />
    <glyph glyph-name="nine" unicode="9" horiz-adv-x="996" 
d="M294 96c85.333 0 157 14.332 215 42.999s104.833 68.5 140.5 119.5s61.5 111 77.5 180s25 144.167 27 225.5c-16.667 -28 -35.834 -53.5 -57.501 -76.5s-45.167 -42.667 -70.5 -59s-52.333 -29 -81 -38s-58.667 -13.5 -90 -13.5c-58 0 -108.833 13.667 -152.5 41
s-80.167 63.666 -109.5 108.999s-51.333 97.333 -66 156s-22 119.334 -22 182.001c0 70 8.33301 136 25 198s40.667 116.167 72 162.5s70 83 116 110s98.667 40.5 158 40.5c66 0 123.5 -14.5 172.5 -43.5s89.5 -69.167 121.5 -120.5s55.833 -112.666 71.5 -183.999
s23.5 -149 23.5 -233v-115c0 -71.333 -3.66699 -140.5 -11 -207.5s-19.5 -129.833 -36.5 -188.5s-39.667 -112.167 -68 -160.5s-63.666 -89.833 -105.999 -124.5s-92.333 -61.5 -150 -80.5s-124.167 -28.5 -199.5 -28.5h-21l1 106h20zM470 581.999
c36 0 69.332 7.16992 99.999 21.5029s58 33.166 82 56.499s44.667 50.166 62 80.499s31 61.5 41 93.5v73c0 76 -7 142.833 -21 200.5s-33.333 106 -58 145s-54 68.5 -88 88.5s-71 30 -111 30c-41.333 0 -78.166 -10.833 -110.499 -32.5s-59.833 -50.834 -82.5 -87.501
s-40 -79.167 -52 -127.5s-18 -99.5 -18 -153.5c0 -49.333 5.5 -97.333 16.5 -144s27.167 -88 48.5 -124s48 -65 80 -87s69 -33 111 -33z" />
    <glyph glyph-name="colon" unicode=":" horiz-adv-x="412" 
d="M131 73c0 24 7.5 44.167 22.5 60.5s35.833 24.5 62.5 24.5s47.667 -8.16699 63 -24.5s23 -36.5 23 -60.5c0 -23.333 -7.66699 -42.666 -23 -57.999s-36.333 -23 -63 -23s-47.5 7.66699 -62.5 23s-22.5 34.666 -22.5 57.999zM133 995c0 24 7.5 44.167 22.5 60.5
s35.833 24.5 62.5 24.5s47.667 -8.16699 63 -24.5s23 -36.5 23 -60.5c0 -23.333 -7.66699 -42.666 -23 -57.999s-36.333 -23 -63 -23s-47.5 7.66699 -62.5 23s-22.5 34.666 -22.5 57.999z" />
    <glyph glyph-name="semicolon" unicode=";" horiz-adv-x="381" 
d="M122 995c0 24 7.5 44.167 22.5 60.5s35.833 24.5 62.5 24.5s47.667 -8.16699 63 -24.5s23 -36.5 23 -60.5c0 -23.333 -7.66699 -42.666 -23 -57.999s-36.333 -23 -63 -23s-47.5 7.66699 -62.5 23s-22.5 34.666 -22.5 57.999zM273 49c0 -30 -3.16699 -59.999 -9.5 -89.999
s-15.5 -58.833 -27.5 -86.5s-26.667 -53.834 -44 -78.501s-37 -47 -59 -67l-71 53c30.667 41.333 54 83 70 125s24 89.333 24 142v143h117v-141z" />
    <glyph glyph-name="less" unicode="&#x3c;" horiz-adv-x="919" 
d="M201 655l576 -298v-129l-693 379v99l693 378v-129z" />
    <glyph glyph-name="equal" unicode="=" horiz-adv-x="990" 
d="M846 828h-701v108h701v-108zM846 417h-701v108h701v-108z" />
    <glyph glyph-name="greater" unicode="&#x3e;" horiz-adv-x="933" 
d="M715 659l-589 300v127l711 -378v-99l-711 -379v126z" />
    <glyph glyph-name="question" unicode="?" horiz-adv-x="827" 
d="M333 405c0 42.667 2.49805 80.0029 7.49805 112.003s12.833 61.667 23.5 89s25 53.666 43 78.999s40 53 66 83l60.5 74c18.333 23.333 34.166 47.5 47.499 72.5s23.833 52.333 31.5 82s11.5 64.5 11.5 104.5c0 39.333 -4.33301 75.333 -13 108s-21.667 60.667 -39 84
s-38.666 41.5 -63.999 54.5s-55 19.5 -89 19.5c-31.333 0 -60.166 -5.66699 -86.499 -17s-49.333 -27.833 -69 -49.5s-35.167 -48 -46.5 -79s-17.333 -66.5 -18 -106.5h-110c0.666992 56.667 9.66699 107.5 27 152.5s40.833 82.833 70.5 113.5s64.334 54.167 104.001 70.5
s82.5 24.5 128.5 24.5c50.667 0 95.667 -9 135 -27s72.333 -43.5 99 -76.5s47 -72.5 61 -118.5s21 -96.667 21 -152c0 -44 -5 -84.833 -15 -122.5s-24 -73.334 -42 -107.001s-39.167 -66.167 -63.5 -97.5s-50.833 -63 -79.5 -95
c-35.333 -36.667 -59.5 -78.334 -72.5 -125.001s-19.5 -96.667 -19.5 -150h-110zM320.998 71.0029c0 23.333 6.33301 42.833 19 58.5s30.667 23.5 54 23.5s41.5 -7.83301 54.5 -23.5s19.5 -35.167 19.5 -58.5c0 -22.667 -6.5 -41.5 -19.5 -56.5s-31.167 -22.5 -54.5 -22.5
s-41.333 7.5 -54 22.5s-19 33.833 -19 56.5z" />
    <glyph glyph-name="at" unicode="@" horiz-adv-x="1606" 
d="M1488 512c-1.33301 -42 -5.16992 -84.166 -11.5029 -126.499s-15.333 -83.333 -27 -123s-26.334 -76.667 -44.001 -111s-38.5 -64.166 -62.5 -89.499s-51.5 -45.333 -82.5 -60s-65.5 -22 -103.5 -22c-54 0 -98.167 16.5 -132.5 49.5s-57.166 79.5 -68.499 139.5
c-30 -62.667 -66.167 -109.834 -108.5 -141.501s-87.833 -47.5 -136.5 -47.5c-40 0 -75 10.667 -105 32s-54.333 51.5 -73 90.5s-31.5 85.833 -38.5 140.5s-7.83301 115.667 -2.5 183c6.66699 86 20.834 163.667 42.501 233s48.834 128.333 81.501 177
s69.5 86.167 110.5 112.5s84.167 39.5 129.5 39.5c28.667 0 54 -2.83301 76 -8.5s41.833 -13.5 59.5 -23.5s34 -21.5 49 -34.5l45.5 -41.5l-44 -569c-3.33301 -53.333 -1.16602 -96 6.50098 -128s18.167 -56.667 31.5 -74s28.166 -28.666 44.499 -33.999
s31.166 -8 44.499 -8c36.667 0 69.167 11.333 97.5 34s52.333 54 72 94s35 87 46 141s17.5 112.667 19.5 176c5.33301 126 -1.66699 239.333 -21 340s-52 186 -98 256s-105.833 123.833 -179.5 161.5s-162.167 56.5 -265.5 56.5c-89.333 0 -171.333 -20.167 -246 -60.5
s-139.5 -97.5 -194.5 -171.5s-98.667 -163.167 -131 -267.5s-50.833 -220.5 -55.5 -348.5c-5.33301 -124 3.33398 -237.5 26.001 -340.5s58 -191.5 106 -265.5s108.333 -131.5 181 -172.5s156.334 -61.5 251.001 -61.5c24.667 0 49.834 1.83301 75.501 5.5s50.667 9 75 16
s47.333 15.333 69 25s41.167 20.5 58.5 32.5l27 -81c-19.333 -14.667 -41.333 -27.5 -66 -38.5s-50.834 -20.333 -78.501 -28s-55.5 -13.334 -83.5 -17.001s-54.667 -5.5 -80 -5.5c-106.667 0 -201.5 21.5 -284.5 64.5s-152.667 104.833 -209 185.5
s-98.333 178.5 -126 293.5s-38.834 244.167 -33.501 387.5c4.66699 140 25.167 267.833 61.5 383.5s85.833 215 148.5 298s137.334 147.333 224.001 193s183 68.5 289 68.5c110.667 0 207.5 -21.333 290.5 -64s151.5 -103.334 205.5 -182.001s93.333 -174.167 118 -286.5
s34.667 -237.833 30 -376.5zM588.996 426.001c-4 -51.333 -3.99805 -98.335 0.00195312 -141.002s12 -79.167 24 -109.5s28 -54 48 -71s44 -25.5 72 -25.5c18.667 0 38 3.83301 58 11.5s39.5 20.834 58.5 39.501s37.167 43.834 54.5 75.501s33 71.5 47 119.5l39 525
c-16.667 13.333 -35.334 24.333 -56.001 33s-44.334 13 -71.001 13c-33.333 0 -65 -9.5 -95 -28.5s-57.167 -48 -81.5 -87s-45 -88 -62 -147s-28.833 -128.167 -35.5 -207.5z" />
    <glyph glyph-name="A" unicode="A" 
d="M834 407h-546l-124 -407h-119l464 1456h106l464 -1456h-119zM321 514h480l-240 781z" />
    <glyph glyph-name="B" unicode="B" horiz-adv-x="1097" 
d="M172 0l0.00195312 1456h369c62 0 117.833 -7.5 167.5 -22.5s91.667 -38 126 -69s60.666 -70.5 78.999 -118.5s27.5 -105 27.5 -171c0 -74.667 -17.333 -139.667 -52 -195s-82.667 -95.333 -144 -120c36.667 -9.33301 69.5 -24.833 98.5 -46.5s53.833 -48 74.5 -79
s36.5 -65.667 47.5 -104s16.5 -78.5 16.5 -120.5c0 -66.667 -9.5 -125.5 -28.5 -176.5s-45.667 -93.833 -80 -128.5s-75.833 -60.834 -124.5 -78.501s-102.334 -26.5 -161.001 -26.5h-416zM286.002 699.001v-592.999h302c44 0 83.333 7 118 21s64 34 88 60
s42.333 57.667 55 95s19 79.333 19 126c0 41.333 -5.5 79.666 -16.5 114.999s-27.667 66 -50 92s-50.5 46.5 -84.5 61.5s-74.333 22.5 -121 22.5h-310zM286.002 804.002l265 -0.000976562c86.667 0 154 23 202 69s72 114.333 72 205c0 92.667 -23.5 160.834 -70.5 204.501
s-118.167 65.5 -213.5 65.5h-255v-544z" />
    <glyph glyph-name="C" unicode="C" horiz-adv-x="1158" 
d="M1045 454c-10.667 -163.333 -54.668 -283.165 -132.001 -359.498s-184.333 -114.5 -321 -114.5c-70 0 -133.167 13.667 -189.5 41s-104.166 66.666 -143.499 117.999s-69.666 113.833 -90.999 187.5s-32 156.834 -32 249.501v313c0 91.333 10.667 173.333 32 246
s52 134.167 92 184.5s88.667 89 146 116s122.333 40.5 195 40.5c66 0 125.167 -9.33301 177.5 -28s97.5 -47.334 135.5 -86.001s68 -88 90 -148s35.667 -131.333 41 -214h-116c-5.33301 66.667 -15.666 123.334 -30.999 170.001s-36.5 84.667 -63.5 114
s-59.833 50.666 -98.5 63.999s-83.667 20 -135 20c-56.667 0 -106.667 -10.833 -150 -32.5s-79.833 -52.834 -109.5 -93.501s-52 -90.667 -67 -150s-22.5 -126.333 -22.5 -201v-315c0 -74 7.16699 -141.167 21.5 -201.5s35.666 -111.833 63.999 -154.5
s63.666 -75.667 105.999 -99s91.833 -35 148.5 -35c53.333 0 100 6.16699 140 18.5s73.667 32.833 101 61.5s48.833 66.5 64.5 113.5s26.167 105.167 31.5 174.5h116z" />
    <glyph glyph-name="D" unicode="D" horiz-adv-x="1167" 
d="M172 0v1456h343c76.667 0 146.834 -12.667 210.501 -38s118.167 -62.666 163.5 -111.999s80.5 -110.333 105.5 -183s37.5 -156 37.5 -250v-291c0 -94 -12.5 -177.333 -37.5 -250s-60.333 -133.5 -106 -182.5s-100.834 -86.167 -165.501 -111.5s-136.667 -38 -216 -38
h-335zM286 1348l0.00195312 -1242h221c65.333 0 123.5 10.333 174.5 31s94.167 51.167 129.5 91.5s62.166 90.166 80.499 149.499s27.5 127.333 27.5 204v294c0 78 -9.33301 146.333 -28 205s-45.334 107.834 -80.001 147.501s-77 69.5 -127 89.5s-106.333 30 -169 30h-229z
" />
    <glyph glyph-name="E" unicode="E" horiz-adv-x="1018" 
d="M851 697h-565v-591h650v-106h-764v1456h759v-108h-645v-545h565v-106z" />
    <glyph glyph-name="F" unicode="F" horiz-adv-x="1004" 
d="M846 678h-560v-678h-114v1456h758v-108h-644v-562h560v-108z" />
    <glyph glyph-name="G" unicode="G" horiz-adv-x="1215" 
d="M1059 169c-11.333 -14.667 -27.668 -32.666 -49.001 -53.999s-49.166 -42 -83.499 -62s-75.833 -37.167 -124.5 -51.5s-105.334 -21.5 -170.001 -21.5c-72.667 0 -138.834 12.5 -198.501 37.5s-110.667 62.167 -153 111.5s-75.166 110.5 -98.499 183.5
s-35 157.5 -35 253.5v334c0 94 10.5 177 31.5 249s51.5 132.167 91.5 180.5s89 84.833 147 109.5s124 37 198 37c68.667 0 129.5 -9.66699 182.5 -29s98 -47.333 135 -84s66 -81.834 87 -135.501s33.833 -114.5 38.5 -182.5h-114c-5.33301 50 -15.166 95 -29.499 135
s-34.666 74 -60.999 102s-59 49.333 -98 64s-85.5 22 -139.5 22c-118.667 0 -207.5 -39.5 -266.5 -118.5s-88.5 -194.833 -88.5 -347.5v-336c0 -78.667 8.66699 -147.834 26 -207.501s42 -109.667 74 -150s70.833 -70.833 116.5 -91.5s97.167 -31 154.5 -31
c46 0 86.667 4.66699 122 14s65.666 20.5 90.999 33.5s46 26.333 62 40s28.333 24.834 37 33.501v379h-319v107h434v-524z" />
    <glyph glyph-name="H" unicode="H" horiz-adv-x="1259" 
d="M1085 0h-115v697h-684v-697h-114v1456h114v-653h684v653h115v-1456z" />
    <glyph glyph-name="I" unicode="I" horiz-adv-x="500" 
d="M307 0h-114v1456h114v-1456z" />
    <glyph glyph-name="J" unicode="J" horiz-adv-x="987" 
d="M707 1456l115.002 -0.00292969v-1023c0 -73.333 -9.33301 -138.166 -28 -194.499s-44.667 -103.666 -78 -141.999s-72.833 -67.333 -118.5 -87s-95.167 -29.5 -148.5 -29.5c-55.333 0 -105.833 8.5 -151.5 25.5s-84.834 43 -117.501 78s-58 78.833 -76 131.5
s-27 114.667 -27 186h114c0 -105.333 22.833 -184.166 68.5 -236.499s108.834 -78.5 189.501 -78.5c36 0 69.667 7.33301 101 22s58.666 36.667 81.999 66s41.666 65.5 54.999 108.5s20 93.167 20 150.5v1023z" />
    <glyph glyph-name="K" unicode="K" horiz-adv-x="1124" 
d="M455 718l-169 -196v-522h-114v1456h114v-776l160 200l451 576h143l-508 -648l547 -808h-139z" />
    <glyph glyph-name="L" unicode="L" horiz-adv-x="950" 
d="M287 106h600v-106h-715v1456h115v-1350z" />
    <glyph glyph-name="M" unicode="M" horiz-adv-x="1531" 
d="M323 1456l441 -1281l443 1281h151v-1456h-114v633l10 633l-446 -1266h-88l-444 1260l10 -627v-633h-114v1456h151z" />
    <glyph glyph-name="N" unicode="N" horiz-adv-x="1262" 
d="M1088 0h-114l-687 1240v-1240h-115v1456h115l688 -1242v1242h113v-1456z" />
    <glyph glyph-name="O" unicode="O" horiz-adv-x="1208" 
d="M1075 570c0 -96 -10.833 -180.833 -32.5 -254.5s-52.834 -135.334 -93.501 -185.001s-90 -87.167 -148 -112.5s-123.333 -38 -196 -38c-72 0 -137 12.667 -195 38s-107.667 62.833 -149 112.5s-73.166 111.334 -95.499 185.001s-33.5 158.5 -33.5 254.5v314
c0 96 11 180.833 33 254.5s53.5 135.5 94.5 185.5s90.5 87.833 148.5 113.5s123 38.5 195 38.5c72.667 0 138.167 -12.833 196.5 -38.5s107.833 -63.5 148.5 -113.5s72 -111.833 94 -185.5s33 -158.5 33 -254.5v-314zM960 886c0 159.333 -30.667 279 -92 359
s-149.666 120 -264.999 120c-112.667 0 -200.334 -40 -263.001 -120s-94 -199.667 -94 -359v-316c0 -160 31.667 -280.167 95 -360.5s151.333 -120.5 264 -120.5c116 0 204.167 40 264.5 120s90.5 200.333 90.5 361v316z" />
    <glyph glyph-name="P" unicode="P" horiz-adv-x="1104" 
d="M286 592v-592.003h-114v1456h423c68 0 127.833 -10.667 179.5 -32s95 -51.166 130 -89.499s61.333 -84.166 79 -137.499s26.5 -112 26.5 -176c0 -67.333 -8.83301 -127.666 -26.5 -180.999s-44 -98.333 -79 -135s-78.333 -64.667 -130 -84s-111.5 -29 -179.5 -29h-309z
M286 698.997h309c53.333 0 99 8.16699 137 24.5s69.167 38.833 93.5 67.5s42.166 62.5 53.499 101.5s17 81.167 17 126.5c0 44 -5.66699 86 -17 126s-29.166 75 -53.499 105s-55.5 53.833 -93.5 71.5s-83.667 26.5 -137 26.5h-309v-649z" />
    <glyph glyph-name="Q" unicode="Q" horiz-adv-x="1208" 
d="M1071 570c0 -130 -19.3369 -238.832 -58.0039 -326.499s-93.667 -153.834 -165 -198.501l219 -220l-78 -79l-250 252c-43.333 -12 -89.666 -18 -138.999 -18c-71.333 0 -136.166 12.667 -194.499 38s-108 63 -149 113s-72.667 111.667 -95 185s-33.5 158 -33.5 254v314
c0 96 11 180.833 33 254.5s53.5 135.5 94.5 185.5s90.5 87.833 148.5 113.5s122.667 38.5 194 38.5c72.667 0 138.334 -12.833 197.001 -38.5s108.334 -63.5 149.001 -113.5s72 -111.833 94 -185.5s33 -158.5 33 -254.5v-314zM955.996 886.001
c0 159.333 -30.667 279 -92 359s-150 120 -266 120c-112 0 -199.333 -40 -262 -120s-94 -199.667 -94 -359v-316c0 -160 31.667 -280.167 95 -360.5s151 -120.5 263 -120.5c116.667 0 205.167 40 265.5 120s90.5 200.333 90.5 361v316z" />
    <glyph glyph-name="R" unicode="R" horiz-adv-x="1126" 
d="M625 606l-340.001 -0.00195312v-606h-115v1456h399c64.667 0 122.834 -9.33301 174.501 -28s95.5 -46.167 131.5 -82.5s63.667 -81.166 83 -134.499s29 -114.666 29 -183.999c0 -48 -6 -93 -18 -135s-29 -80 -51 -114s-48.5 -63.5 -79.5 -88.5
s-65.167 -44.167 -102.5 -57.5l303 -619v-13h-122zM284.999 711.998l304 -0.000976562c46.667 0 87.834 8.66699 123.501 26s65.167 40.5 88.5 69.5s41 62.5 53 100.5s18 77.667 18 119c0 49.333 -6.5 93.833 -19.5 133.5s-32.333 73.334 -58 101.001s-57.334 49 -95.001 64
s-81.167 22.5 -130.5 22.5h-284v-636z" />
    <glyph glyph-name="S" unicode="S" horiz-adv-x="1059" 
d="M856 358c0 40 -5.16309 75.5049 -15.4961 106.505s-28 59.167 -53 84.5s-58.5 48.666 -100.5 69.999s-94.333 42.666 -157 63.999c-61.333 20.667 -116.5 43.167 -165.5 67.5s-90.833 52.666 -125.5 84.999s-61.334 70 -80.001 113s-28 93.167 -28 150.5
c0 56 10.167 107.167 30.5 153.5s48.666 86 84.999 119s79.666 58.667 129.999 77s105.833 27.5 166.5 27.5c65.333 0 124 -11.333 176 -34s96.333 -53.667 133 -93s64.667 -85.5 84 -138.5s29 -109.833 29 -170.5h-115c0 47.333 -6.83301 91 -20.5 131
s-33.5 74.667 -59.5 104s-58 52.166 -96 68.499s-81.667 24.5 -131 24.5s-92.5 -7 -129.5 -21s-67.833 -33.167 -92.5 -57.5s-43.334 -52.666 -56.001 -84.999s-19 -66.833 -19 -103.5c0 -34.667 5.5 -66.5 16.5 -95.5s29.167 -55.833 54.5 -80.5s58.5 -47.834 99.5 -69.501
s91.167 -42.167 150.5 -61.5c65.333 -21.333 123.166 -44.833 173.499 -70.5s92.666 -55.5 126.999 -89.5s60.333 -73.5 78 -118.5s26.5 -96.833 26.5 -155.5c0 -59.333 -10.5 -112.5 -31.5 -159.5s-50.167 -86.833 -87.5 -119.5s-81.666 -57.667 -132.999 -75
s-107.666 -26 -168.999 -26c-54.667 0 -109.334 8.33301 -164.001 25s-103.667 42.5 -147 77.5s-78.666 80 -105.999 135s-41 121.167 -41 198.5h114c0 -61.333 10.167 -113 30.5 -155s46.833 -76 79.5 -102s69.5 -44.667 110.5 -56s82.167 -17 123.5 -17
c46.667 0 88.834 6.5 126.501 19.5s69.667 31.333 96 55s46.666 52.167 60.999 85.5s21.5 70.666 21.5 111.999z" />
    <glyph glyph-name="T" unicode="T" horiz-adv-x="1067" 
d="M1005 1348h-414v-1348h-115v1348h-413v108h942v-108z" />
    <glyph glyph-name="U" unicode="U" horiz-adv-x="1168" 
d="M1018 1456l-0.00195312 -1027c0 -82 -11.5 -151.5 -34.5 -208.5s-54.167 -103.333 -93.5 -139s-85.166 -61.5 -137.499 -77.5s-108.166 -24 -167.499 -24c-61.333 0 -118.333 8 -171 24s-98.5 41.833 -137.5 77.5s-69.5 82 -91.5 139s-33 126.5 -33 208.5v1027h114v-1027
c0 -63.333 7.83301 -116.833 23.5 -160.5s37.667 -79 66 -106s62 -46.5 101 -58.5s81.833 -18 128.5 -18s89.5 6 128.5 18s72.5 31.5 100.5 58.5s49.833 62.333 65.5 106s23.5 97.167 23.5 160.5v1027h115z" />
    <glyph glyph-name="V" unicode="V" horiz-adv-x="1107" 
d="M550 182l3 -16l4 16l380 1274h126l-455 -1456h-108l-455 1456h125z" />
    <glyph glyph-name="W" unicode="W" horiz-adv-x="1579" 
d="M405 396l35 -216l44 206l261 1070h102l257 -1070l43 -208l38 218l215 1060h116l-310 -1456h-108l-273 1135l-29 135l-28 -135l-279 -1135h-109l-309 1456h117z" />
    <glyph glyph-name="X" unicode="X" horiz-adv-x="1097" 
d="M549 842l335 614h136l-401 -718l413 -738h-137l-346 633l-347 -633h-136l415 738l-403 718h136z" />
    <glyph glyph-name="Y" unicode="Y" horiz-adv-x="1070" 
d="M534 664l363 792h131l-438 -908v-548h-114v548l-437 908h134z" />
    <glyph glyph-name="Z" unicode="Z" horiz-adv-x="1069" 
d="M228 106h749v-106h-882v95l720 1254h-700v107h835v-91z" />
    <glyph glyph-name="bracketleft" unicode="[" horiz-adv-x="461" 
d="M439 1560h-174v-1768h174v-104h-285v1976h285v-104z" />
    <glyph glyph-name="backslash" unicode="\" horiz-adv-x="723" 
d="M59 1456h108l510 -1581h-107z" />
    <glyph glyph-name="bracketright" unicode="]" horiz-adv-x="461" 
d="M21 1664h286v-1976h-286v104h175v1768h-175v104z" />
    <glyph glyph-name="asciicircum" unicode="^" horiz-adv-x="756" 
d="M374 1295l-185 -566h-107l252 727h81l250 -727h-106z" />
    <glyph glyph-name="underscore" unicode="_" horiz-adv-x="789" 
d="M767 -103h-746v103h746v-103z" />
    <glyph glyph-name="grave" unicode="`" horiz-adv-x="585" 
d="M438 1245h-109l-226 280h144z" />
    <glyph glyph-name="a" unicode="a" horiz-adv-x="964" 
d="M720 0c-5.33301 18 -9.66504 40.502 -12.998 67.502s-5.66602 54.5 -6.99902 82.5c-14 -22.667 -30.667 -44.167 -50 -64.5s-41.5 -38.333 -66.5 -54s-52.833 -28.167 -83.5 -37.5s-63.667 -14 -99 -14c-44.667 0 -85.167 6.33301 -121.5 19s-67.5 31.667 -93.5 57
s-46 57 -60 95s-21 82.333 -21 133c0 50 8.66699 96.167 26 138.5s43.166 78.833 77.499 109.5s77.166 54.667 128.499 72s111 26 179 26h183v151c0 77.333 -19.167 132.833 -57.5 166.5s-94.5 50.5 -168.5 50.5c-34.667 0 -66.5 -5.33301 -95.5 -16
s-53.833 -25.5 -74.5 -44.5s-36.667 -41.667 -48 -68s-17 -55.166 -17 -86.499l-111 1c0 42 8.33301 82.167 25 120.5s40.334 72.166 71.001 101.499s67.667 52.666 111 69.999s91.333 26 144 26c48.667 0 93.167 -5.83301 133.5 -17.5s75.166 -30.334 104.499 -56.001
s52.166 -59 68.499 -100s24.5 -90.833 24.5 -149.5v-552c0 -18.667 0.666992 -38 2 -58s3.16602 -39.5 5.49902 -58.5s5.33301 -37 9 -54s7.83398 -31.833 12.501 -44.5v-12h-118zM415.001 87.002c34.667 0 67.167 4.83301 97.5 14.5s57.5 23 81.5 40
s44.833 36.833 62.5 59.5s31.834 47 42.501 73v263h-167c-104.667 0 -183.334 -22 -236.001 -66s-79 -103.333 -79 -178c0 -71.333 17.5 -123.5 52.5 -156.5s83.5 -49.5 145.5 -49.5z" />
    <glyph glyph-name="b" unicode="b" horiz-adv-x="996" 
d="M887 490c0 -87.333 -7.83398 -163.001 -23.501 -227.001s-38.334 -117 -68.001 -159s-66 -73.167 -109 -93.5s-92.167 -30.5 -147.5 -30.5c-67.333 0 -124.166 14.667 -170.499 44s-83.833 69.666 -112.5 120.999l-5 -145h-103v1536h110v-605
c28.667 54 65.667 96 111 126s101.333 45 168 45c56 0 105.667 -9.66699 149 -29s79.833 -49.666 109.5 -90.999s52.334 -94.166 68.001 -158.499s23.5 -141.833 23.5 -232.5v-101zM775.999 590.999c0 137.333 -20.332 239 -60.999 305s-107.334 99 -200.001 99
c-36 0 -68 -5.33301 -96 -16s-52.333 -25 -73 -43s-38.167 -38.833 -52.5 -62.5s-26.166 -48.167 -35.499 -73.5v-536c10 -25.333 22.833 -48.833 38.5 -70.5s34.167 -40.5 55.5 -56.5s45.666 -28.5 72.999 -37.5s58 -13.5 92 -13.5c89.333 0 154.833 32.667 196.5 98
s62.5 167.333 62.5 306v101z" />
    <glyph glyph-name="c" unicode="c" horiz-adv-x="929" 
d="M490 83c30.667 0 60.334 4 89.001 12s54.167 21.667 76.5 41s40.666 45.166 54.999 77.499s22.5 72.833 24.5 121.5h107c-2.66699 -58 -13.667 -109.167 -33 -153.5s-45 -81.333 -77 -111s-68.667 -52.167 -110 -67.5s-85.333 -23 -132 -23
c-130 0 -227.833 42 -293.5 126s-98.5 208.667 -98.5 374v122c0 165.333 32.833 290 98.5 374s163.167 126 292.5 126c49.333 0 95.166 -7.83301 137.499 -23.5s79 -39.334 110 -71.001s55.833 -71.667 74.5 -120s29 -105.166 31 -170.499h-107
c-2 50 -9.66699 92.833 -23 128.5s-30.833 64.834 -52.5 87.501s-47 39.167 -76 49.5s-60.5 15.5 -94.5 15.5c-51.333 0 -94.666 -8.83301 -129.999 -26.5s-64 -43.5 -86 -77.5s-38 -75.5 -48 -124.5s-15 -104.833 -15 -167.5v-122
c0 -63.333 4.83301 -119.666 14.5 -168.999s25.5 -90.833 47.5 -124.5s50.833 -59.334 86.5 -77.001s79.5 -26.5 131.5 -26.5z" />
    <glyph glyph-name="d" unicode="d" horiz-adv-x="999" 
d="M108 591c0 90.667 8.16602 168.169 24.499 232.502s39.833 117.166 70.5 158.499s67.834 71.666 111.501 90.999s92.5 29 146.5 29c64.667 0 119.5 -14.5 164.5 -43.5s81.833 -69.5 110.5 -121.5v599h111v-1536h-104l-5 139c-28.667 -50 -65.834 -89 -111.501 -117
s-101.167 -42 -166.5 -42c-54 0 -102.667 10.167 -146 30.5s-80.166 51.5 -110.499 93.5s-53.833 95 -70.5 159s-25 139.667 -25 227v101zM220.999 490.002c0 -138.667 20.833 -240.667 62.5 -306s107.834 -98 198.501 -98c32.667 0 62.167 4.16699 88.5 12.5s50 20 71 35
s39.167 32.667 54.5 53s28.666 42.5 39.999 66.5v561c-10 24 -22.333 47 -37 69s-32.167 41.167 -52.5 57.5s-44 29.5 -71 39.5s-57.833 15 -92.5 15c-91.333 0 -157.833 -32.833 -199.5 -98.5s-62.5 -167.5 -62.5 -305.5v-101z" />
    <glyph glyph-name="e" unicode="e" horiz-adv-x="937" 
d="M505 -20c-60 0 -115.002 9.83203 -165.002 29.499s-93.167 49.667 -129.5 90s-64.5 91.166 -84.5 152.499s-30 134 -30 218v123c0 90.667 10.667 168.167 32 232.5s49.833 117 85.5 158s77 71 124 90s96.5 28.5 148.5 28.5c118.667 0 208.834 -39.167 270.501 -117.5
s92.5 -198.166 92.5 -359.499v-94h-643v-61c0 -66 7.33301 -123.333 22 -172s35.334 -89 62.001 -121s58.667 -55.833 96 -71.5s78.666 -23.5 123.999 -23.5c56 0 104.667 9.5 146 28.5s79 48.5 113 88.5l58 -74c-14.667 -20 -31.834 -38.667 -51.501 -56
s-42.667 -32.666 -69 -45.999s-56.166 -23.833 -89.499 -31.5s-70.666 -11.5 -111.999 -11.5zM485.998 997.999c-39.333 0 -75.5 -6.66699 -108.5 -20s-61.667 -34.5 -86 -63.5s-43.833 -66.5 -58.5 -112.5s-23.334 -101.667 -26.001 -167h531v29
c-1.33301 52.667 -7.33301 99.667 -18 141s-26.167 76.333 -46.5 105s-46.166 50.5 -77.499 65.5s-68 22.5 -110 22.5z" />
    <glyph glyph-name="f" unicode="f" horiz-adv-x="615" 
d="M221 0l0.00195312 981.998h-149v100h149v133c0 110.667 24.333 195.334 73 254.001s116 88 202 88c17.333 0 35.166 -1.33301 53.499 -4s36.166 -7 53.499 -13l-8 -102c-13.333 3.33301 -27.333 6 -42 8s-30.667 3 -48 3c-54 0 -96.167 -20.167 -126.5 -60.5
s-45.5 -98.166 -45.5 -173.499v-133h212v-100h-212v-982h-112z" />
    <glyph glyph-name="g" unicode="g" horiz-adv-x="996" 
d="M109 591c0 90.667 7.99707 168.167 23.9971 232.5s39.167 117.166 69.5 158.499s67.333 71.666 111 90.999s92.834 29 147.501 29c66 0 121.667 -15 167 -45s82.333 -72 111 -126l6 151h103v-1108c0 -70.667 -8.5 -131.5 -25.5 -182.5s-41.333 -93 -73 -126
s-69.834 -57.333 -114.501 -73s-94.667 -23.5 -150 -23.5c-27.333 0 -55.666 3.33301 -84.999 10s-58.166 16.5 -86.499 29.5s-55.166 28.667 -80.499 47s-47 39.5 -65 63.5l52 80c37.333 -42.667 77.666 -74.5 120.999 -95.5s88.666 -31.5 135.999 -31.5
c42 0 79.167 5.33301 111.5 16s59.333 27.834 81 51.501s38.167 54.334 49.5 92.001s17 83.5 17 137.5v166c-28.667 -48.667 -65.667 -86.667 -111 -114s-100.333 -41 -165 -41c-54 0 -102.667 10.167 -146 30.5s-80.166 51.5 -110.499 93.5s-53.666 95 -69.999 159
s-24.5 139.667 -24.5 227v101zM220.997 490c0 -138.667 20.998 -240.668 62.998 -306.001s108 -98 198 -98c33.333 0 63.333 4.33301 90 13s50.334 20.667 71.001 36s38.667 33.333 54 54s28.333 43.334 39 68.001v553c-10 24.667 -22.167 48.167 -36.5 70.5
s-31.666 42 -51.999 59s-44 30.5 -71 40.5s-57.833 15 -92.5 15c-91.333 0 -158 -32.833 -200 -98.5s-63 -167.5 -63 -305.5v-101z" />
    <glyph glyph-name="h" unicode="h" horiz-adv-x="985" 
d="M259 912c32 58 72.5 104.169 121.5 138.502s105.167 51.5 168.5 51.5c45.333 0 85.833 -7.33301 121.5 -22s66 -38 91 -70s44.167 -73.167 57.5 -123.5s20 -111.166 20 -182.499v-704h-110v705c0 55.333 -4.83301 101.666 -14.5 138.999s-23.5 67.166 -41.5 89.499
s-39.833 38.333 -65.5 48s-54.5 14.5 -86.5 14.5c-33.333 0 -63.833 -6.83301 -91.5 -20.5s-52.5 -31.834 -74.5 -54.501s-41 -48.667 -57 -78s-29 -60 -39 -92v-751h-111v1536h111v-624z" />
    <glyph glyph-name="i" unicode="i" horiz-adv-x="431" 
d="M272 0h-112v1082h112v-1082zM144 1394c0 22.667 6.33301 42 19 58s30.667 24 54 24s41.5 -8 54.5 -24s19.5 -35.333 19.5 -58s-6.5 -41.834 -19.5 -57.501s-31.167 -23.5 -54.5 -23.5s-41.333 7.83301 -54 23.5s-19 34.834 -19 57.501z" />
    <glyph glyph-name="j" unicode="j" horiz-adv-x="436" 
d="M267 1082v-1211c0 -100 -20.167 -176.333 -60.5 -229s-99.833 -79 -178.5 -79c-14 0 -29 1.66699 -45 5s-30.667 8 -44 14l1 101c10 -3.33301 22 -6.33301 36 -9s26.667 -4 38 -4c46 0 81.167 16.5 105.5 49.5s36.5 83.5 36.5 151.5v1211h111zM139 1394
c0 22.667 6.16699 42 18.5 58s30.166 24 53.499 24s41.5 -8 54.5 -24s19.5 -35.333 19.5 -58s-6.5 -41.834 -19.5 -57.501s-31.167 -23.5 -54.5 -23.5s-41.166 7.83301 -53.499 23.5s-18.5 34.834 -18.5 57.501z" />
    <glyph glyph-name="k" unicode="k" horiz-adv-x="888" 
d="M373 541l-113 -126v-415h-112v1536h112v-977l93 118l335 405h138l-380 -457l416 -625h-132z" />
    <glyph glyph-name="l" unicode="l" horiz-adv-x="431" 
d="M272 0h-112v1536h112v-1536z" />
    <glyph glyph-name="m" unicode="m" horiz-adv-x="1561" 
d="M250 1082l3.00098 -162.002c30.667 55.333 70.167 99.5 118.5 132.5s105.5 49.5 171.5 49.5c64.667 0 120.5 -15.833 167.5 -47.5s81.167 -82.167 102.5 -151.5c14.667 28.667 32.167 55.334 52.5 80.001s43.5 45.667 69.5 63s54.333 31 85 41s64 15 100 15
c47.333 0 89.5 -7.5 126.5 -22.5s68.333 -38.667 94 -71s45.167 -73.5 58.5 -123.5s20 -110 20 -180v-705h-111v706c0 56.667 -5.16699 103.667 -15.5 141s-25 67.166 -44 89.499s-41.833 37.833 -68.5 46.5s-56 13 -88 13c-40 -0.666992 -75.333 -9.5 -106 -26.5
s-56.667 -38.667 -78 -65s-37.833 -55.833 -49.5 -88.5s-18.834 -64.667 -21.501 -96v-720h-112v715c0 53.333 -5.16699 98 -15.5 134s-25 64.833 -44 86.5s-41.833 37.167 -68.5 46.5s-56 14 -88 14c-36 0 -68 -6.83301 -96 -20.5s-52.333 -31.667 -73 -54
s-38 -48.166 -52 -77.499s-25 -59.666 -33 -90.999v-753h-111v1082h106z" />
    <glyph glyph-name="n" unicode="n" horiz-adv-x="986" 
d="M254 1082l3 -171.999c32 58.667 72.833 105.334 122.5 140.001s106.167 52 169.5 52c45.333 0 85.833 -7.33301 121.5 -22s66 -38 91 -70s44.167 -73.167 57.5 -123.5s20 -111.166 20 -182.499v-704h-110v705c0 55.333 -4.83301 101.666 -14.5 138.999
s-23.5 67.166 -41.5 89.499s-39.833 38.333 -65.5 48s-54.5 14.5 -86.5 14.5c-33.333 0 -63.833 -6.83301 -91.5 -20.5s-52.5 -31.834 -74.5 -54.501s-41 -48.667 -57 -78s-29 -60 -39 -92v-751h-111v1082h106z" />
    <glyph glyph-name="o" unicode="o" horiz-adv-x="1005" 
d="M106 596c0 82 9.66699 154.333 29 217s46.333 115.5 81 158.5s76.167 75.5 124.5 97.5s101.833 33 160.5 33c59.333 0 113.333 -11 162 -33s90.334 -54.5 125.001 -97.5s61.5 -95.833 80.5 -158.5s28.5 -135 28.5 -217v-112c0 -82 -9.5 -154.333 -28.5 -217
s-45.833 -115.167 -80.5 -157.5s-76.167 -74.5 -124.5 -96.5s-101.833 -33 -160.5 -33c-59.333 0 -113.333 11 -162 33s-90.334 54.167 -125.001 96.5s-61.667 94.833 -81 157.5s-29 135 -29 217v112zM218 484c0 -62 6.33398 -117.667 19.001 -167s31.167 -91.333 55.5 -126
s54.166 -61.334 89.499 -80.001s75.666 -28 120.999 -28c48 0 89.667 9.33301 125 28s64.666 45.334 87.999 80.001s40.833 76.667 52.5 126s17.5 105 17.5 167v112c0 60.667 -6.33301 115.834 -19 165.501s-31.167 92 -55.5 127s-54.166 62 -89.499 81
s-75.666 28.5 -120.999 28.5c-44.667 0 -84.5 -9.5 -119.5 -28.5s-64.667 -46 -89 -81s-42.833 -77.333 -55.5 -127s-19 -104.834 -19 -165.501v-112z" />
    <glyph glyph-name="p" unicode="p" horiz-adv-x="996" 
d="M886 490c0 -87.333 -7.83594 -163.002 -23.5029 -227.002s-38.167 -117 -67.5 -159s-65.666 -73.167 -108.999 -93.5s-92.333 -30.5 -147 -30.5c-65.333 0 -121.166 13.167 -167.499 39.5s-84.166 63.166 -113.499 110.499v-546h-110v1498h102l5 -148
c30 52.667 68 93.834 114 123.501s101.667 44.5 167 44.5c56 0 105.667 -9.66699 149 -29s80 -49.666 110 -90.999s52.667 -94.166 68 -158.499s23 -141.833 23 -232.5v-101zM774.997 590.998c0 138.667 -21.5029 240.668 -64.5029 306.001s-110.167 98 -201.5 98
c-34 0 -64.5 -4.83301 -91.5 -14.5s-50.667 -22.834 -71 -39.501s-37.666 -35.667 -51.999 -57s-26.5 -44 -36.5 -68v-570c10.667 -23.333 23.834 -45 39.501 -65s33.834 -37.333 54.501 -52s44.167 -26 70.5 -34s55.833 -12 88.5 -12c90 0 156.5 33.167 199.5 99.5
s64.5 168.833 64.5 307.5v101z" />
    <glyph glyph-name="q" unicode="q" horiz-adv-x="1003" 
d="M108 591c0 90.667 8 168.169 24 232.502s39.333 117.166 70 158.499s67.834 71.666 111.501 90.999s93.5 29 149.5 29c63.333 0 117.5 -14 162.5 -42s82.167 -67.333 111.5 -118l6 140h104v-1498h-112v542c-30 -46 -67.333 -81.833 -112 -107.5
s-98.334 -38.5 -161.001 -38.5c-55.333 0 -105 10.167 -149 30.5s-81.167 51.5 -111.5 93.5s-53.5 95 -69.5 159s-24 139.667 -24 227v101zM221 490.002c0 -138.667 21.1641 -241.168 63.4971 -307.501s108.833 -99.5 199.5 -99.5c62.667 0 114.334 14.833 155.001 44.5
s72.667 67.834 96 114.501v583c-10.667 22.667 -23.5 44.5 -38.5 65.5s-32.667 39.5 -53 55.5s-43.666 28.667 -69.999 38s-55.833 14 -88.5 14c-91.333 0 -158.166 -33.167 -200.499 -99.5s-63.5 -168.833 -63.5 -307.5v-101z" />
    <glyph glyph-name="r" unicode="r" horiz-adv-x="619" 
d="M572 978c-11.333 2 -22.501 3.66699 -33.501 5s-23.167 2 -36.5 2c-32.667 0 -62.167 -5.83301 -88.5 -17.5s-49.5 -28 -69.5 -49s-37.167 -46.167 -51.5 -75.5s-25.5 -61.333 -33.5 -96v-747h-111v1082h109l2 -162c24.667 56.667 57.334 101.167 98.001 133.5
s90.667 48.5 150 48.5c12 0 24.667 -1.33301 38 -4s23 -5.66699 29 -9z" />
    <glyph glyph-name="s" unicode="s" horiz-adv-x="914" 
d="M689 266c0 22 -4.16504 42.6641 -12.498 61.9971s-22 38 -41 56s-44 36.333 -75 55s-69.5 38.667 -115.5 60c-49.333 22 -93.333 43.167 -132 63.5s-71.167 42.333 -97.5 66s-46.5 50.334 -60.5 80.001s-21 64.834 -21 105.501c0 40 7.5 77.5 22.5 112.5
s36.5 65.5 64.5 91.5s62 46.5 102 61.5s84.667 22.5 134 22.5c52.667 0 100 -7.83301 142 -23.5s77.5 -37.5 106.5 -65.5s51.167 -61.5 66.5 -100.5s23 -81.5 23 -127.5h-111c0 28 -5 54.833 -15 80.5s-24.667 48.334 -44 68.001s-43 35.334 -71 47.001
s-60.333 17.5 -97 17.5c-38 0 -70.333 -5.16699 -97 -15.5s-48.667 -24 -66 -41s-30 -36.333 -38 -58s-12 -43.5 -12 -65.5s3.33301 -41.5 10 -58.5s18.834 -33.5 36.501 -49.5s41.5 -32.5 71.5 -49.5s68.667 -36.833 116 -59.5c50 -22 95 -43.333 135 -64
s73.833 -43.5 101.5 -68.5s49 -53.167 64 -84.5s22.5 -68.666 22.5 -111.999c0 -44.667 -8 -85 -24 -121s-38.833 -66.667 -68.5 -92s-65.334 -44.833 -107.001 -58.5s-87.834 -20.5 -138.501 -20.5c-58.667 0 -110.334 8.5 -155.001 25.5s-82.167 39.833 -112.5 68.5
s-53.333 62 -69 100s-23.5 78.333 -23.5 121h112c2 -42.667 10.833 -77.667 26.5 -105s35.167 -49 58.5 -65s49.333 -27 78 -33s57 -9 85 -9c36.667 0 69.167 4.83301 97.5 14.5s52 22.667 71 39s33.333 35.666 43 57.999s14.5 46.166 14.5 71.499z" />
    <glyph glyph-name="t" unicode="t" horiz-adv-x="594" 
d="M315 1358l-0.000976562 -276h185v-100h-185v-719c0 -37.333 3.16699 -67.5 9.5 -90.5s14.833 -40.833 25.5 -53.5s22.834 -21.167 36.501 -25.5s28.167 -6.5 43.5 -6.5c14.667 0 29 1.16699 43 3.5s26.333 4.5 37 6.5l3 -100c-12 -5.33301 -27.833 -9.5 -47.5 -12.5
s-40.167 -4.5 -61.5 -4.5c-28.667 0 -55.167 4.66699 -79.5 14s-45.5 25 -63.5 47s-32 51.167 -42 87.5s-15 81.5 -15 135.5v718h-167v100h167v276h111z" />
    <glyph glyph-name="u" unicode="u" horiz-adv-x="986" 
d="M728 129c-28.667 -46.667 -66.1699 -83.1699 -112.503 -109.503s-103.833 -39.5 -172.5 -39.5c-44.667 0 -85.334 7.5 -122.001 22.5s-68 38.833 -94 71.5s-46.167 74.834 -60.5 126.501s-21.5 114.5 -21.5 188.5v693h110v-695c0 -57.333 5.33301 -105.166 16 -143.499
s25.334 -69.166 44.001 -92.499s40.167 -40 64.5 -50s50.166 -15 77.499 -15c38.667 0 72.834 5 102.501 15s55.334 24 77.001 42s39.834 39.5 54.501 64.5s26.334 52.5 35.001 82.5v792h112v-1082h-108z" />
    <glyph glyph-name="v" unicode="v" horiz-adv-x="869" 
d="M435 174l266 908h114l-337 -1082h-88l-339 1082h114z" />
    <glyph glyph-name="w" unicode="w" horiz-adv-x="1336" 
d="M376 246l9 -60l12 65l221 831h93l219 -824l16 -85l13 76l187 833h114l-265 -1082h-93l-235 860l-5 26l-4 -27l-231 -859h-94l-263 1082h113z" />
    <glyph glyph-name="x" unicode="x" horiz-adv-x="880" 
d="M438 645l237 437h131l-307 -531l319 -551h-130l-249 455l-250 -455h-130l318 551l-306 531h130z" />
    <glyph glyph-name="y" unicode="y" horiz-adv-x="857" 
d="M436 183l258.001 899.004h119l-381 -1255c-8 -24.667 -18 -52.334 -30 -83.001s-28 -59.334 -48 -86.001s-44.5 -49.167 -73.5 -67.5s-64.167 -27.5 -105.5 -27.5c-6 0 -12.667 0.5 -20 1.5s-14.833 2.16699 -22.5 3.5s-14.834 2.83301 -21.501 4.5s-12 3.16699 -16 4.5
l-1 102c6.66699 -2 15.5 -3.66699 26.5 -5s19.167 -2 24.5 -2c26.667 0 50.167 4.16699 70.5 12.5s38.333 20.666 54 36.999s29.5 36.666 41.5 60.999s22.667 52.5 32 84.5l42 140l-340 1075h122z" />
    <glyph glyph-name="z" unicode="z" horiz-adv-x="880" 
d="M225 103h584v-103h-716v90l547 887h-532v105h667v-91z" />
    <glyph glyph-name="braceleft" unicode="{" horiz-adv-x="610" 
d="M554 -402c-54.667 19.333 -100.334 44.5 -137.001 75.5s-66.167 66.333 -88.5 106s-38.166 83.334 -47.499 131.001s-14 97.5 -14 149.5v225c0 38.667 -3.5 74 -10.5 106s-18.333 59.167 -34 81.5s-35.5 39.666 -59.5 51.999s-53 18.5 -87 18.5v106c34 0 63 6 87 18
s43.833 29.167 59.5 51.5s27 49.166 34 80.499s10.5 66.666 10.5 105.999v227c0 52.667 4.66699 102.834 14 150.501s25.166 91.667 47.499 132s51.833 76 88.5 107s82.334 56.167 137.001 75.5l24 -81c-36.667 -14 -67.667 -33.333 -93 -58s-45.833 -53.667 -61.5 -87
s-27 -70.166 -34 -110.499s-10.5 -83.166 -10.5 -128.499v-227c0 -35.333 -3 -68.833 -9 -100.5s-15.5 -60.667 -28.5 -87s-29.5 -50 -49.5 -71s-43.667 -37.833 -71 -50.5c27.333 -13.333 51 -30.5 71 -51.5s36.5 -45 49.5 -72s22.5 -56.333 28.5 -88s9 -64.834 9 -99.501
v-225c0 -45.333 3.66699 -88 11 -128s19 -76.333 35 -109s36.667 -61.167 62 -85.5s56.333 -43.833 93 -58.5z" />
    <glyph glyph-name="bar" unicode="|" horiz-adv-x="452" 
d="M279 -270h-101v1726h101v-1726z" />
    <glyph glyph-name="braceright" unicode="}" horiz-adv-x="610" 
d="M29 -321c36.667 14.667 67.833 34.168 93.5 58.501s46.5 52.833 62.5 85.5s27.667 69 35 109s11 82.667 11 128v225c0 35.333 3.16699 69 9.5 101s16.166 61.5 29.499 88.5s30.333 50.667 51 71s45.334 36.833 74.001 49.5c-28.667 12.667 -53.334 29.167 -74.001 49.5
s-37.667 43.833 -51 70.5s-23.166 56 -29.499 88s-9.5 66 -9.5 102v227c0 45.333 -3.5 88.166 -10.5 128.499s-18.5 77.166 -34.5 110.499s-36.667 62.333 -62 87s-56.333 44 -93 58l24 81c54.667 -19.333 100.5 -44.5 137.5 -75.5s66.5 -66.667 88.5 -107
s37.667 -84.333 47 -132s14 -97.834 14 -150.501v-227c0 -39.333 3.66699 -74.666 11 -105.999s18.666 -58.166 33.999 -80.499s35 -39.5 59 -51.5s53 -18 87 -18v-106c-34 0 -63 -6.16699 -87 -18.5s-43.667 -29.666 -59 -51.999s-26.666 -49.5 -33.999 -81.5
s-11 -67.333 -11 -106v-225c0 -52 -4.66699 -101.833 -14 -149.5s-25 -91.334 -47 -131.001s-51.5 -75 -88.5 -106s-82.833 -56.167 -137.5 -75.5z" />
    <glyph glyph-name="asciitilde" unicode="~" horiz-adv-x="1216" 
d="M1075 765c0 -46 -5.83398 -89.833 -17.501 -131.5s-28.5 -78.167 -50.5 -109.5s-48.667 -56.166 -80 -74.499s-66.333 -27.5 -105 -27.5c-25.333 0 -48.5 3.16699 -69.5 9.5s-41.167 15.5 -60.5 27.5s-38.833 27 -58.5 45s-40.5 38.667 -62.5 62l-47.5 49.5
c-14.333 14.333 -28.5 26.166 -42.5 35.499s-28.167 16.333 -42.5 21s-29.5 7 -45.5 7c-48.667 0 -86.5 -19.833 -113.5 -59.5s-40.5 -96.5 -40.5 -170.5l-100 -1c0 47.333 5.83301 91.666 17.5 132.999s28.334 77.333 50.001 108s48.167 54.834 79.5 72.501
s67 26.5 107 26.5c24.667 0 47.5 -3.33301 68.5 -10s41.5 -16.167 61.5 -28.5s39.833 -27.333 59.5 -45s40.167 -37.834 61.5 -60.501c17.333 -20 33.333 -37.167 48 -51.5s29 -26 43 -35s28 -15.667 42 -20s29 -6.5 45 -6.5c24.667 0 46.667 5.5 66 16.5
s35.833 26.833 49.5 47.5s24.167 45.334 31.5 74.001s11 60.667 11 96h95z" />
    <glyph glyph-name="nonbreakingspace" unicode="&#xa0;" horiz-adv-x="460" 
 />
    <glyph glyph-name="exclamdown" unicode="&#xa1;" horiz-adv-x="427" 
d="M165 689h103l7 -1048h-116zM285 1021c0 -22.667 -6.5 -42 -19.5 -58s-31.167 -24 -54.5 -24s-41.5 8 -54.5 24s-19.5 35.333 -19.5 58s6.5 41.834 19.5 57.501s31.167 23.5 54.5 23.5s41.5 -7.83301 54.5 -23.5s19.5 -34.834 19.5 -57.501z" />
    <glyph glyph-name="cent" unicode="&#xa2;" horiz-adv-x="977" 
d="M509 83c30.667 0 60.334 3.99902 89.001 11.999s54.167 21.667 76.5 41s40.666 45.166 54.999 77.499s22.5 72.833 24.5 121.5h107c-2 -52.667 -11.167 -99.667 -27.5 -141s-38 -76.833 -65 -106.5s-58.333 -53.334 -94 -71.001s-73.834 -28.834 -114.501 -33.501v-228
h-111v229c-110 12.667 -192.833 60.334 -248.5 143.001s-83.5 200.334 -83.5 353.001v122c0 152 27.833 269.5 83.5 352.5s138.5 130.833 248.5 143.5v220h111v-219c42.667 -5.33301 82 -17 118 -35s67.167 -42.833 93.5 -74.5s47.333 -70.167 63 -115.5
s24.5 -97.666 26.5 -156.999h-107c-2 50 -9.66699 92.833 -23 128.5s-30.833 64.834 -52.5 87.501s-47 39.167 -76 49.5s-60.5 15.5 -94.5 15.5c-51.333 0 -94.666 -8.83301 -129.999 -26.5s-64 -43.5 -86 -77.5s-38 -75.5 -48 -124.5s-15 -104.833 -15 -167.5v-122
c0 -63.333 4.83301 -119.666 14.5 -168.999s25.5 -90.833 47.5 -124.5s50.833 -59.334 86.5 -77.001s79.5 -26.5 131.5 -26.5z" />
    <glyph glyph-name="sterling" unicode="&#xa3;" horiz-adv-x="1026" 
d="M366 644l7.99609 -274.999c0.666992 -55.333 -3.66602 -105.5 -12.999 -150.5s-23.666 -82.5 -42.999 -112.5h626v-106h-843v106h79c14.667 4.66699 27.167 16.167 37.5 34.5s18.666 40 24.999 65s10.833 52 13.5 81s3.66699 56.5 3 82.5l-8 275h-153v107h150l-7 288
c0 68.667 8.5 130.167 25.5 184.5s40.833 100.166 71.5 137.499s67.334 65.833 110.001 85.5s89.334 29.5 140.001 29.5c52.667 0 99.667 -9.5 141 -28.5s76.333 -45.5 105 -79.5s50.334 -74.833 65.001 -122.5s22 -100.167 22 -157.5h-114
c0 50 -6.16699 92.833 -18.5 128.5s-29 64.667 -50 87s-45.167 38.833 -72.5 49.5s-56.333 16 -87 16c-32.667 0 -62.667 -7.16699 -90 -21.5s-50.833 -35.5 -70.5 -63.5s-35 -62.5 -46 -103.5s-16.5 -88.167 -16.5 -141.5l7 -288h286v-107h-283z" />
    <glyph glyph-name="currency" unicode="&#xa4;" horiz-adv-x="1481" 
d="M1131 133c-52 -48 -111.332 -85.502 -177.999 -112.502s-137.667 -40.5 -213 -40.5s-146.333 13.333 -213 40s-126 64 -178 112l-155 -158l-85 88l158 160c-38.667 53.333 -68.834 112.5 -90.501 177.5s-32.5 134.5 -32.5 208.5c0 76.667 11.5 148.5 34.5 215.5
s55.5 127.167 97.5 180.5l-167 171l85 89l167 -170c52 44 110 78.333 174 103s132.333 37 205 37s141 -12.5 205 -37.5s122 -59.833 174 -104.5l170 173l86 -90l-170 -174c40 -53.333 71.5 -113.166 94.5 -179.499s34.5 -137.5 34.5 -213.5
c0 -73.333 -10.667 -142.166 -32 -206.499s-51 -122.833 -89 -175.5l162 -164l-86 -89zM257.001 607.998c0 -71.333 12.667 -138.333 38 -201s60 -117.167 104 -163.5s95.333 -83 154 -110s121 -40.5 187 -40.5s128.167 13.5 186.5 40.5s109.333 63.667 153 110
s78.167 100.833 103.5 163.5s38 129.667 38 201c0 70.667 -12.667 137.167 -38 199.5s-59.833 116.666 -103.5 162.999s-94.667 82.833 -153 109.5s-120.5 40 -186.5 40s-128.333 -13.333 -187 -40s-110 -63.167 -154 -109.5s-78.667 -100.666 -104 -162.999
s-38 -128.833 -38 -199.5z" />
    <glyph glyph-name="yen" unicode="&#xa5;" horiz-adv-x="1070" 
d="M531 747l344 709h133l-377 -749h301v-91h-345v-202h345v-90h-345v-324h-115v324h-342v90h342v202h-342v91h302l-377 749h132z" />
    <glyph glyph-name="brokenbar" unicode="&#xa6;" horiz-adv-x="444" 
d="M159 -270v772h120v-772h-120zM279 698h-120v758h120v-758z" />
    <glyph glyph-name="section" unicode="&#xa7;" horiz-adv-x="1083" 
d="M964 431c0 -66 -17.1709 -122.167 -51.5039 -168.5s-81.833 -80.833 -142.5 -103.5c50.667 -31.333 89.5 -70.5 116.5 -117.5s40.5 -106.833 40.5 -179.5c0 -56 -9.5 -106.167 -28.5 -150.5s-45.833 -81.833 -80.5 -112.5s-76.334 -54 -125.001 -70s-103 -24 -163 -24
c-52.667 0 -104.5 7.33301 -155.5 22s-96.5 38.667 -136.5 72s-72.333 77.5 -97 132.5s-37 123.167 -37 204.5l111 2c0 -62.667 9.5 -115 28.5 -157s43.667 -75.833 74 -101.5s64.166 -43.834 101.499 -54.501s74.333 -16 111 -16c46 0 86.667 6.33301 122 19
s65 30.167 89 52.5s42.333 48.833 55 79.5s19 64 19 100c0 34.667 -4.66699 65.167 -14 91.5s-25.666 50.5 -48.999 72.5s-54.833 42.667 -94.5 62s-89.5 39 -149.5 59c-61.333 18.667 -116.666 39.167 -165.999 61.5s-91.166 49.166 -125.499 80.499
s-60.833 68.333 -79.5 111s-28 93.667 -28 153c0 66.667 16.333 123.334 49 170.001s78.334 81.334 137.001 104.001c-48 32 -84.833 71 -110.5 117s-38.5 105 -38.5 177c0 54 9.5 103 28.5 147s45.833 81.5 80.5 112.5s76.5 55 125.5 72s103.833 25.5 164.5 25.5
c62 0 117.833 -9.5 167.5 -28.5s91.667 -46.667 126 -83s60.666 -81.333 78.999 -135s27.5 -115.167 27.5 -184.5h-111c0 44.667 -6.16699 87 -18.5 127s-30.833 74.667 -55.5 104s-55 52.666 -91 69.999s-77.333 26 -124 26c-49.333 0 -92.166 -6.66699 -128.499 -20
s-66.166 -31.333 -89.499 -54s-40.666 -49.167 -51.999 -79.5s-17 -62.5 -17 -96.5c0 -37.333 4.5 -69.666 13.5 -96.999s25 -52 48 -74s54.5 -42.5 94.5 -61.5s91 -39.167 153 -60.5c62.667 -19.333 118.667 -39.833 168 -61.5s91 -47.5 125 -77.5
s59.833 -65.833 77.5 -107.5s26.5 -92.167 26.5 -151.5zM521.996 727c-45.333 13.333 -85.6689 27.666 -121.002 42.999c-31.333 -5.33301 -58.333 -14.333 -81 -27s-41.334 -28.5 -56.001 -47.5s-25.667 -40.667 -33 -65s-11 -50.166 -11 -77.499
c0 -38.667 4.83301 -71.834 14.5 -99.501s26.834 -52.5 51.501 -74.5s58.334 -42.833 101.001 -62.5s97 -40.834 163 -63.501c19.333 -6 37.666 -12.167 54.999 -18.5l51 -19.5c31.333 4.66699 59.333 13.5 84 26.5s45.334 28.833 62.001 47.5s29.334 39.834 38.001 63.501
s13 48.834 13 75.501c0 36 -5.33301 67.667 -16 95s-28.834 52.5 -54.501 75.5s-59.667 44.667 -102 65s-95.166 41.5 -158.499 63.5z" />
    <glyph glyph-name="dieresis" unicode="&#xa8;" horiz-adv-x="881" 
d="M143 1395c0 23.333 7.16699 42.833 21.5 58.5s34.5 23.5 60.5 23.5c25.333 0 45.5 -7.83301 60.5 -23.5s22.5 -35.167 22.5 -58.5c0 -22.667 -7.5 -41.667 -22.5 -57s-35.167 -23 -60.5 -23c-26 0 -46.167 7.66699 -60.5 23s-21.5 34.333 -21.5 57zM580 1394
c0 23.333 7.33301 42.833 22 58.5s34.667 23.5 60 23.5c26 0 46.333 -7.83301 61 -23.5s22 -35.167 22 -58.5c0 -22.667 -7.33301 -41.667 -22 -57s-35 -23 -61 -23c-25.333 0 -45.333 7.66699 -60 23s-22 34.333 -22 57z" />
    <glyph glyph-name="copyright" unicode="&#xa9;" horiz-adv-x="1637" 
d="M1121 606c0 -52.667 -7.33398 -98.666 -22.001 -137.999s-35.667 -72 -63 -98s-60.333 -45.5 -99 -58.5s-82 -19.5 -130 -19.5c-50.667 0 -96.5 9.33301 -137.5 28s-76 45 -105 79s-51.333 74.833 -67 122.5s-23.5 100.167 -23.5 157.5v98
c0 57.333 7.83301 109.666 23.5 156.999s38 88 67 122s64 60.5 105 79.5s86.833 28.5 137.5 28.5c48 0 91.333 -6.5 130 -19.5s71.834 -32.5 99.501 -58.5s48.834 -58.667 63.501 -98s22 -85 22 -137h-99c0 76.667 -18.333 132.667 -55 168s-90.334 53 -161.001 53
c-38 0 -71.5 -7.5 -100.5 -22.5s-53.333 -35.667 -73 -62s-34.667 -57.333 -45 -93s-15.5 -74.5 -15.5 -116.5v-99c0 -42 5.16699 -81 15.5 -117s25.333 -67.167 45 -93.5s44 -46.833 73 -61.5s62.5 -22 100.5 -22c70 0 123.333 17.333 160 52s55 91 55 169h99z
M191.999 729.001c0 -62 7.50098 -121.499 22.501 -178.499s36 -110 63 -159s59.667 -93.5 98 -133.5s80.666 -74.167 126.999 -102.5s96 -50.333 149 -66s108.167 -23.5 165.5 -23.5c56.667 0 111.5 7.83301 164.5 23.5s102.667 37.667 149 66s88.5 62.5 126.5 102.5
s70.667 84.5 98 133.5s48.5 102 63.5 159s22.5 116.5 22.5 178.5c0 92.667 -16.5 179.167 -49.5 259.5s-77.833 150 -134.5 209s-122.834 105.5 -198.501 139.5s-156.167 51 -241.5 51c-57.333 0 -112.5 -7.66699 -165.5 -23s-102.667 -37.166 -149 -65.499
s-88.666 -62.333 -126.999 -102s-71 -83.834 -98 -132.501s-48 -101.334 -63 -158.001s-22.5 -116 -22.5 -178zM107 729.002c0 70.667 8.5 138.167 25.5 202.5s40.833 124.166 71.5 179.499s67.667 105.5 111 150.5s91.333 83.333 144 115s109.167 56.167 169.5 73.5
s123.166 26 188.499 26s128.166 -8.66699 188.499 -26s116.666 -41.833 168.999 -73.5s100.166 -70 143.499 -115s80.333 -95.167 111 -150.5s54.5 -115.166 71.5 -179.499s25.5 -131.833 25.5 -202.5s-8.5 -138.167 -25.5 -202.5s-40.833 -124.333 -71.5 -180
s-67.667 -106 -111 -151s-91.166 -83.667 -143.499 -116s-108.666 -57.166 -168.999 -74.499s-123.166 -26 -188.499 -26s-128.166 8.66699 -188.499 26s-116.833 42.166 -169.5 74.499s-100.667 71 -144 116s-80.333 95.333 -111 151s-54.5 115.667 -71.5 180
s-25.5 131.833 -25.5 202.5z" />
    <glyph glyph-name="ordfeminine" unicode="&#xaa;" horiz-adv-x="802" 
d="M560 705c-3.33301 14 -6.49902 28.665 -9.49902 43.998s-5.5 31 -7.5 47c-18 -28 -42.5 -52.5 -73.5 -73.5s-67.833 -31.5 -110.5 -31.5c-67.333 0 -119 19.833 -155 59.5s-54 92.5 -54 158.5c0 73.333 23.333 130.166 70 170.499s116 60.5 208 60.5h112v61
c0 56.667 -10.5 100.334 -31.5 131.001s-53.5 46 -97.5 46c-48 0 -85.833 -11.667 -113.5 -35s-41.5 -59 -41.5 -107l-99 7c0 34 6 65.167 18 93.5s29.167 52.833 51.5 73.5s49.166 36.834 80.499 48.501s66 17.5 104 17.5c34 0 65 -5.83301 93 -17.5s52.167 -29 72.5 -52
s36 -51.667 47 -86s16.5 -74.5 16.5 -120.5v-314c0 -32.667 1.83301 -63.667 5.5 -93s9.16699 -58.666 16.5 -87.999h-102zM379.001 787.998c15.333 0 31.001 2.83301 47.001 8.5s31.167 13 45.5 22s27.333 19.5 39 31.5s21.5 24.333 29.5 37v170h-111
c-59.333 0 -104 -12.5 -134 -37.5s-45 -60.5 -45 -106.5c0 -38 10.167 -68.333 30.5 -91s53.166 -34 98.499 -34z" />
    <glyph glyph-name="guillemotleft" unicode="&#xab;" horiz-adv-x="828" 
d="M232 537l229 -389h-93l-248 380v19l248 379h93zM495 537l229 -389h-93l-248 380v19l248 379h93z" />
    <glyph glyph-name="logicalnot" unicode="&#xac;" horiz-adv-x="981" 
d="M810 385h-112v283h-574v109h686v-392z" />
    <glyph glyph-name="uni00AD" unicode="&#xad;" horiz-adv-x="529" 
d="M463 590h-404v103h404v-103z" />
    <glyph glyph-name="registered" unicode="&#xae;" horiz-adv-x="1642" 
d="M102 729c0 70.667 8.5 138.167 25.5 202.5s40.833 124.166 71.5 179.499s67.667 105.5 111 150.5s91.333 83.333 144 115s109.167 56.167 169.5 73.5s123.166 26 188.499 26s128.166 -8.66699 188.499 -26s116.833 -41.833 169.5 -73.5s100.667 -70 144 -115
s80.333 -95.167 111 -150.5s54.5 -115.166 71.5 -179.499s25.5 -131.833 25.5 -202.5s-8.5 -138.167 -25.5 -202.5s-40.833 -124.333 -71.5 -180s-67.667 -106 -111 -151s-91.333 -83.667 -144 -116s-109.167 -57.166 -169.5 -74.499s-123.166 -26 -188.499 -26
s-128.166 8.66699 -188.499 26s-116.833 42.166 -169.5 74.499s-100.667 71 -144 116s-80.333 95.333 -111 151s-54.5 115.667 -71.5 180s-25.5 131.833 -25.5 202.5zM187 729c0 -62 7.5 -121.5 22.5 -178.5s36.167 -110 63.5 -159s60 -93.5 98 -133.5
s80.167 -74.167 126.5 -102.5s96 -50.333 149 -66s108.167 -23.5 165.5 -23.5s112.5 7.83301 165.5 23.5s102.667 37.667 149 66s88.5 62.5 126.5 102.5s70.5 84.5 97.5 133.5s48 102 63 159s22.5 116.5 22.5 178.5s-7.5 121.333 -22.5 178s-36 109.334 -63 158.001
s-59.5 92.834 -97.5 132.501s-80.167 73.667 -126.5 102s-96 50.166 -149 65.499s-108.167 23 -165.5 23s-112.5 -7.66699 -165.5 -23s-102.667 -37.166 -149 -65.499s-88.5 -62.333 -126.5 -102s-70.667 -83.834 -98 -132.501s-48.5 -101.334 -63.5 -158.001
s-22.5 -116 -22.5 -178zM650 666l0.000976562 -344.998h-98v839h258c98 0 173.333 -20.5 226 -61.5s79 -103.167 79 -186.5c0 -45.333 -12.167 -84.333 -36.5 -117s-58.833 -59.334 -103.5 -80.001c24 -8.66699 44 -19.834 60 -33.501s29 -29.334 39 -47.001
s17.167 -37.167 21.5 -58.5s6.5 -43.666 6.5 -66.999v-45c0 -25.333 1.33301 -49 4 -71s7 -40.667 13 -56v-16h-102c-3.33301 8.66699 -6 19.667 -8 33s-3.5 27 -4.5 41s-1.5 27.333 -1.5 40v30v43c0 55.333 -12.333 95.5 -37 120.5s-67.334 37.5 -128.001 37.5h-188z
M650.001 758.002l181 -0.000976562c24.667 0 48.334 3.33301 71.001 10s42.5 16.334 59.5 29.001s30.5 28.5 40.5 47.5s15 40.833 15 65.5c0 28 -3.5 52 -10.5 72s-18.5 36.5 -34.5 49.5s-37.333 22.5 -64 28.5s-59.334 9 -98.001 9h-160v-311z" />
    <glyph glyph-name="macron" unicode="&#xaf;" horiz-adv-x="784" 
d="M681 1357h-570v99h570v-99z" />
    <glyph glyph-name="macron" unicode="&#x2c9;" horiz-adv-x="784" 
d="M681 1357h-570v99h570v-99z" />
    <glyph glyph-name="degree" unicode="&#xb0;" horiz-adv-x="774" 
d="M143 1226c0 34 6.5 66.167 19.5 96.5s30.667 56.833 53 79.5s48.333 40.667 78 54s61.167 20 94.5 20s64.666 -6.66699 93.999 -20s55 -31.333 77 -54s39.333 -49.167 52 -79.5s19 -62.5 19 -96.5c0 -34.667 -6.33301 -67 -19 -97s-30 -56.167 -52 -78.5
s-47.667 -39.833 -77 -52.5s-60.666 -19 -93.999 -19s-64.833 6.33301 -94.5 19s-55.667 30.167 -78 52.5s-40 48.5 -53 78.5s-19.5 62.333 -19.5 97zM233 1226c0 -22 4 -42.5 12 -61.5s19 -35.5 33 -49.5s30.333 -24.833 49 -32.5s39 -11.5 61 -11.5
s42.333 3.83301 61 11.5s34.667 18.5 48 32.5s23.833 30.5 31.5 49.5s11.5 39.5 11.5 61.5c0 22.667 -3.83301 43.667 -11.5 63s-18.167 36 -31.5 50s-29.333 25 -48 33s-39 12 -61 12s-42.333 -4 -61 -12s-35 -19 -49 -33s-25 -30.667 -33 -50s-12 -40.333 -12 -63z" />
    <glyph glyph-name="plusminus" unicode="&#xb1;" horiz-adv-x="954" 
d="M538 830h325v-103h-325v-438h-101v438h-344v103h344v437h101v-437zM830 0h-701v104h701v-104z" />
    <glyph glyph-name="twosuperior" unicode="&#xb2;" horiz-adv-x="664" 
d="M583 665l-484.001 0.00292969v76l242 283c40.667 47.333 69.667 87.833 87 121.5s26 64.167 26 91.5c0 41.333 -11 74.666 -33 99.999s-54 38 -96 38c-24.667 0 -46.167 -4 -64.5 -12s-33.5 -19.167 -45.5 -33.5s-21 -31.333 -27 -51s-9 -40.834 -9 -63.501h-97
c0 34 5.5 66.167 16.5 96.5s26.833 56.833 47.5 79.5s46 40.667 76 54s63.667 20 101 20c34.667 0 66.167 -5.16699 94.5 -15.5s52.333 -25.333 72 -45s34.834 -43.5 45.501 -71.5s16 -59.667 16 -95c0 -25.333 -4 -50 -12 -74s-19 -47.667 -33 -71
s-30.5 -46.833 -49.5 -70.5s-39.5 -47.834 -61.5 -72.501l-174 -196h362v-89z" />
    <glyph glyph-name="threesuperior" unicode="&#xb3;" horiz-adv-x="664" 
d="M244 1107h66.002c24.667 0 46.334 3.5 65.001 10.5s34.167 16.5 46.5 28.5s21.666 26.167 27.999 42.5s9.5 33.833 9.5 52.5s-2.66699 36.167 -8 52.5s-13.5 30.5 -24.5 42.5s-25 21.5 -42 28.5s-37.167 10.5 -60.5 10.5c-19.333 0 -37.5 -3 -54.5 -9
s-31.667 -14.667 -44 -26s-22 -25 -29 -41s-10.5 -34 -10.5 -54h-97c0 33.333 6.16699 63.5 18.5 90.5s29 50.167 50 69.5s45.667 34.166 74 44.499s58.833 15.5 91.5 15.5c34.667 0 66.334 -4.83301 95.001 -14.5s53.167 -24 73.5 -43s36.166 -42.333 47.499 -70
s17 -59.167 17 -94.5c0 -38 -10.5 -72.667 -31.5 -104s-51.167 -55 -90.5 -71c45.333 -14 79.166 -37 101.499 -69s33.5 -71.667 33.5 -119c0 -36 -6.16699 -68 -18.5 -96s-29.5 -51.667 -51.5 -71s-48 -34 -78 -44s-62.333 -15 -97 -15c-30.667 0 -60.667 4.5 -90 13.5
s-55.5 23 -78.5 42s-41.667 42.833 -56 71.5s-21.5 63 -21.5 103h98c0 -20.667 3.66699 -39.667 11 -57s17.666 -32.333 30.999 -45s29.333 -22.5 48 -29.5s39 -10.5 61 -10.5c46.667 0 82.667 12.667 108 38s38 60 38 104c0 50.667 -14.833 86.834 -44.5 108.501
s-69.167 32.5 -118.5 32.5h-66v82z" />
    <glyph glyph-name="acute" unicode="&#xb4;" horiz-adv-x="576" 
d="M315 1525h145l-231 -280h-105z" />
    <glyph glyph-name="mu" unicode="&#xb5;" horiz-adv-x="1001" 
d="M265 1082l0.000976562 -632.003c0 -74.667 5.83301 -135.667 17.5 -183s27.167 -84.666 46.5 -111.999s42 -46.166 68 -56.499s53.333 -15.5 82 -15.5c38 0 71.333 5.16699 100 15.5s53.167 24.833 73.5 43.5s37.166 41.334 50.499 68.001s24 56.334 32 89.001v783h112
v-1082h-97l-9 148c-25.333 -52.667 -59 -93.834 -101 -123.501s-93.333 -44.5 -154 -44.5c-46 0 -87.833 9.16699 -125.5 27.5s-69.5 49.5 -95.5 93.5v-517h-110v1498h110z" />
    <glyph glyph-name="paragraph" unicode="&#xb6;" horiz-adv-x="862" 
d="M586 0v520h-86c-67.333 0 -126.666 11.667 -177.999 35s-94.333 55.833 -129 97.5s-61 91.167 -79 148.5s-27 119.666 -27 186.999c0 66.667 9 128.667 27 186s44.333 106.833 79 148.5s77.667 74.334 129 98.001s110.666 35.5 177.999 35.5h198v-1456h-112z" />
    <glyph glyph-name="periodcentered" unicode="&#xb7;" horiz-adv-x="467" 
d="M154 717c0 24 6.66699 44.167 20 60.5s32 24.5 56 24.5s42.833 -8.16699 56.5 -24.5s20.5 -36.5 20.5 -60.5c0 -23.333 -6.83301 -42.833 -20.5 -58.5s-32.5 -23.5 -56.5 -23.5s-42.667 7.83301 -56 23.5s-20 35.167 -20 58.5z" />
    <glyph glyph-name="cedilla" unicode="&#xb8;" horiz-adv-x="460" 
d="M233 0l-10 -64c16.667 -2.66699 33.167 -7.5 49.5 -14.5s31 -17.167 44 -30.5s23.333 -30.166 31 -50.499s11.5 -45.5 11.5 -75.5s-5.5 -57.167 -16.5 -81.5s-27 -45.333 -48 -63s-46.833 -31.334 -77.5 -41.001s-66 -14.5 -106 -14.5l-6 79
c20.667 0 40.834 2.33301 60.501 7s37.167 11.667 52.5 21s27.666 21.5 36.999 36.5s14 33.167 14 54.5c0 19.333 -3 35.5 -9 48.5s-15 23.5 -27 31.5s-27.167 14.167 -45.5 18.5s-39.833 7.83301 -64.5 10.5l25 128h85z" />
    <glyph glyph-name="onesuperior" unicode="&#xb9;" horiz-adv-x="610" 
d="M415 670h-98v660l-192 -69v92l277 107h13v-790z" />
    <glyph glyph-name="ordmasculine" unicode="&#xba;" horiz-adv-x="816" 
d="M131 1132c0 50 6.33301 96 19 138s31 78.333 55 109s53 54.5 87 71.5s72 25.5 114 25.5c42.667 0 81 -8.5 115 -25.5s62.833 -40.833 86.5 -71.5s41.834 -67 54.501 -109s19 -88 19 -138v-99c0 -50 -6.33301 -96 -19 -138s-30.834 -78.167 -54.501 -108.5
s-52.5 -54 -86.5 -71s-72 -25.5 -114 -25.5c-42.667 0 -81 8.5 -115 25.5s-63 40.667 -87 71s-42.333 66.5 -55 108.5s-19 88 -19 138v99zM231 1033c0 -34.667 3.49805 -67 10.498 -97s17.667 -56 32 -78s32.666 -39.333 54.999 -52s48.5 -19 78.5 -19
c29.333 0 54.833 6.33301 76.5 19s39.834 30 54.501 52s25.5 48 32.5 78s10.5 62.333 10.5 97v99c0 34 -3.66699 66 -11 96s-18.166 56 -32.499 78s-32.5 39.5 -54.5 52.5s-47.667 19.5 -77 19.5s-55 -6.5 -77 -19.5s-40.167 -30.5 -54.5 -52.5s-25.166 -48 -32.499 -78
s-11 -62 -11 -96v-99z" />
    <glyph glyph-name="guillemotright" unicode="&#xbb;" horiz-adv-x="824" 
d="M209 944l248 -384v-19l-248 -380h-95l229 389l-229 394h95zM482 944l248 -384v-19l-248 -380h-95l229 389l-229 394h95z" />
    <glyph glyph-name="onequarter" unicode="&#xbc;" horiz-adv-x="1289" 
d="M402 664h-98v660l-192 -69v92l277 107h13v-790zM372 128l-66 49l597 1138l67 -49zM1096 276h104v-90h-104v-186h-96v186h-332l-3 68l330 535h101v-513zM767 276h233v376l-24 -45z" />
    <glyph glyph-name="onehalf" unicode="&#xbd;" horiz-adv-x="1347" 
d="M335 128l-66 49l597 1138l67 -49zM391 664h-98v660l-192 -69v92l277 107h13v-790zM1233 0l-484.001 0.00292969v76l242 283c40.667 47.333 69.667 87.833 87 121.5s26 64.167 26 91.5c0 41.333 -11 74.666 -33 99.999s-54 38 -96 38c-24.667 0 -46.167 -4 -64.5 -12
s-33.5 -19.167 -45.5 -33.5s-21 -31.333 -27 -51s-9 -40.834 -9 -63.501h-97c0 34 5.5 66.167 16.5 96.5s26.833 56.833 47.5 79.5s46 40.667 76 54s63.667 20 101 20c34.667 0 66.167 -5.16699 94.5 -15.5s52.333 -25.333 72 -45s34.834 -43.5 45.501 -71.5
s16 -59.667 16 -95c0 -25.333 -4 -50 -12 -74s-19 -47.667 -33 -71s-30.5 -46.833 -49.5 -70.5s-39.5 -47.834 -61.5 -72.501l-174 -196h362v-89z" />
    <glyph glyph-name="threequarters" unicode="&#xbe;" horiz-adv-x="1376" 
d="M490 128l-66 49l597 1138l67 -49zM1188 276h104v-90h-104v-186h-96v186h-332l-3 68l330 535h101v-513zM859 276h233v376l-24 -45zM284 1107h66.002c24.667 0 46.334 3.5 65.001 10.5s34.167 16.5 46.5 28.5s21.666 26.167 27.999 42.5s9.5 33.833 9.5 52.5
s-2.66699 36.167 -8 52.5s-13.5 30.5 -24.5 42.5s-25 21.5 -42 28.5s-37.167 10.5 -60.5 10.5c-19.333 0 -37.5 -3 -54.5 -9s-31.667 -14.667 -44 -26s-22 -25 -29 -41s-10.5 -34 -10.5 -54h-97c0 33.333 6.16699 63.5 18.5 90.5s29 50.167 50 69.5s45.667 34.166 74 44.499
s58.833 15.5 91.5 15.5c34.667 0 66.334 -4.83301 95.001 -14.5s53.167 -24 73.5 -43s36.166 -42.333 47.499 -70s17 -59.167 17 -94.5c0 -38 -10.5 -72.667 -31.5 -104s-51.167 -55 -90.5 -71c45.333 -14 79.166 -37 101.499 -69s33.5 -71.667 33.5 -119
c0 -36 -6.16699 -68 -18.5 -96s-29.5 -51.667 -51.5 -71s-48 -34 -78 -44s-62.333 -15 -97 -15c-30.667 0 -60.667 4.5 -90 13.5s-55.5 23 -78.5 42s-41.667 42.833 -56 71.5s-21.5 63 -21.5 103h98c0 -20.667 3.66699 -39.667 11 -57s17.666 -32.333 30.999 -45
s29.333 -22.5 48 -29.5s39 -10.5 61 -10.5c46.667 0 82.667 12.667 108 38s38 60 38 104c0 50.667 -14.833 86.834 -44.5 108.501s-69.167 32.5 -118.5 32.5h-66v82z" />
    <glyph glyph-name="questiondown" unicode="&#xbf;" horiz-adv-x="834" 
d="M489 687c-0.666992 -42.667 -2.8291 -78.668 -6.49609 -108.001s-10.334 -56 -20.001 -80s-22.5 -47.5 -38.5 -70.5s-36.667 -49.5 -62 -79.5l-61 -75.5c-19.333 -24.333 -36.5 -50.166 -51.5 -77.499s-26.833 -57.5 -35.5 -90.5s-13 -70.833 -13 -113.5
c0 -85.333 18.333 -151 55 -197s89.667 -69 159 -69c30.667 0 59.167 5.83301 85.5 17.5s49 28.334 68 50.001s34 48.167 45 79.5s16.5 67 16.5 107h111c-0.666992 -58.667 -9.33398 -110.667 -26.001 -156s-39.667 -83.333 -69 -114s-63.666 -53.834 -102.999 -69.501
s-82 -23.5 -128 -23.5c-51.333 0 -97 8.66699 -137 26s-73.833 42.166 -101.5 74.499s-48.834 71.5 -63.501 117.5s-22 97.667 -22 155c0 48 5.66699 92.333 17 133s26.5 79 45.5 115s41 70.333 66 103s51.5 64.667 79.5 96c17.333 18 31.166 36.167 41.499 54.5
s18.166 37.5 23.499 57.5s8.83301 41.333 10.5 64s2.5 47.334 2.5 74.001h112zM501.005 1021c0 -23.333 -6.33301 -42.833 -19 -58.5s-30.667 -23.5 -54 -23.5s-41.5 7.83301 -54.5 23.5s-19.5 35.167 -19.5 58.5c0 22.667 6.5 41.667 19.5 57s31.167 23 54.5 23
s41.333 -7.66699 54 -23s19 -34.333 19 -57z" />
    <glyph glyph-name="Agrave" unicode="&#xc0;" 
d="M834 407h-546l-124 -407h-119l464 1456h106l464 -1456h-119zM321 514h480l-240 781zM638 1560h-109l-226 280h144z" />
    <glyph glyph-name="Aacute" unicode="&#xc1;" 
d="M834 407h-546l-124 -407h-119l464 1456h106l464 -1456h-119zM321 514h480l-240 781zM684 1840h145l-231 -280h-105z" />
    <glyph glyph-name="Acircumflex" unicode="&#xc2;" 
d="M834 407h-546l-124 -407h-119l464 1456h106l464 -1456h-119zM321 514h480l-240 781zM802 1583v-10h-100l-138 182l-138 -182h-98v12l201 256h69z" />
    <glyph glyph-name="Atilde" unicode="&#xc3;" 
d="M834 407h-546l-124 -407h-119l464 1456h106l464 -1456h-119zM321 514h480l-240 781zM852 1810c0 -32 -4.33301 -61.332 -13 -87.999s-20.5 -49.334 -35.5 -68.001s-32.5 -33.167 -52.5 -43.5s-41.667 -15.5 -65 -15.5c-29.333 0 -53.5 5.66699 -72.5 17
s-36.333 24 -52 38s-31.667 26.667 -48 38s-36.5 17 -60.5 17c-25.333 0 -46.666 -10.5 -63.999 -31.5s-26 -49.833 -26 -86.5l-81 3c0 32 4.16699 61.167 12.5 87.5s20 48.833 35 67.5s32.667 33.167 53 43.5s42.166 15.5 65.499 15.5c26 0 48.5 -5.66699 67.5 -17
s37 -23.833 54 -37.5s34 -26.167 51 -37.5s37.167 -17 60.5 -17c25.333 0 46.833 11 64.5 33s26.5 51.333 26.5 88z" />
    <glyph glyph-name="Adieresis" unicode="&#xc4;" 
d="M834 407h-546l-124 -407h-119l464 1456h106l464 -1456h-119zM321 514h480l-240 781zM271 1710c0 23.333 7.16699 42.833 21.5 58.5s34.5 23.5 60.5 23.5c25.333 0 45.5 -7.83301 60.5 -23.5s22.5 -35.167 22.5 -58.5c0 -22.667 -7.5 -41.667 -22.5 -57
s-35.167 -23 -60.5 -23c-26 0 -46.167 7.66699 -60.5 23s-21.5 34.333 -21.5 57zM708 1709c0 23.333 7.33301 42.833 22 58.5s34.667 23.5 60 23.5c26 0 46.333 -7.83301 61 -23.5s22 -35.167 22 -58.5c0 -22.667 -7.33301 -41.667 -22 -57s-35 -23 -61 -23
c-25.333 0 -45.333 7.66699 -60 23s-22 34.333 -22 57z" />
    <glyph glyph-name="Aring" unicode="&#xc5;" 
d="M834 407h-546l-124 -407h-119l464 1456h106l464 -1456h-119zM321 514h480l-240 781zM372 1716c0 26.667 5 51.667 15 75s23.667 43.666 41 60.999s37.666 31 60.999 41s48.666 15 75.999 15c26.667 0 51.834 -5 75.501 -15s44.167 -23.667 61.5 -41
s31 -37.666 41 -60.999s15 -48.333 15 -75s-5 -51.5 -15 -74.5s-23.667 -42.833 -41 -59.5s-37.833 -29.667 -61.5 -39s-48.834 -14 -75.501 -14c-27.333 0 -52.666 4.66699 -75.999 14s-43.666 22.333 -60.999 39s-31 36.5 -41 59.5s-15 47.833 -15 74.5zM449 1716
c0 -16 2.83301 -31 8.5 -45s13.667 -26.167 24 -36.5s22.5 -18.5 36.5 -24.5s29.667 -9 47 -9c16.667 0 32.167 3 46.5 9s26.833 14.167 37.5 24.5s18.834 22.5 24.501 36.5s8.5 29 8.5 45c0 16.667 -2.83301 32.334 -8.5 47.001s-13.834 27.334 -24.501 38.001
s-23.167 19 -37.5 25s-29.833 9 -46.5 9c-17.333 0 -33 -3 -47 -9s-26.167 -14.333 -36.5 -25s-18.333 -23.334 -24 -38.001s-8.5 -30.334 -8.5 -47.001z" />
    <glyph glyph-name="AE" unicode="&#xc6;" horiz-adv-x="1614" 
d="M1560 0h-697l-14 388h-493l-191 -388h-136l740 1456h740v-104h-583l19 -542h495v-104h-491l21 -603h590v-103zM412 503h433l-29 821z" />
    <glyph glyph-name="Ccedilla" unicode="&#xc7;" horiz-adv-x="1158" 
d="M1045 454c-10.667 -163.333 -54.668 -283.165 -132.001 -359.498s-184.333 -114.5 -321 -114.5c-70 0 -133.167 13.667 -189.5 41s-104.166 66.666 -143.499 117.999s-69.666 113.833 -90.999 187.5s-32 156.834 -32 249.501v313c0 91.333 10.667 173.333 32 246
s52 134.167 92 184.5s88.667 89 146 116s122.333 40.5 195 40.5c66 0 125.167 -9.33301 177.5 -28s97.5 -47.334 135.5 -86.001s68 -88 90 -148s35.667 -131.333 41 -214h-116c-5.33301 66.667 -15.666 123.334 -30.999 170.001s-36.5 84.667 -63.5 114
s-59.833 50.666 -98.5 63.999s-83.667 20 -135 20c-56.667 0 -106.667 -10.833 -150 -32.5s-79.833 -52.834 -109.5 -93.501s-52 -90.667 -67 -150s-22.5 -126.333 -22.5 -201v-315c0 -74 7.16699 -141.167 21.5 -201.5s35.666 -111.833 63.999 -154.5
s63.666 -75.667 105.999 -99s91.833 -35 148.5 -35c53.333 0 100 6.16699 140 18.5s73.667 32.833 101 61.5s48.833 66.5 64.5 113.5s26.167 105.167 31.5 174.5h116zM635.999 -8.99902l-10 -64c16.667 -2.66699 33.167 -7.5 49.5 -14.5s31 -17.167 44 -30.5
s23.333 -30.166 31 -50.499s11.5 -45.5 11.5 -75.5s-5.5 -57.167 -16.5 -81.5s-27 -45.333 -48 -63s-46.833 -31.334 -77.5 -41.001s-66 -14.5 -106 -14.5l-6 79c20.667 0 40.834 2.33301 60.501 7s37.167 11.667 52.5 21s27.666 21.5 36.999 36.5s14 33.167 14 54.5
c0 19.333 -3 35.5 -9 48.5s-15 23.5 -27 31.5s-27.167 14.167 -45.5 18.5s-39.833 7.83301 -64.5 10.5l25 128h85z" />
    <glyph glyph-name="Egrave" unicode="&#xc8;" horiz-adv-x="1018" 
d="M851 697h-565v-591h650v-106h-764v1456h759v-108h-645v-545h565v-106zM614 1566h-109l-226 280h144z" />
    <glyph glyph-name="Eacute" unicode="&#xc9;" horiz-adv-x="1018" 
d="M851 697h-565v-591h650v-106h-764v1456h759v-108h-645v-545h565v-106zM660 1846h145l-231 -280h-105z" />
    <glyph glyph-name="Ecircumflex" unicode="&#xca;" horiz-adv-x="1018" 
d="M851 697h-565v-591h650v-106h-764v1456h759v-108h-645v-545h565v-106zM778 1589v-10h-100l-138 182l-138 -182h-98v12l201 256h69z" />
    <glyph glyph-name="Edieresis" unicode="&#xcb;" horiz-adv-x="1018" 
d="M851 697h-565v-591h650v-106h-764v1456h759v-108h-645v-545h565v-106zM247 1716c0 23.333 7.16699 42.833 21.5 58.5s34.5 23.5 60.5 23.5c25.333 0 45.5 -7.83301 60.5 -23.5s22.5 -35.167 22.5 -58.5c0 -22.667 -7.5 -41.667 -22.5 -57s-35.167 -23 -60.5 -23
c-26 0 -46.167 7.66699 -60.5 23s-21.5 34.333 -21.5 57zM684 1715c0 23.333 7.33301 42.833 22 58.5s34.667 23.5 60 23.5c26 0 46.333 -7.83301 61 -23.5s22 -35.167 22 -58.5c0 -22.667 -7.33301 -41.667 -22 -57s-35 -23 -61 -23c-25.333 0 -45.333 7.66699 -60 23
s-22 34.333 -22 57z" />
    <glyph glyph-name="Igrave" unicode="&#xcc;" horiz-adv-x="500" 
d="M307 0h-114v1456h114v-1456zM325 1566h-109l-226 280h144z" />
    <glyph glyph-name="Iacute" unicode="&#xcd;" horiz-adv-x="500" 
d="M307 0h-114v1456h114v-1456zM370 1846h145l-231 -280h-105z" />
    <glyph glyph-name="Icircumflex" unicode="&#xce;" horiz-adv-x="500" 
d="M307 0h-114v1456h114v-1456zM489 1589v-10h-100l-138 182l-138 -182h-98v12l201 256h69z" />
    <glyph glyph-name="Idieresis" unicode="&#xcf;" horiz-adv-x="500" 
d="M307 0h-114v1456h114v-1456zM-42 1716c0 23.333 7.16699 42.833 21.5 58.5s34.5 23.5 60.5 23.5c25.333 0 45.5 -7.83301 60.5 -23.5s22.5 -35.167 22.5 -58.5c0 -22.667 -7.5 -41.667 -22.5 -57s-35.167 -23 -60.5 -23c-26 0 -46.167 7.66699 -60.5 23
s-21.5 34.333 -21.5 57zM395 1715c0 23.333 7.33301 42.833 22 58.5s34.667 23.5 60 23.5c26 0 46.333 -7.83301 61 -23.5s22 -35.167 22 -58.5c0 -22.667 -7.33301 -41.667 -22 -57s-35 -23 -61 -23c-25.333 0 -45.333 7.66699 -60 23s-22 34.333 -22 57z" />
    <glyph glyph-name="Eth" unicode="&#xd0;" horiz-adv-x="1197" 
d="M202 0v688.999h-128v104h128v663h343c76.667 0 146.834 -12.667 210.501 -38s118.167 -62.666 163.5 -111.999s80.5 -110.333 105.5 -183s37.5 -156 37.5 -250v-291c0 -94 -12.5 -177.333 -37.5 -250s-60.333 -133.5 -106 -182.5s-100.834 -86.167 -165.501 -111.5
s-136.667 -38 -216 -38h-335zM592 688.999h-275.998v-583h221c65.333 0 123.5 10.333 174.5 31s94.167 51.167 129.5 91.5s62.166 90.166 80.499 149.499s27.5 127.333 27.5 204v294c0 78 -9.33301 146.333 -28 205s-45.334 107.834 -80.001 147.501s-77 69.5 -127 89.5
s-106.333 30 -169 30h-229v-555h276v-104z" />
    <glyph glyph-name="Ntilde" unicode="&#xd1;" horiz-adv-x="1262" 
d="M1088 0h-114l-687 1240v-1240h-115v1456h115l688 -1242v1242h113v-1456zM918 1810c0 -32 -4.33301 -61.332 -13 -87.999s-20.5 -49.334 -35.5 -68.001s-32.5 -33.167 -52.5 -43.5s-41.667 -15.5 -65 -15.5c-29.333 0 -53.5 5.66699 -72.5 17s-36.333 24 -52 38
s-31.667 26.667 -48 38s-36.5 17 -60.5 17c-25.333 0 -46.666 -10.5 -63.999 -31.5s-26 -49.833 -26 -86.5l-81 3c0 32 4.16699 61.167 12.5 87.5s20 48.833 35 67.5s32.667 33.167 53 43.5s42.166 15.5 65.499 15.5c26 0 48.5 -5.66699 67.5 -17s37 -23.833 54 -37.5
s34 -26.167 51 -37.5s37.167 -17 60.5 -17c25.333 0 46.833 11 64.5 33s26.5 51.333 26.5 88z" />
    <glyph glyph-name="Ograve" unicode="&#xd2;" horiz-adv-x="1208" 
d="M1075 570c0 -96 -10.833 -180.833 -32.5 -254.5s-52.834 -135.334 -93.501 -185.001s-90 -87.167 -148 -112.5s-123.333 -38 -196 -38c-72 0 -137 12.667 -195 38s-107.667 62.833 -149 112.5s-73.166 111.334 -95.499 185.001s-33.5 158.5 -33.5 254.5v314
c0 96 11 180.833 33 254.5s53.5 135.5 94.5 185.5s90.5 87.833 148.5 113.5s123 38.5 195 38.5c72.667 0 138.167 -12.833 196.5 -38.5s107.833 -63.5 148.5 -113.5s72 -111.833 94 -185.5s33 -158.5 33 -254.5v-314zM960 886c0 159.333 -30.667 279 -92 359
s-149.666 120 -264.999 120c-112.667 0 -200.334 -40 -263.001 -120s-94 -199.667 -94 -359v-316c0 -160 31.667 -280.167 95 -360.5s151.333 -120.5 264 -120.5c116 0 204.167 40 264.5 120s90.5 200.333 90.5 361v316zM677 1571h-109l-226 280h144z" />
    <glyph glyph-name="Oacute" unicode="&#xd3;" horiz-adv-x="1208" 
d="M1075 570c0 -96 -10.833 -180.833 -32.5 -254.5s-52.834 -135.334 -93.501 -185.001s-90 -87.167 -148 -112.5s-123.333 -38 -196 -38c-72 0 -137 12.667 -195 38s-107.667 62.833 -149 112.5s-73.166 111.334 -95.499 185.001s-33.5 158.5 -33.5 254.5v314
c0 96 11 180.833 33 254.5s53.5 135.5 94.5 185.5s90.5 87.833 148.5 113.5s123 38.5 195 38.5c72.667 0 138.167 -12.833 196.5 -38.5s107.833 -63.5 148.5 -113.5s72 -111.833 94 -185.5s33 -158.5 33 -254.5v-314zM960 886c0 159.333 -30.667 279 -92 359
s-149.666 120 -264.999 120c-112.667 0 -200.334 -40 -263.001 -120s-94 -199.667 -94 -359v-316c0 -160 31.667 -280.167 95 -360.5s151.333 -120.5 264 -120.5c116 0 204.167 40 264.5 120s90.5 200.333 90.5 361v316zM723 1851h145l-231 -280h-105z" />
    <glyph glyph-name="Ocircumflex" unicode="&#xd4;" horiz-adv-x="1208" 
d="M1075 570c0 -96 -10.833 -180.833 -32.5 -254.5s-52.834 -135.334 -93.501 -185.001s-90 -87.167 -148 -112.5s-123.333 -38 -196 -38c-72 0 -137 12.667 -195 38s-107.667 62.833 -149 112.5s-73.166 111.334 -95.499 185.001s-33.5 158.5 -33.5 254.5v314
c0 96 11 180.833 33 254.5s53.5 135.5 94.5 185.5s90.5 87.833 148.5 113.5s123 38.5 195 38.5c72.667 0 138.167 -12.833 196.5 -38.5s107.833 -63.5 148.5 -113.5s72 -111.833 94 -185.5s33 -158.5 33 -254.5v-314zM960 886c0 159.333 -30.667 279 -92 359
s-149.666 120 -264.999 120c-112.667 0 -200.334 -40 -263.001 -120s-94 -199.667 -94 -359v-316c0 -160 31.667 -280.167 95 -360.5s151.333 -120.5 264 -120.5c116 0 204.167 40 264.5 120s90.5 200.333 90.5 361v316zM841 1594v-10h-100l-138 182l-138 -182h-98v12
l201 256h69z" />
    <glyph glyph-name="Otilde" unicode="&#xd5;" horiz-adv-x="1208" 
d="M1075 570c0 -96 -10.833 -180.833 -32.5 -254.5s-52.834 -135.334 -93.501 -185.001s-90 -87.167 -148 -112.5s-123.333 -38 -196 -38c-72 0 -137 12.667 -195 38s-107.667 62.833 -149 112.5s-73.166 111.334 -95.499 185.001s-33.5 158.5 -33.5 254.5v314
c0 96 11 180.833 33 254.5s53.5 135.5 94.5 185.5s90.5 87.833 148.5 113.5s123 38.5 195 38.5c72.667 0 138.167 -12.833 196.5 -38.5s107.833 -63.5 148.5 -113.5s72 -111.833 94 -185.5s33 -158.5 33 -254.5v-314zM960 886c0 159.333 -30.667 279 -92 359
s-149.666 120 -264.999 120c-112.667 0 -200.334 -40 -263.001 -120s-94 -199.667 -94 -359v-316c0 -160 31.667 -280.167 95 -360.5s151.333 -120.5 264 -120.5c116 0 204.167 40 264.5 120s90.5 200.333 90.5 361v316zM891 1821c0 -32 -4.33301 -61.332 -13 -87.999
s-20.5 -49.334 -35.5 -68.001s-32.5 -33.167 -52.5 -43.5s-41.667 -15.5 -65 -15.5c-29.333 0 -53.5 5.66699 -72.5 17s-36.333 24 -52 38s-31.667 26.667 -48 38s-36.5 17 -60.5 17c-25.333 0 -46.666 -10.5 -63.999 -31.5s-26 -49.833 -26 -86.5l-81 3
c0 32 4.16699 61.167 12.5 87.5s20 48.833 35 67.5s32.667 33.167 53 43.5s42.166 15.5 65.499 15.5c26 0 48.5 -5.66699 67.5 -17s37 -23.833 54 -37.5s34 -26.167 51 -37.5s37.167 -17 60.5 -17c25.333 0 46.833 11 64.5 33s26.5 51.333 26.5 88z" />
    <glyph glyph-name="Odieresis" unicode="&#xd6;" horiz-adv-x="1208" 
d="M1075 570c0 -96 -10.833 -180.833 -32.5 -254.5s-52.834 -135.334 -93.501 -185.001s-90 -87.167 -148 -112.5s-123.333 -38 -196 -38c-72 0 -137 12.667 -195 38s-107.667 62.833 -149 112.5s-73.166 111.334 -95.499 185.001s-33.5 158.5 -33.5 254.5v314
c0 96 11 180.833 33 254.5s53.5 135.5 94.5 185.5s90.5 87.833 148.5 113.5s123 38.5 195 38.5c72.667 0 138.167 -12.833 196.5 -38.5s107.833 -63.5 148.5 -113.5s72 -111.833 94 -185.5s33 -158.5 33 -254.5v-314zM960 886c0 159.333 -30.667 279 -92 359
s-149.666 120 -264.999 120c-112.667 0 -200.334 -40 -263.001 -120s-94 -199.667 -94 -359v-316c0 -160 31.667 -280.167 95 -360.5s151.333 -120.5 264 -120.5c116 0 204.167 40 264.5 120s90.5 200.333 90.5 361v316zM310 1721c0 23.333 7.16699 42.833 21.5 58.5
s34.5 23.5 60.5 23.5c25.333 0 45.5 -7.83301 60.5 -23.5s22.5 -35.167 22.5 -58.5c0 -22.667 -7.5 -41.667 -22.5 -57s-35.167 -23 -60.5 -23c-26 0 -46.167 7.66699 -60.5 23s-21.5 34.333 -21.5 57zM747 1720c0 23.333 7.33301 42.833 22 58.5s34.667 23.5 60 23.5
c26 0 46.333 -7.83301 61 -23.5s22 -35.167 22 -58.5c0 -22.667 -7.33301 -41.667 -22 -57s-35 -23 -61 -23c-25.333 0 -45.333 7.66699 -60 23s-22 34.333 -22 57z" />
    <glyph glyph-name="multiply" unicode="&#xd7;" horiz-adv-x="944" 
d="M97 185l299 363l-288 350l73 82l285 -347l286 347l72 -82l-288 -350l299 -363l-73 -81l-296 359l-296 -359z" />
    <glyph glyph-name="Oslash" unicode="&#xd8;" horiz-adv-x="1208" 
d="M1075 570c0 -96 -10.8311 -180.833 -32.498 -254.5s-52.834 -135.334 -93.501 -185.001s-90 -87.167 -148 -112.5s-123.333 -38 -196 -38c-106.667 0 -197.334 27.333 -272.001 82l-77 -146h-93l107 203c-44 50 -78 112.5 -102 187.5s-36 162.833 -36 263.5v314
c0 96 11 180.833 33 254.5s53.5 135.5 94.5 185.5s90.5 87.833 148.5 113.5s123 38.5 195 38.5c65.333 0 124.833 -10.333 178.5 -31s100.5 -51.334 140.5 -92.001l81 153h94l-119 -224c32 -49.333 56.167 -107.166 72.5 -173.499s24.5 -141.166 24.5 -224.499v-314z
M246.002 570c0 -147.333 27.335 -261.333 82.002 -342l538 1019c-60.667 78.667 -148.334 118 -263.001 118c-112.667 0 -200.334 -40 -263.001 -120s-94 -199.667 -94 -359v-316zM960.004 886c0 56 -3.83203 106.833 -11.499 152.5s-18.834 86.5 -33.501 122.5l-529 -999
c57.333 -48.667 130.333 -73 219 -73c116 0 204.167 40 264.5 120s90.5 200.333 90.5 361v316z" />
    <glyph glyph-name="Ugrave" unicode="&#xd9;" horiz-adv-x="1168" 
d="M1018 1456l-0.00195312 -1027c0 -82 -11.5 -151.5 -34.5 -208.5s-54.167 -103.333 -93.5 -139s-85.166 -61.5 -137.499 -77.5s-108.166 -24 -167.499 -24c-61.333 0 -118.333 8 -171 24s-98.5 41.833 -137.5 77.5s-69.5 82 -91.5 139s-33 126.5 -33 208.5v1027h114v-1027
c0 -63.333 7.83301 -116.833 23.5 -160.5s37.667 -79 66 -106s62 -46.5 101 -58.5s81.833 -18 128.5 -18s89.5 6 128.5 18s72.5 31.5 100.5 58.5s49.833 62.333 65.5 106s23.5 97.167 23.5 160.5v1027h115zM663.998 1560h-109l-226 280h144z" />
    <glyph glyph-name="Uacute" unicode="&#xda;" horiz-adv-x="1168" 
d="M1018 1456l-0.00195312 -1027c0 -82 -11.5 -151.5 -34.5 -208.5s-54.167 -103.333 -93.5 -139s-85.166 -61.5 -137.499 -77.5s-108.166 -24 -167.499 -24c-61.333 0 -118.333 8 -171 24s-98.5 41.833 -137.5 77.5s-69.5 82 -91.5 139s-33 126.5 -33 208.5v1027h114v-1027
c0 -63.333 7.83301 -116.833 23.5 -160.5s37.667 -79 66 -106s62 -46.5 101 -58.5s81.833 -18 128.5 -18s89.5 6 128.5 18s72.5 31.5 100.5 58.5s49.833 62.333 65.5 106s23.5 97.167 23.5 160.5v1027h115zM709.998 1840h145l-231 -280h-105z" />
    <glyph glyph-name="Ucircumflex" unicode="&#xdb;" horiz-adv-x="1168" 
d="M1018 1456l-0.00195312 -1027c0 -82 -11.5 -151.5 -34.5 -208.5s-54.167 -103.333 -93.5 -139s-85.166 -61.5 -137.499 -77.5s-108.166 -24 -167.499 -24c-61.333 0 -118.333 8 -171 24s-98.5 41.833 -137.5 77.5s-69.5 82 -91.5 139s-33 126.5 -33 208.5v1027h114v-1027
c0 -63.333 7.83301 -116.833 23.5 -160.5s37.667 -79 66 -106s62 -46.5 101 -58.5s81.833 -18 128.5 -18s89.5 6 128.5 18s72.5 31.5 100.5 58.5s49.833 62.333 65.5 106s23.5 97.167 23.5 160.5v1027h115zM827.998 1583v-10h-100l-138 182l-138 -182h-98v12l201 256h69z
" />
    <glyph glyph-name="Udieresis" unicode="&#xdc;" horiz-adv-x="1168" 
d="M1018 1456l-0.00195312 -1027c0 -82 -11.5 -151.5 -34.5 -208.5s-54.167 -103.333 -93.5 -139s-85.166 -61.5 -137.499 -77.5s-108.166 -24 -167.499 -24c-61.333 0 -118.333 8 -171 24s-98.5 41.833 -137.5 77.5s-69.5 82 -91.5 139s-33 126.5 -33 208.5v1027h114v-1027
c0 -63.333 7.83301 -116.833 23.5 -160.5s37.667 -79 66 -106s62 -46.5 101 -58.5s81.833 -18 128.5 -18s89.5 6 128.5 18s72.5 31.5 100.5 58.5s49.833 62.333 65.5 106s23.5 97.167 23.5 160.5v1027h115zM296.998 1710c0 23.333 7.16699 42.833 21.5 58.5
s34.5 23.5 60.5 23.5c25.333 0 45.5 -7.83301 60.5 -23.5s22.5 -35.167 22.5 -58.5c0 -22.667 -7.5 -41.667 -22.5 -57s-35.167 -23 -60.5 -23c-26 0 -46.167 7.66699 -60.5 23s-21.5 34.333 -21.5 57zM733.998 1709c0 23.333 7.33301 42.833 22 58.5s34.667 23.5 60 23.5
c26 0 46.333 -7.83301 61 -23.5s22 -35.167 22 -58.5c0 -22.667 -7.33301 -41.667 -22 -57s-35 -23 -61 -23c-25.333 0 -45.333 7.66699 -60 23s-22 34.333 -22 57z" />
    <glyph glyph-name="Yacute" unicode="&#xdd;" horiz-adv-x="1070" 
d="M534 664l363 792h131l-438 -908v-548h-114v548l-437 908h134zM655 1834h145l-231 -280h-105z" />
    <glyph glyph-name="Thorn" unicode="&#xde;" horiz-adv-x="1059" 
d="M282 1456v-303h265c64 0 120.667 -10.5 170 -31.5s90.833 -50 124.5 -87s59.167 -80.833 76.5 -131.5s26 -105.667 26 -165c0 -60 -8.66699 -115.333 -26 -166s-42.833 -94.5 -76.5 -131.5s-75.167 -65.833 -124.5 -86.5s-106 -31 -170 -31h-265v-323h-111v1456h111z
M282 1049v-622.001h265c50.667 0 94.167 9 130.5 27s66 41.667 89 71s39.833 62.5 50.5 99.5s16 74.167 16 111.5c0 38.667 -5.33301 76.834 -16 114.501s-27.5 71.167 -50.5 100.5s-52.667 53 -89 71s-79.833 27 -130.5 27h-265z" />
    <glyph glyph-name="germandbls" unicode="&#xdf;" horiz-adv-x="1051" 
d="M256 0l-111.001 0.00488281v1127c0 68 7.16699 128 21.5 180s34.833 95.5 61.5 130.5s59 61.5 97 79.5s80.667 27 128 27c40.667 0 78.834 -6.66699 114.501 -20s66.834 -33 93.501 -59s47.667 -58.167 63 -96.5s23 -82.5 23 -132.5c0 -34 -2.5 -63.667 -7.5 -89
s-11.5 -48.5 -19.5 -69.5s-16.333 -40.667 -25 -59s-17 -37.166 -25 -56.499s-14.5 -40 -19.5 -62s-7.5 -47.333 -7.5 -76c0 -32.667 7.5 -62 22.5 -88s33.667 -50.833 56 -74.5s46.666 -47.167 72.999 -70.5s50.666 -48.666 72.999 -75.999s41 -57.833 56 -91.5
s22.5 -72.5 22.5 -116.5c0 -54 -8.66699 -101.333 -26 -142s-40.666 -74.834 -69.999 -102.501s-63 -48.334 -101 -62.001s-78 -20.5 -120 -20.5c-24 0 -48.667 2.16699 -74 6.5s-49.666 10.166 -72.999 17.499s-44.666 15.833 -63.999 25.5s-34.333 19.834 -45 30.501
l30 103c10 -9.33301 22.833 -18.666 38.5 -27.999s33 -18 52 -26s39 -14.5 60 -19.5s41.833 -7.5 62.5 -7.5c35.333 0 66.666 6 93.999 18s50.166 28.167 68.499 48.5s32.333 44 42 71s14.5 55.833 14.5 86.5c0 34.667 -7.5 65.667 -22.5 93s-33.667 53.166 -56 77.499
s-46.666 48 -72.999 71s-50.666 48 -72.999 75s-41 56.833 -56 89.5s-22.5 70.667 -22.5 114c0 45.333 5.66699 84.166 17 116.499s23.666 62.666 36.999 90.999s25.666 57.666 36.999 87.999s17 66.166 17 107.499c0 32 -4.83301 61.167 -14.5 87.5
s-22.5 48.666 -38.5 66.999s-34.833 32.5 -56.5 42.5s-44.5 15 -68.5 15c-32 0 -60.667 -6 -86 -18s-47 -30.667 -65 -56s-31.667 -57.833 -41 -97.5s-14 -87.167 -14 -142.5v-1127z" />
    <glyph glyph-name="agrave" unicode="&#xe0;" horiz-adv-x="964" 
d="M720 0c-5.33301 18 -9.66504 40.502 -12.998 67.502s-5.66602 54.5 -6.99902 82.5c-14 -22.667 -30.667 -44.167 -50 -64.5s-41.5 -38.333 -66.5 -54s-52.833 -28.167 -83.5 -37.5s-63.667 -14 -99 -14c-44.667 0 -85.167 6.33301 -121.5 19s-67.5 31.667 -93.5 57
s-46 57 -60 95s-21 82.333 -21 133c0 50 8.66699 96.167 26 138.5s43.166 78.833 77.499 109.5s77.166 54.667 128.499 72s111 26 179 26h183v151c0 77.333 -19.167 132.833 -57.5 166.5s-94.5 50.5 -168.5 50.5c-34.667 0 -66.5 -5.33301 -95.5 -16
s-53.833 -25.5 -74.5 -44.5s-36.667 -41.667 -48 -68s-17 -55.166 -17 -86.499l-111 1c0 42 8.33301 82.167 25 120.5s40.334 72.166 71.001 101.499s67.667 52.666 111 69.999s91.333 26 144 26c48.667 0 93.167 -5.83301 133.5 -17.5s75.166 -30.334 104.499 -56.001
s52.166 -59 68.499 -100s24.5 -90.833 24.5 -149.5v-552c0 -18.667 0.666992 -38 2 -58s3.16602 -39.5 5.49902 -58.5s5.33301 -37 9 -54s7.83398 -31.833 12.501 -44.5v-12h-118zM415.001 87.002c34.667 0 67.167 4.83301 97.5 14.5s57.5 23 81.5 40
s44.833 36.833 62.5 59.5s31.834 47 42.501 73v263h-167c-104.667 0 -183.334 -22 -236.001 -66s-79 -103.333 -79 -178c0 -71.333 17.5 -123.5 52.5 -156.5s83.5 -49.5 145.5 -49.5zM581.001 1245h-109l-226 280h144z" />
    <glyph glyph-name="aacute" unicode="&#xe1;" horiz-adv-x="964" 
d="M720 0c-5.33301 18 -9.66504 40.502 -12.998 67.502s-5.66602 54.5 -6.99902 82.5c-14 -22.667 -30.667 -44.167 -50 -64.5s-41.5 -38.333 -66.5 -54s-52.833 -28.167 -83.5 -37.5s-63.667 -14 -99 -14c-44.667 0 -85.167 6.33301 -121.5 19s-67.5 31.667 -93.5 57
s-46 57 -60 95s-21 82.333 -21 133c0 50 8.66699 96.167 26 138.5s43.166 78.833 77.499 109.5s77.166 54.667 128.499 72s111 26 179 26h183v151c0 77.333 -19.167 132.833 -57.5 166.5s-94.5 50.5 -168.5 50.5c-34.667 0 -66.5 -5.33301 -95.5 -16
s-53.833 -25.5 -74.5 -44.5s-36.667 -41.667 -48 -68s-17 -55.166 -17 -86.499l-111 1c0 42 8.33301 82.167 25 120.5s40.334 72.166 71.001 101.499s67.667 52.666 111 69.999s91.333 26 144 26c48.667 0 93.167 -5.83301 133.5 -17.5s75.166 -30.334 104.499 -56.001
s52.166 -59 68.499 -100s24.5 -90.833 24.5 -149.5v-552c0 -18.667 0.666992 -38 2 -58s3.16602 -39.5 5.49902 -58.5s5.33301 -37 9 -54s7.83398 -31.833 12.501 -44.5v-12h-118zM415.001 87.002c34.667 0 67.167 4.83301 97.5 14.5s57.5 23 81.5 40
s44.833 36.833 62.5 59.5s31.834 47 42.501 73v263h-167c-104.667 0 -183.334 -22 -236.001 -66s-79 -103.333 -79 -178c0 -71.333 17.5 -123.5 52.5 -156.5s83.5 -49.5 145.5 -49.5zM627.001 1525h145l-231 -280h-105z" />
    <glyph glyph-name="acircumflex" unicode="&#xe2;" horiz-adv-x="964" 
d="M720 0c-5.33301 18 -9.66504 40.502 -12.998 67.502s-5.66602 54.5 -6.99902 82.5c-14 -22.667 -30.667 -44.167 -50 -64.5s-41.5 -38.333 -66.5 -54s-52.833 -28.167 -83.5 -37.5s-63.667 -14 -99 -14c-44.667 0 -85.167 6.33301 -121.5 19s-67.5 31.667 -93.5 57
s-46 57 -60 95s-21 82.333 -21 133c0 50 8.66699 96.167 26 138.5s43.166 78.833 77.499 109.5s77.166 54.667 128.499 72s111 26 179 26h183v151c0 77.333 -19.167 132.833 -57.5 166.5s-94.5 50.5 -168.5 50.5c-34.667 0 -66.5 -5.33301 -95.5 -16
s-53.833 -25.5 -74.5 -44.5s-36.667 -41.667 -48 -68s-17 -55.166 -17 -86.499l-111 1c0 42 8.33301 82.167 25 120.5s40.334 72.166 71.001 101.499s67.667 52.666 111 69.999s91.333 26 144 26c48.667 0 93.167 -5.83301 133.5 -17.5s75.166 -30.334 104.499 -56.001
s52.166 -59 68.499 -100s24.5 -90.833 24.5 -149.5v-552c0 -18.667 0.666992 -38 2 -58s3.16602 -39.5 5.49902 -58.5s5.33301 -37 9 -54s7.83398 -31.833 12.501 -44.5v-12h-118zM415.001 87.002c34.667 0 67.167 4.83301 97.5 14.5s57.5 23 81.5 40
s44.833 36.833 62.5 59.5s31.834 47 42.501 73v263h-167c-104.667 0 -183.334 -22 -236.001 -66s-79 -103.333 -79 -178c0 -71.333 17.5 -123.5 52.5 -156.5s83.5 -49.5 145.5 -49.5zM745.001 1268v-10h-100l-138 182l-138 -182h-98v12l201 256h69z" />
    <glyph glyph-name="atilde" unicode="&#xe3;" horiz-adv-x="964" 
d="M720 0c-5.33301 18 -9.66504 40.502 -12.998 67.502s-5.66602 54.5 -6.99902 82.5c-14 -22.667 -30.667 -44.167 -50 -64.5s-41.5 -38.333 -66.5 -54s-52.833 -28.167 -83.5 -37.5s-63.667 -14 -99 -14c-44.667 0 -85.167 6.33301 -121.5 19s-67.5 31.667 -93.5 57
s-46 57 -60 95s-21 82.333 -21 133c0 50 8.66699 96.167 26 138.5s43.166 78.833 77.499 109.5s77.166 54.667 128.499 72s111 26 179 26h183v151c0 77.333 -19.167 132.833 -57.5 166.5s-94.5 50.5 -168.5 50.5c-34.667 0 -66.5 -5.33301 -95.5 -16
s-53.833 -25.5 -74.5 -44.5s-36.667 -41.667 -48 -68s-17 -55.166 -17 -86.499l-111 1c0 42 8.33301 82.167 25 120.5s40.334 72.166 71.001 101.499s67.667 52.666 111 69.999s91.333 26 144 26c48.667 0 93.167 -5.83301 133.5 -17.5s75.166 -30.334 104.499 -56.001
s52.166 -59 68.499 -100s24.5 -90.833 24.5 -149.5v-552c0 -18.667 0.666992 -38 2 -58s3.16602 -39.5 5.49902 -58.5s5.33301 -37 9 -54s7.83398 -31.833 12.501 -44.5v-12h-118zM415.001 87.002c34.667 0 67.167 4.83301 97.5 14.5s57.5 23 81.5 40
s44.833 36.833 62.5 59.5s31.834 47 42.501 73v263h-167c-104.667 0 -183.334 -22 -236.001 -66s-79 -103.333 -79 -178c0 -71.333 17.5 -123.5 52.5 -156.5s83.5 -49.5 145.5 -49.5zM795.001 1495c0 -32 -4.33301 -61.332 -13 -87.999s-20.5 -49.334 -35.5 -68.001
s-32.5 -33.167 -52.5 -43.5s-41.667 -15.5 -65 -15.5c-29.333 0 -53.5 5.66699 -72.5 17s-36.333 24 -52 38s-31.667 26.667 -48 38s-36.5 17 -60.5 17c-25.333 0 -46.666 -10.5 -63.999 -31.5s-26 -49.833 -26 -86.5l-81 3c0 32 4.16699 61.167 12.5 87.5
s20 48.833 35 67.5s32.667 33.167 53 43.5s42.166 15.5 65.499 15.5c26 0 48.5 -5.66699 67.5 -17s37 -23.833 54 -37.5s34 -26.167 51 -37.5s37.167 -17 60.5 -17c25.333 0 46.833 11 64.5 33s26.5 51.333 26.5 88z" />
    <glyph glyph-name="adieresis" unicode="&#xe4;" horiz-adv-x="964" 
d="M720 0c-5.33301 18 -9.66504 40.502 -12.998 67.502s-5.66602 54.5 -6.99902 82.5c-14 -22.667 -30.667 -44.167 -50 -64.5s-41.5 -38.333 -66.5 -54s-52.833 -28.167 -83.5 -37.5s-63.667 -14 -99 -14c-44.667 0 -85.167 6.33301 -121.5 19s-67.5 31.667 -93.5 57
s-46 57 -60 95s-21 82.333 -21 133c0 50 8.66699 96.167 26 138.5s43.166 78.833 77.499 109.5s77.166 54.667 128.499 72s111 26 179 26h183v151c0 77.333 -19.167 132.833 -57.5 166.5s-94.5 50.5 -168.5 50.5c-34.667 0 -66.5 -5.33301 -95.5 -16
s-53.833 -25.5 -74.5 -44.5s-36.667 -41.667 -48 -68s-17 -55.166 -17 -86.499l-111 1c0 42 8.33301 82.167 25 120.5s40.334 72.166 71.001 101.499s67.667 52.666 111 69.999s91.333 26 144 26c48.667 0 93.167 -5.83301 133.5 -17.5s75.166 -30.334 104.499 -56.001
s52.166 -59 68.499 -100s24.5 -90.833 24.5 -149.5v-552c0 -18.667 0.666992 -38 2 -58s3.16602 -39.5 5.49902 -58.5s5.33301 -37 9 -54s7.83398 -31.833 12.501 -44.5v-12h-118zM415.001 87.002c34.667 0 67.167 4.83301 97.5 14.5s57.5 23 81.5 40
s44.833 36.833 62.5 59.5s31.834 47 42.501 73v263h-167c-104.667 0 -183.334 -22 -236.001 -66s-79 -103.333 -79 -178c0 -71.333 17.5 -123.5 52.5 -156.5s83.5 -49.5 145.5 -49.5zM214.001 1395c0 23.333 7.16699 42.833 21.5 58.5s34.5 23.5 60.5 23.5
c25.333 0 45.5 -7.83301 60.5 -23.5s22.5 -35.167 22.5 -58.5c0 -22.667 -7.5 -41.667 -22.5 -57s-35.167 -23 -60.5 -23c-26 0 -46.167 7.66699 -60.5 23s-21.5 34.333 -21.5 57zM651.001 1394c0 23.333 7.33301 42.833 22 58.5s34.667 23.5 60 23.5
c26 0 46.333 -7.83301 61 -23.5s22 -35.167 22 -58.5c0 -22.667 -7.33301 -41.667 -22 -57s-35 -23 -61 -23c-25.333 0 -45.333 7.66699 -60 23s-22 34.333 -22 57z" />
    <glyph glyph-name="aring" unicode="&#xe5;" horiz-adv-x="964" 
d="M720 0c-5.33301 18 -9.66504 40.502 -12.998 67.502s-5.66602 54.5 -6.99902 82.5c-14 -22.667 -30.667 -44.167 -50 -64.5s-41.5 -38.333 -66.5 -54s-52.833 -28.167 -83.5 -37.5s-63.667 -14 -99 -14c-44.667 0 -85.167 6.33301 -121.5 19s-67.5 31.667 -93.5 57
s-46 57 -60 95s-21 82.333 -21 133c0 50 8.66699 96.167 26 138.5s43.166 78.833 77.499 109.5s77.166 54.667 128.499 72s111 26 179 26h183v151c0 77.333 -19.167 132.833 -57.5 166.5s-94.5 50.5 -168.5 50.5c-34.667 0 -66.5 -5.33301 -95.5 -16
s-53.833 -25.5 -74.5 -44.5s-36.667 -41.667 -48 -68s-17 -55.166 -17 -86.499l-111 1c0 42 8.33301 82.167 25 120.5s40.334 72.166 71.001 101.499s67.667 52.666 111 69.999s91.333 26 144 26c48.667 0 93.167 -5.83301 133.5 -17.5s75.166 -30.334 104.499 -56.001
s52.166 -59 68.499 -100s24.5 -90.833 24.5 -149.5v-552c0 -18.667 0.666992 -38 2 -58s3.16602 -39.5 5.49902 -58.5s5.33301 -37 9 -54s7.83398 -31.833 12.501 -44.5v-12h-118zM415.001 87.002c34.667 0 67.167 4.83301 97.5 14.5s57.5 23 81.5 40
s44.833 36.833 62.5 59.5s31.834 47 42.501 73v263h-167c-104.667 0 -183.334 -22 -236.001 -66s-79 -103.333 -79 -178c0 -71.333 17.5 -123.5 52.5 -156.5s83.5 -49.5 145.5 -49.5zM315.001 1401c0 26.667 5 51.667 15 75s23.667 43.666 41 60.999s37.666 31 60.999 41
s48.666 15 75.999 15c26.667 0 51.834 -5 75.501 -15s44.167 -23.667 61.5 -41s31 -37.666 41 -60.999s15 -48.333 15 -75s-5 -51.5 -15 -74.5s-23.667 -42.833 -41 -59.5s-37.833 -29.667 -61.5 -39s-48.834 -14 -75.501 -14c-27.333 0 -52.666 4.66699 -75.999 14
s-43.666 22.333 -60.999 39s-31 36.5 -41 59.5s-15 47.833 -15 74.5zM392.001 1401c0 -16 2.83301 -31 8.5 -45s13.667 -26.167 24 -36.5s22.5 -18.5 36.5 -24.5s29.667 -9 47 -9c16.667 0 32.167 3 46.5 9s26.833 14.167 37.5 24.5s18.834 22.5 24.501 36.5s8.5 29 8.5 45
c0 16.667 -2.83301 32.334 -8.5 47.001s-13.834 27.334 -24.501 38.001s-23.167 19 -37.5 25s-29.833 9 -46.5 9c-17.333 0 -33 -3 -47 -9s-26.167 -14.333 -36.5 -25s-18.333 -23.334 -24 -38.001s-8.5 -30.334 -8.5 -47.001z" />
    <glyph glyph-name="ae" unicode="&#xe6;" horiz-adv-x="1494" 
d="M1082 -20c-77.333 0 -144 17.8291 -200 53.4961s-101 85.167 -135 148.5c-12.667 -24 -29.5 -48.167 -50.5 -72.5s-46.5 -46 -76.5 -65s-64.167 -34.5 -102.5 -46.5s-81.5 -18 -129.5 -18s-90.5 7.33301 -127.5 22s-68.167 35.667 -93.5 63s-44.5 60.333 -57.5 99
s-19.5 82 -19.5 130c0 52 7.83301 98.833 23.5 140.5s39 77.167 70 106.5s69.667 51.833 116 67.5s99.833 23.5 160.5 23.5h211v88c0 87.333 -17.167 155.5 -51.5 204.5s-85.833 73.5 -154.5 73.5c-37.333 0 -71 -6 -101 -18s-55.333 -28.5 -76 -49.5
s-36.5 -45.667 -47.5 -74s-16.5 -58.833 -16.5 -91.5l-110 13c0 46.667 8.33301 89.834 25 129.501s40.334 73.834 71.001 102.501s67.5 51.167 110.5 67.5s91.167 24.5 144.5 24.5c68.667 0 127.834 -17 177.501 -51s86.167 -85 109.5 -153c34 64 77 114 129 150
s110 54 174 54c57.333 0 108.166 -10.833 152.499 -32.5s81.833 -52.5 112.5 -92.5s53.834 -88.667 69.501 -146s23.5 -122 23.5 -194v-101h-631v-26c0 -59.333 5.83301 -115 17.5 -167s29.667 -97.167 54 -135.5s55.333 -68.666 93 -90.999s82.834 -33.5 135.501 -33.5
c32 0 61.167 3.33301 87.5 10s50.666 15.5 72.999 26.5s42.5 23.5 60.5 37.5s34.667 28.667 50 44l42 -90c-11.333 -13.333 -26 -27.666 -44 -42.999s-39.833 -29.5 -65.5 -42.5s-55.334 -23.833 -89.001 -32.5s-71.834 -13 -114.501 -13zM406 81.9961
c27.333 0 54.501 4.49805 81.501 13.498s52.167 20.667 75.5 35s44.333 30.333 63 48s33.667 35.5 45 53.5v302h-209c-44 0 -82.167 -6.66699 -114.5 -20s-59.333 -31.166 -81 -53.499s-37.834 -48.166 -48.501 -77.499s-16 -60.333 -16 -93c0 -62 17 -112.167 51 -150.5
s85 -57.5 153 -57.5zM1055 997.994c-38.667 0 -73.668 -9.16699 -105.001 -27.5s-58.5 -43.833 -81.5 -76.5s-41.5 -71 -55.5 -115s-23.333 -91.667 -28 -143h518v31c0 46 -4.83301 89 -14.5 129s-24.667 75 -45 105s-46.166 53.667 -77.499 71s-68.333 26 -111 26z" />
    <glyph glyph-name="ccedilla" unicode="&#xe7;" horiz-adv-x="929" 
d="M490 83c30.667 0 60.334 4 89.001 12s54.167 21.667 76.5 41s40.666 45.166 54.999 77.499s22.5 72.833 24.5 121.5h107c-2.66699 -58 -13.667 -109.167 -33 -153.5s-45 -81.333 -77 -111s-68.667 -52.167 -110 -67.5s-85.333 -23 -132 -23
c-130 0 -227.833 42 -293.5 126s-98.5 208.667 -98.5 374v122c0 165.333 32.833 290 98.5 374s163.167 126 292.5 126c49.333 0 95.166 -7.83301 137.499 -23.5s79 -39.334 110 -71.001s55.833 -71.667 74.5 -120s29 -105.166 31 -170.499h-107
c-2 50 -9.66699 92.833 -23 128.5s-30.833 64.834 -52.5 87.501s-47 39.167 -76 49.5s-60.5 15.5 -94.5 15.5c-51.333 0 -94.666 -8.83301 -129.999 -26.5s-64 -43.5 -86 -77.5s-38 -75.5 -48 -124.5s-15 -104.833 -15 -167.5v-122
c0 -63.333 4.83301 -119.666 14.5 -168.999s25.5 -90.833 47.5 -124.5s50.833 -59.334 86.5 -77.001s79.5 -26.5 131.5 -26.5zM517 -9l-10 -64c16.667 -2.66699 33.167 -7.5 49.5 -14.5s31 -17.167 44 -30.5s23.333 -30.166 31 -50.499s11.5 -45.5 11.5 -75.5
s-5.5 -57.167 -16.5 -81.5s-27 -45.333 -48 -63s-46.833 -31.334 -77.5 -41.001s-66 -14.5 -106 -14.5l-6 79c20.667 0 40.834 2.33301 60.501 7s37.167 11.667 52.5 21s27.666 21.5 36.999 36.5s14 33.167 14 54.5c0 19.333 -3 35.5 -9 48.5s-15 23.5 -27 31.5
s-27.167 14.167 -45.5 18.5s-39.833 7.83301 -64.5 10.5l25 128h85z" />
    <glyph glyph-name="egrave" unicode="&#xe8;" horiz-adv-x="937" 
d="M505 -20c-60 0 -115.002 9.83203 -165.002 29.499s-93.167 49.667 -129.5 90s-64.5 91.166 -84.5 152.499s-30 134 -30 218v123c0 90.667 10.667 168.167 32 232.5s49.833 117 85.5 158s77 71 124 90s96.5 28.5 148.5 28.5c118.667 0 208.834 -39.167 270.501 -117.5
s92.5 -198.166 92.5 -359.499v-94h-643v-61c0 -66 7.33301 -123.333 22 -172s35.334 -89 62.001 -121s58.667 -55.833 96 -71.5s78.666 -23.5 123.999 -23.5c56 0 104.667 9.5 146 28.5s79 48.5 113 88.5l58 -74c-14.667 -20 -31.834 -38.667 -51.501 -56
s-42.667 -32.666 -69 -45.999s-56.166 -23.833 -89.499 -31.5s-70.666 -11.5 -111.999 -11.5zM485.998 997.999c-39.333 0 -75.5 -6.66699 -108.5 -20s-61.667 -34.5 -86 -63.5s-43.833 -66.5 -58.5 -112.5s-23.334 -101.667 -26.001 -167h531v29
c-1.33301 52.667 -7.33301 99.667 -18 141s-26.167 76.333 -46.5 105s-46.166 50.5 -77.499 65.5s-68 22.5 -110 22.5zM568.998 1245h-109l-226 280h144z" />
    <glyph glyph-name="eacute" unicode="&#xe9;" horiz-adv-x="937" 
d="M505 -20c-60 0 -115.002 9.83203 -165.002 29.499s-93.167 49.667 -129.5 90s-64.5 91.166 -84.5 152.499s-30 134 -30 218v123c0 90.667 10.667 168.167 32 232.5s49.833 117 85.5 158s77 71 124 90s96.5 28.5 148.5 28.5c118.667 0 208.834 -39.167 270.501 -117.5
s92.5 -198.166 92.5 -359.499v-94h-643v-61c0 -66 7.33301 -123.333 22 -172s35.334 -89 62.001 -121s58.667 -55.833 96 -71.5s78.666 -23.5 123.999 -23.5c56 0 104.667 9.5 146 28.5s79 48.5 113 88.5l58 -74c-14.667 -20 -31.834 -38.667 -51.501 -56
s-42.667 -32.666 -69 -45.999s-56.166 -23.833 -89.499 -31.5s-70.666 -11.5 -111.999 -11.5zM485.998 997.999c-39.333 0 -75.5 -6.66699 -108.5 -20s-61.667 -34.5 -86 -63.5s-43.833 -66.5 -58.5 -112.5s-23.334 -101.667 -26.001 -167h531v29
c-1.33301 52.667 -7.33301 99.667 -18 141s-26.167 76.333 -46.5 105s-46.166 50.5 -77.499 65.5s-68 22.5 -110 22.5zM614.998 1525h145l-231 -280h-105z" />
    <glyph glyph-name="ecircumflex" unicode="&#xea;" horiz-adv-x="937" 
d="M505 -20c-60 0 -115.002 9.83203 -165.002 29.499s-93.167 49.667 -129.5 90s-64.5 91.166 -84.5 152.499s-30 134 -30 218v123c0 90.667 10.667 168.167 32 232.5s49.833 117 85.5 158s77 71 124 90s96.5 28.5 148.5 28.5c118.667 0 208.834 -39.167 270.501 -117.5
s92.5 -198.166 92.5 -359.499v-94h-643v-61c0 -66 7.33301 -123.333 22 -172s35.334 -89 62.001 -121s58.667 -55.833 96 -71.5s78.666 -23.5 123.999 -23.5c56 0 104.667 9.5 146 28.5s79 48.5 113 88.5l58 -74c-14.667 -20 -31.834 -38.667 -51.501 -56
s-42.667 -32.666 -69 -45.999s-56.166 -23.833 -89.499 -31.5s-70.666 -11.5 -111.999 -11.5zM485.998 997.999c-39.333 0 -75.5 -6.66699 -108.5 -20s-61.667 -34.5 -86 -63.5s-43.833 -66.5 -58.5 -112.5s-23.334 -101.667 -26.001 -167h531v29
c-1.33301 52.667 -7.33301 99.667 -18 141s-26.167 76.333 -46.5 105s-46.166 50.5 -77.499 65.5s-68 22.5 -110 22.5zM732.998 1268v-10h-100l-138 182l-138 -182h-98v12l201 256h69z" />
    <glyph glyph-name="edieresis" unicode="&#xeb;" horiz-adv-x="937" 
d="M505 -20c-60 0 -115.002 9.83203 -165.002 29.499s-93.167 49.667 -129.5 90s-64.5 91.166 -84.5 152.499s-30 134 -30 218v123c0 90.667 10.667 168.167 32 232.5s49.833 117 85.5 158s77 71 124 90s96.5 28.5 148.5 28.5c118.667 0 208.834 -39.167 270.501 -117.5
s92.5 -198.166 92.5 -359.499v-94h-643v-61c0 -66 7.33301 -123.333 22 -172s35.334 -89 62.001 -121s58.667 -55.833 96 -71.5s78.666 -23.5 123.999 -23.5c56 0 104.667 9.5 146 28.5s79 48.5 113 88.5l58 -74c-14.667 -20 -31.834 -38.667 -51.501 -56
s-42.667 -32.666 -69 -45.999s-56.166 -23.833 -89.499 -31.5s-70.666 -11.5 -111.999 -11.5zM485.998 997.999c-39.333 0 -75.5 -6.66699 -108.5 -20s-61.667 -34.5 -86 -63.5s-43.833 -66.5 -58.5 -112.5s-23.334 -101.667 -26.001 -167h531v29
c-1.33301 52.667 -7.33301 99.667 -18 141s-26.167 76.333 -46.5 105s-46.166 50.5 -77.499 65.5s-68 22.5 -110 22.5zM201.998 1395c0 23.333 7.16699 42.833 21.5 58.5s34.5 23.5 60.5 23.5c25.333 0 45.5 -7.83301 60.5 -23.5s22.5 -35.167 22.5 -58.5
c0 -22.667 -7.5 -41.667 -22.5 -57s-35.167 -23 -60.5 -23c-26 0 -46.167 7.66699 -60.5 23s-21.5 34.333 -21.5 57zM638.998 1394c0 23.333 7.33301 42.833 22 58.5s34.667 23.5 60 23.5c26 0 46.333 -7.83301 61 -23.5s22 -35.167 22 -58.5
c0 -22.667 -7.33301 -41.667 -22 -57s-35 -23 -61 -23c-25.333 0 -45.333 7.66699 -60 23s-22 34.333 -22 57z" />
    <glyph glyph-name="igrave" unicode="&#xec;" horiz-adv-x="431" 
d="M270 0h-111v1082h111v-1082zM292 1233h-109l-226 280h144z" />
    <glyph glyph-name="iacute" unicode="&#xed;" horiz-adv-x="431" 
d="M270 0h-111v1082h111v-1082zM337 1513h145l-231 -280h-105z" />
    <glyph glyph-name="icircumflex" unicode="&#xee;" horiz-adv-x="431" 
d="M270 0h-111v1082h111v-1082zM456 1256v-10h-100l-138 182l-138 -182h-98v12l201 256h69z" />
    <glyph glyph-name="idieresis" unicode="&#xef;" horiz-adv-x="431" 
d="M270 0h-111v1082h111v-1082zM-75 1383c0 23.333 7.16699 42.833 21.5 58.5s34.5 23.5 60.5 23.5c25.333 0 45.5 -7.83301 60.5 -23.5s22.5 -35.167 22.5 -58.5c0 -22.667 -7.5 -41.667 -22.5 -57s-35.167 -23 -60.5 -23c-26 0 -46.167 7.66699 -60.5 23
s-21.5 34.333 -21.5 57zM362 1382c0 23.333 7.33301 42.833 22 58.5s34.667 23.5 60 23.5c26 0 46.333 -7.83301 61 -23.5s22 -35.167 22 -58.5c0 -22.667 -7.33301 -41.667 -22 -57s-35 -23 -61 -23c-25.333 0 -45.333 7.66699 -60 23s-22 34.333 -22 57z" />
    <glyph glyph-name="eth" unicode="&#xf0;" horiz-adv-x="1042" 
d="M699 1303c67.333 -83.333 119.003 -181.167 155.003 -293.5s54 -240.833 54 -385.5v-89c0 -82 -9.33301 -157.167 -28 -225.5s-44.5 -126.833 -77.5 -175.5s-72.5 -86.5 -118.5 -113.5s-96 -40.5 -150 -40.5c-58 0 -111 12.5 -159 37.5s-89.333 59.5 -124 103.5
s-61.667 95.5 -81 154.5s-29 122.5 -29 190.5c0 77.333 9 146.833 27 208.5s43.167 114 75.5 157s71.166 76 116.499 99s95.666 34.5 150.999 34.5c54 0 104.5 -12.333 151.5 -37s86.833 -58 119.5 -100c-13.333 88 -34.833 165.5 -64.5 232.5
s-65.834 125.833 -108.501 176.5l-188 -138l-46 74l173 128c-42 38 -87 71 -135 99s-98.333 52 -151 72l36 106c134.667 -47.333 249 -117 343 -209l163 120l46 -75zM797.003 625.999c0 10 -0.165039 20 -0.498047 30s-0.833008 20 -1.5 30
c-9.33301 22 -21.5 43.333 -36.5 64s-33.5 39 -55.5 55s-47.167 29 -75.5 39s-59.833 15 -94.5 15c-46.667 0 -87.5 -9.66699 -122.5 -29s-64.167 -46.333 -87.5 -81s-40.833 -76.167 -52.5 -124.5s-17.5 -101.166 -17.5 -158.499c0 -47.333 6.16699 -93.833 18.5 -139.5
s30.666 -86.334 54.999 -122.001s54.166 -64.5 89.499 -86.5s76 -33 122 -33c40 0 76 11.333 108 34s59.167 54 81.5 94s39.5 87.5 51.5 142.5s18 114.833 18 179.5v91z" />
    <glyph glyph-name="ntilde" unicode="&#xf1;" horiz-adv-x="986" 
d="M254 1082l3 -171.999c32 58.667 72.833 105.334 122.5 140.001s106.167 52 169.5 52c45.333 0 85.833 -7.33301 121.5 -22s66 -38 91 -70s44.167 -73.167 57.5 -123.5s20 -111.166 20 -182.499v-704h-110v705c0 55.333 -4.83301 101.666 -14.5 138.999
s-23.5 67.166 -41.5 89.499s-39.833 38.333 -65.5 48s-54.5 14.5 -86.5 14.5c-33.333 0 -63.833 -6.83301 -91.5 -20.5s-52.5 -31.834 -74.5 -54.501s-41 -48.667 -57 -78s-29 -60 -39 -92v-751h-111v1082h106zM791 1494c0 -32 -4.33301 -61.332 -13 -87.999
s-20.5 -49.334 -35.5 -68.001s-32.5 -33.167 -52.5 -43.5s-41.667 -15.5 -65 -15.5c-29.333 0 -53.5 5.66699 -72.5 17s-36.333 24 -52 38s-31.667 26.667 -48 38s-36.5 17 -60.5 17c-25.333 0 -46.666 -10.5 -63.999 -31.5s-26 -49.833 -26 -86.5l-81 3
c0 32 4.16699 61.167 12.5 87.5s20 48.833 35 67.5s32.667 33.167 53 43.5s42.166 15.5 65.499 15.5c26 0 48.5 -5.66699 67.5 -17s37 -23.833 54 -37.5s34 -26.167 51 -37.5s37.167 -17 60.5 -17c25.333 0 46.833 11 64.5 33s26.5 51.333 26.5 88z" />
    <glyph glyph-name="ograve" unicode="&#xf2;" horiz-adv-x="1005" 
d="M106 596c0 82 9.66699 154.333 29 217s46.333 115.5 81 158.5s76.167 75.5 124.5 97.5s101.833 33 160.5 33c59.333 0 113.333 -11 162 -33s90.334 -54.5 125.001 -97.5s61.5 -95.833 80.5 -158.5s28.5 -135 28.5 -217v-112c0 -82 -9.5 -154.333 -28.5 -217
s-45.833 -115.167 -80.5 -157.5s-76.167 -74.5 -124.5 -96.5s-101.833 -33 -160.5 -33c-59.333 0 -113.333 11 -162 33s-90.334 54.167 -125.001 96.5s-61.667 94.833 -81 157.5s-29 135 -29 217v112zM218 484c0 -62 6.33398 -117.667 19.001 -167s31.167 -91.333 55.5 -126
s54.166 -61.334 89.499 -80.001s75.666 -28 120.999 -28c48 0 89.667 9.33301 125 28s64.666 45.334 87.999 80.001s40.833 76.667 52.5 126s17.5 105 17.5 167v112c0 60.667 -6.33301 115.834 -19 165.501s-31.167 92 -55.5 127s-54.166 62 -89.499 81
s-75.666 28.5 -120.999 28.5c-44.667 0 -84.5 -9.5 -119.5 -28.5s-64.667 -46 -89 -81s-42.833 -77.333 -55.5 -127s-19 -104.834 -19 -165.501v-112zM580.001 1245h-109l-226 280h144z" />
    <glyph glyph-name="oacute" unicode="&#xf3;" horiz-adv-x="1005" 
d="M106 596c0 82 9.66699 154.333 29 217s46.333 115.5 81 158.5s76.167 75.5 124.5 97.5s101.833 33 160.5 33c59.333 0 113.333 -11 162 -33s90.334 -54.5 125.001 -97.5s61.5 -95.833 80.5 -158.5s28.5 -135 28.5 -217v-112c0 -82 -9.5 -154.333 -28.5 -217
s-45.833 -115.167 -80.5 -157.5s-76.167 -74.5 -124.5 -96.5s-101.833 -33 -160.5 -33c-59.333 0 -113.333 11 -162 33s-90.334 54.167 -125.001 96.5s-61.667 94.833 -81 157.5s-29 135 -29 217v112zM218 484c0 -62 6.33398 -117.667 19.001 -167s31.167 -91.333 55.5 -126
s54.166 -61.334 89.499 -80.001s75.666 -28 120.999 -28c48 0 89.667 9.33301 125 28s64.666 45.334 87.999 80.001s40.833 76.667 52.5 126s17.5 105 17.5 167v112c0 60.667 -6.33301 115.834 -19 165.501s-31.167 92 -55.5 127s-54.166 62 -89.499 81
s-75.666 28.5 -120.999 28.5c-44.667 0 -84.5 -9.5 -119.5 -28.5s-64.667 -46 -89 -81s-42.833 -77.333 -55.5 -127s-19 -104.834 -19 -165.501v-112zM626.001 1525h145l-231 -280h-105z" />
    <glyph glyph-name="ocircumflex" unicode="&#xf4;" horiz-adv-x="1005" 
d="M106 596c0 82 9.66699 154.333 29 217s46.333 115.5 81 158.5s76.167 75.5 124.5 97.5s101.833 33 160.5 33c59.333 0 113.333 -11 162 -33s90.334 -54.5 125.001 -97.5s61.5 -95.833 80.5 -158.5s28.5 -135 28.5 -217v-112c0 -82 -9.5 -154.333 -28.5 -217
s-45.833 -115.167 -80.5 -157.5s-76.167 -74.5 -124.5 -96.5s-101.833 -33 -160.5 -33c-59.333 0 -113.333 11 -162 33s-90.334 54.167 -125.001 96.5s-61.667 94.833 -81 157.5s-29 135 -29 217v112zM218 484c0 -62 6.33398 -117.667 19.001 -167s31.167 -91.333 55.5 -126
s54.166 -61.334 89.499 -80.001s75.666 -28 120.999 -28c48 0 89.667 9.33301 125 28s64.666 45.334 87.999 80.001s40.833 76.667 52.5 126s17.5 105 17.5 167v112c0 60.667 -6.33301 115.834 -19 165.501s-31.167 92 -55.5 127s-54.166 62 -89.499 81
s-75.666 28.5 -120.999 28.5c-44.667 0 -84.5 -9.5 -119.5 -28.5s-64.667 -46 -89 -81s-42.833 -77.333 -55.5 -127s-19 -104.834 -19 -165.501v-112zM744.001 1268v-10h-100l-138 182l-138 -182h-98v12l201 256h69z" />
    <glyph glyph-name="otilde" unicode="&#xf5;" horiz-adv-x="1005" 
d="M106 596c0 82 9.66699 154.333 29 217s46.333 115.5 81 158.5s76.167 75.5 124.5 97.5s101.833 33 160.5 33c59.333 0 113.333 -11 162 -33s90.334 -54.5 125.001 -97.5s61.5 -95.833 80.5 -158.5s28.5 -135 28.5 -217v-112c0 -82 -9.5 -154.333 -28.5 -217
s-45.833 -115.167 -80.5 -157.5s-76.167 -74.5 -124.5 -96.5s-101.833 -33 -160.5 -33c-59.333 0 -113.333 11 -162 33s-90.334 54.167 -125.001 96.5s-61.667 94.833 -81 157.5s-29 135 -29 217v112zM218 484c0 -62 6.33398 -117.667 19.001 -167s31.167 -91.333 55.5 -126
s54.166 -61.334 89.499 -80.001s75.666 -28 120.999 -28c48 0 89.667 9.33301 125 28s64.666 45.334 87.999 80.001s40.833 76.667 52.5 126s17.5 105 17.5 167v112c0 60.667 -6.33301 115.834 -19 165.501s-31.167 92 -55.5 127s-54.166 62 -89.499 81
s-75.666 28.5 -120.999 28.5c-44.667 0 -84.5 -9.5 -119.5 -28.5s-64.667 -46 -89 -81s-42.833 -77.333 -55.5 -127s-19 -104.834 -19 -165.501v-112zM794.001 1494c0 -32 -4.33301 -61.332 -13 -87.999s-20.5 -49.334 -35.5 -68.001s-32.5 -33.167 -52.5 -43.5
s-41.667 -15.5 -65 -15.5c-29.333 0 -53.5 5.66699 -72.5 17s-36.333 24 -52 38s-31.667 26.667 -48 38s-36.5 17 -60.5 17c-25.333 0 -46.666 -10.5 -63.999 -31.5s-26 -49.833 -26 -86.5l-81 3c0 32 4.16699 61.167 12.5 87.5s20 48.833 35 67.5s32.667 33.167 53 43.5
s42.166 15.5 65.499 15.5c26 0 48.5 -5.66699 67.5 -17s37 -23.833 54 -37.5s34 -26.167 51 -37.5s37.167 -17 60.5 -17c25.333 0 46.833 11 64.5 33s26.5 51.333 26.5 88z" />
    <glyph glyph-name="odieresis" unicode="&#xf6;" horiz-adv-x="1005" 
d="M106 596c0 82 9.66699 154.333 29 217s46.333 115.5 81 158.5s76.167 75.5 124.5 97.5s101.833 33 160.5 33c59.333 0 113.333 -11 162 -33s90.334 -54.5 125.001 -97.5s61.5 -95.833 80.5 -158.5s28.5 -135 28.5 -217v-112c0 -82 -9.5 -154.333 -28.5 -217
s-45.833 -115.167 -80.5 -157.5s-76.167 -74.5 -124.5 -96.5s-101.833 -33 -160.5 -33c-59.333 0 -113.333 11 -162 33s-90.334 54.167 -125.001 96.5s-61.667 94.833 -81 157.5s-29 135 -29 217v112zM218 484c0 -62 6.33398 -117.667 19.001 -167s31.167 -91.333 55.5 -126
s54.166 -61.334 89.499 -80.001s75.666 -28 120.999 -28c48 0 89.667 9.33301 125 28s64.666 45.334 87.999 80.001s40.833 76.667 52.5 126s17.5 105 17.5 167v112c0 60.667 -6.33301 115.834 -19 165.501s-31.167 92 -55.5 127s-54.166 62 -89.499 81
s-75.666 28.5 -120.999 28.5c-44.667 0 -84.5 -9.5 -119.5 -28.5s-64.667 -46 -89 -81s-42.833 -77.333 -55.5 -127s-19 -104.834 -19 -165.501v-112zM213.001 1395c0 23.333 7.16699 42.833 21.5 58.5s34.5 23.5 60.5 23.5c25.333 0 45.5 -7.83301 60.5 -23.5
s22.5 -35.167 22.5 -58.5c0 -22.667 -7.5 -41.667 -22.5 -57s-35.167 -23 -60.5 -23c-26 0 -46.167 7.66699 -60.5 23s-21.5 34.333 -21.5 57zM650.001 1394c0 23.333 7.33301 42.833 22 58.5s34.667 23.5 60 23.5c26 0 46.333 -7.83301 61 -23.5s22 -35.167 22 -58.5
c0 -22.667 -7.33301 -41.667 -22 -57s-35 -23 -61 -23c-25.333 0 -45.333 7.66699 -60 23s-22 34.333 -22 57z" />
    <glyph glyph-name="divide" unicode="&#xf7;" horiz-adv-x="1019" 
d="M919 642h-839v119h839v-119zM430 1088c0 24 6.66699 44.167 20 60.5s32 24.5 56 24.5s42.833 -8.16699 56.5 -24.5s20.5 -36.5 20.5 -60.5c0 -23.333 -6.83301 -42.833 -20.5 -58.5s-32.5 -23.5 -56.5 -23.5s-42.667 7.83301 -56 23.5s-20 35.167 -20 58.5zM430 291
c0 23.333 6.66699 43.166 20 59.499s32 24.5 56 24.5s42.833 -8.16699 56.5 -24.5s20.5 -36.166 20.5 -59.499s-6.83301 -43 -20.5 -59s-32.5 -24 -56.5 -24s-42.667 8 -56 24s-20 35.667 -20 59z" />
    <glyph glyph-name="oslash" unicode="&#xf8;" horiz-adv-x="1002" 
d="M104 596c0 82 9.66797 154.331 29.001 216.998s46.333 115.5 81 158.5s76.167 75.5 124.5 97.5s101.833 33 160.5 33c68 0 128.667 -14.667 182 -44l64 156h83l-83 -201c47.333 -42 84.166 -97.667 110.499 -167s39.5 -152.666 39.5 -249.999v-112
c0 -82 -9.5 -154.333 -28.5 -217s-45.833 -115.167 -80.5 -157.5s-76.167 -74.5 -124.5 -96.5s-101.833 -33 -160.5 -33c-60.667 0 -116 11.667 -166 35l-64 -155h-83l80 195c-52 40.667 -92.333 96.834 -121 168.501s-43 158.5 -43 260.5v112zM216.001 483.998
c0 -70.667 8.16504 -133.166 24.498 -187.499s40.5 -98.833 72.5 -133.5l326 794c-19.333 13.333 -40.666 23.5 -63.999 30.5s-48.666 10.5 -75.999 10.5c-44.667 0 -84.5 -9.5 -119.5 -28.5s-64.667 -46 -89 -81s-42.833 -77.333 -55.5 -127s-19 -104.834 -19 -165.501
v-112zM783.999 595.999c0 64.667 -7.16602 122.832 -21.499 174.499s-35.5 95.167 -63.5 130.5l-324 -788c36.667 -20 78.667 -30 126 -30c48 0 89.667 9.33301 125 28s64.666 45.334 87.999 80.001s40.833 76.667 52.5 126s17.5 105 17.5 167v112z" />
    <glyph glyph-name="ugrave" unicode="&#xf9;" horiz-adv-x="986" 
d="M728 129c-28.667 -46.667 -66.1699 -83.1699 -112.503 -109.503s-103.833 -39.5 -172.5 -39.5c-44.667 0 -85.334 7.5 -122.001 22.5s-68 38.833 -94 71.5s-46.167 74.834 -60.5 126.501s-21.5 114.5 -21.5 188.5v693h110v-695c0 -57.333 5.33301 -105.166 16 -143.499
s25.334 -69.166 44.001 -92.499s40.167 -40 64.5 -50s50.166 -15 77.499 -15c38.667 0 72.834 5 102.501 15s55.334 24 77.001 42s39.834 39.5 54.501 64.5s26.334 52.5 35.001 82.5v792h112v-1082h-108zM573.997 1245h-109l-226 280h144z" />
    <glyph glyph-name="uacute" unicode="&#xfa;" horiz-adv-x="986" 
d="M728 129c-28.667 -46.667 -66.1699 -83.1699 -112.503 -109.503s-103.833 -39.5 -172.5 -39.5c-44.667 0 -85.334 7.5 -122.001 22.5s-68 38.833 -94 71.5s-46.167 74.834 -60.5 126.501s-21.5 114.5 -21.5 188.5v693h110v-695c0 -57.333 5.33301 -105.166 16 -143.499
s25.334 -69.166 44.001 -92.499s40.167 -40 64.5 -50s50.166 -15 77.499 -15c38.667 0 72.834 5 102.501 15s55.334 24 77.001 42s39.834 39.5 54.501 64.5s26.334 52.5 35.001 82.5v792h112v-1082h-108zM619.997 1525h145l-231 -280h-105z" />
    <glyph glyph-name="ucircumflex" unicode="&#xfb;" horiz-adv-x="986" 
d="M728 129c-28.667 -46.667 -66.1699 -83.1699 -112.503 -109.503s-103.833 -39.5 -172.5 -39.5c-44.667 0 -85.334 7.5 -122.001 22.5s-68 38.833 -94 71.5s-46.167 74.834 -60.5 126.501s-21.5 114.5 -21.5 188.5v693h110v-695c0 -57.333 5.33301 -105.166 16 -143.499
s25.334 -69.166 44.001 -92.499s40.167 -40 64.5 -50s50.166 -15 77.499 -15c38.667 0 72.834 5 102.501 15s55.334 24 77.001 42s39.834 39.5 54.501 64.5s26.334 52.5 35.001 82.5v792h112v-1082h-108zM737.997 1268v-10h-100l-138 182l-138 -182h-98v12l201 256h69z" />
    <glyph glyph-name="udieresis" unicode="&#xfc;" horiz-adv-x="986" 
d="M728 129c-28.667 -46.667 -66.1699 -83.1699 -112.503 -109.503s-103.833 -39.5 -172.5 -39.5c-44.667 0 -85.334 7.5 -122.001 22.5s-68 38.833 -94 71.5s-46.167 74.834 -60.5 126.501s-21.5 114.5 -21.5 188.5v693h110v-695c0 -57.333 5.33301 -105.166 16 -143.499
s25.334 -69.166 44.001 -92.499s40.167 -40 64.5 -50s50.166 -15 77.499 -15c38.667 0 72.834 5 102.501 15s55.334 24 77.001 42s39.834 39.5 54.501 64.5s26.334 52.5 35.001 82.5v792h112v-1082h-108zM206.997 1395c0 23.333 7.16699 42.833 21.5 58.5
s34.5 23.5 60.5 23.5c25.333 0 45.5 -7.83301 60.5 -23.5s22.5 -35.167 22.5 -58.5c0 -22.667 -7.5 -41.667 -22.5 -57s-35.167 -23 -60.5 -23c-26 0 -46.167 7.66699 -60.5 23s-21.5 34.333 -21.5 57zM643.997 1394c0 23.333 7.33301 42.833 22 58.5s34.667 23.5 60 23.5
c26 0 46.333 -7.83301 61 -23.5s22 -35.167 22 -58.5c0 -22.667 -7.33301 -41.667 -22 -57s-35 -23 -61 -23c-25.333 0 -45.333 7.66699 -60 23s-22 34.333 -22 57z" />
    <glyph glyph-name="yacute" unicode="&#xfd;" horiz-adv-x="857" 
d="M436 183l258.001 899.004h119l-381 -1255c-8 -24.667 -18 -52.334 -30 -83.001s-28 -59.334 -48 -86.001s-44.5 -49.167 -73.5 -67.5s-64.167 -27.5 -105.5 -27.5c-6 0 -12.667 0.5 -20 1.5s-14.833 2.16699 -22.5 3.5s-14.834 2.83301 -21.501 4.5s-12 3.16699 -16 4.5
l-1 102c6.66699 -2 15.5 -3.66699 26.5 -5s19.167 -2 24.5 -2c26.667 0 50.167 4.16699 70.5 12.5s38.333 20.666 54 36.999s29.5 36.666 41.5 60.999s22.667 52.5 32 84.5l42 140l-340 1075h122zM570.001 1525h145l-231 -280h-105z" />
    <glyph glyph-name="thorn" unicode="&#xfe;" horiz-adv-x="1012" 
d="M890 490c0 -87.333 -7.83398 -163.001 -23.501 -227.001s-38.167 -117 -67.5 -159s-65.666 -73.167 -108.999 -93.5s-92.333 -30.5 -147 -30.5c-64.667 0 -120.167 13.167 -166.5 39.5s-84.166 62.5 -113.499 108.5v-128h-1v-416h-110v416h-1v1536h112v-596
c29.333 51.333 66.666 91.166 111.999 119.499s100.333 42.5 165 42.5c56 0 105.667 -9.66699 149 -29s80 -49.666 110 -90.999s52.667 -94.166 68 -158.499s23 -141.833 23 -232.5v-101zM778.999 590.999c0 138.667 -21.502 240.666 -64.502 305.999s-110.167 98 -201.5 98
c-34 0 -64.333 -4.83301 -91 -14.5s-50 -22.5 -70 -38.5s-37.333 -34.667 -52 -56s-27 -43.666 -37 -66.999v-575c10.667 -23.333 23.834 -44.833 39.501 -64.5s33.834 -36.667 54.501 -51s44 -25.5 70 -33.5s55.333 -12 88 -12c90 0 156.5 33.167 199.5 99.5
s64.5 168.833 64.5 307.5v101z" />
    <glyph glyph-name="ydieresis" unicode="&#xff;" horiz-adv-x="857" 
d="M436 183l258.001 899.004h119l-381 -1255c-8 -24.667 -18 -52.334 -30 -83.001s-28 -59.334 -48 -86.001s-44.5 -49.167 -73.5 -67.5s-64.167 -27.5 -105.5 -27.5c-6 0 -12.667 0.5 -20 1.5s-14.833 2.16699 -22.5 3.5s-14.834 2.83301 -21.501 4.5s-12 3.16699 -16 4.5
l-1 102c6.66699 -2 15.5 -3.66699 26.5 -5s19.167 -2 24.5 -2c26.667 0 50.167 4.16699 70.5 12.5s38.333 20.666 54 36.999s29.5 36.666 41.5 60.999s22.667 52.5 32 84.5l42 140l-340 1075h122zM157.001 1395c0 23.333 7.16699 42.833 21.5 58.5s34.5 23.5 60.5 23.5
c25.333 0 45.5 -7.83301 60.5 -23.5s22.5 -35.167 22.5 -58.5c0 -22.667 -7.5 -41.667 -22.5 -57s-35.167 -23 -60.5 -23c-26 0 -46.167 7.66699 -60.5 23s-21.5 34.333 -21.5 57zM594.001 1394c0 23.333 7.33301 42.833 22 58.5s34.667 23.5 60 23.5
c26 0 46.333 -7.83301 61 -23.5s22 -35.167 22 -58.5c0 -22.667 -7.33301 -41.667 -22 -57s-35 -23 -61 -23c-25.333 0 -45.333 7.66699 -60 23s-22 34.333 -22 57z" />
    <glyph glyph-name="Amacron" unicode="&#x100;" 
d="M834 407h-546l-124 -407h-119l464 1456h106l464 -1456h-119zM321 514h480l-240 781zM848 1681h-570v99h570v-99z" />
    <glyph glyph-name="amacron" unicode="&#x101;" horiz-adv-x="964" 
d="M720 0c-5.33301 18 -9.66504 40.502 -12.998 67.502s-5.66602 54.5 -6.99902 82.5c-14 -22.667 -30.667 -44.167 -50 -64.5s-41.5 -38.333 -66.5 -54s-52.833 -28.167 -83.5 -37.5s-63.667 -14 -99 -14c-44.667 0 -85.167 6.33301 -121.5 19s-67.5 31.667 -93.5 57
s-46 57 -60 95s-21 82.333 -21 133c0 50 8.66699 96.167 26 138.5s43.166 78.833 77.499 109.5s77.166 54.667 128.499 72s111 26 179 26h183v151c0 77.333 -19.167 132.833 -57.5 166.5s-94.5 50.5 -168.5 50.5c-34.667 0 -66.5 -5.33301 -95.5 -16
s-53.833 -25.5 -74.5 -44.5s-36.667 -41.667 -48 -68s-17 -55.166 -17 -86.499l-111 1c0 42 8.33301 82.167 25 120.5s40.334 72.166 71.001 101.499s67.667 52.666 111 69.999s91.333 26 144 26c48.667 0 93.167 -5.83301 133.5 -17.5s75.166 -30.334 104.499 -56.001
s52.166 -59 68.499 -100s24.5 -90.833 24.5 -149.5v-552c0 -18.667 0.666992 -38 2 -58s3.16602 -39.5 5.49902 -58.5s5.33301 -37 9 -54s7.83398 -31.833 12.501 -44.5v-12h-118zM415.001 87.002c34.667 0 67.167 4.83301 97.5 14.5s57.5 23 81.5 40
s44.833 36.833 62.5 59.5s31.834 47 42.501 73v263h-167c-104.667 0 -183.334 -22 -236.001 -66s-79 -103.333 -79 -178c0 -71.333 17.5 -123.5 52.5 -156.5s83.5 -49.5 145.5 -49.5zM791.001 1366h-570v99h570v-99z" />
    <glyph glyph-name="Abreve" unicode="&#x102;" 
d="M834 407h-546l-124 -407h-119l464 1456h106l464 -1456h-119zM321 514h480l-240 781zM853 1808c0 -38 -6.66699 -72.668 -20 -104.001s-32.333 -58.5 -57 -81.5s-55 -40.833 -91 -53.5s-76.333 -19 -121 -19s-84.834 6.33301 -120.501 19s-66 30.5 -91 53.5
s-44.167 50.167 -57.5 81.5s-20 66 -20 104h102c0 -23.333 3.33301 -45.166 10 -65.499s17.334 -38.333 32.001 -54s34 -28 58 -37s53 -13.5 87 -13.5c33.333 0 61.833 4.66699 85.5 14s43 21.666 58 36.999s26 33.333 33 54s10.5 42.334 10.5 65.001h102z" />
    <glyph glyph-name="abreve" unicode="&#x103;" horiz-adv-x="964" 
d="M720 0c-5.33301 18 -9.66504 40.502 -12.998 67.502s-5.66602 54.5 -6.99902 82.5c-14 -22.667 -30.667 -44.167 -50 -64.5s-41.5 -38.333 -66.5 -54s-52.833 -28.167 -83.5 -37.5s-63.667 -14 -99 -14c-44.667 0 -85.167 6.33301 -121.5 19s-67.5 31.667 -93.5 57
s-46 57 -60 95s-21 82.333 -21 133c0 50 8.66699 96.167 26 138.5s43.166 78.833 77.499 109.5s77.166 54.667 128.499 72s111 26 179 26h183v151c0 77.333 -19.167 132.833 -57.5 166.5s-94.5 50.5 -168.5 50.5c-34.667 0 -66.5 -5.33301 -95.5 -16
s-53.833 -25.5 -74.5 -44.5s-36.667 -41.667 -48 -68s-17 -55.166 -17 -86.499l-111 1c0 42 8.33301 82.167 25 120.5s40.334 72.166 71.001 101.499s67.667 52.666 111 69.999s91.333 26 144 26c48.667 0 93.167 -5.83301 133.5 -17.5s75.166 -30.334 104.499 -56.001
s52.166 -59 68.499 -100s24.5 -90.833 24.5 -149.5v-552c0 -18.667 0.666992 -38 2 -58s3.16602 -39.5 5.49902 -58.5s5.33301 -37 9 -54s7.83398 -31.833 12.501 -44.5v-12h-118zM415.001 87.002c34.667 0 67.167 4.83301 97.5 14.5s57.5 23 81.5 40
s44.833 36.833 62.5 59.5s31.834 47 42.501 73v263h-167c-104.667 0 -183.334 -22 -236.001 -66s-79 -103.333 -79 -178c0 -71.333 17.5 -123.5 52.5 -156.5s83.5 -49.5 145.5 -49.5zM796.001 1493c0 -38 -6.66699 -72.668 -20 -104.001s-32.333 -58.5 -57 -81.5
s-55 -40.833 -91 -53.5s-76.333 -19 -121 -19s-84.834 6.33301 -120.501 19s-66 30.5 -91 53.5s-44.167 50.167 -57.5 81.5s-20 66 -20 104h102c0 -23.333 3.33301 -45.166 10 -65.499s17.334 -38.333 32.001 -54s34 -28 58 -37s53 -13.5 87 -13.5
c33.333 0 61.833 4.66699 85.5 14s43 21.666 58 36.999s26 33.333 33 54s10.5 42.334 10.5 65.001h102z" />
    <glyph glyph-name="Aogonek" unicode="&#x104;" 
d="M615 1456l464.003 -1456h-19l-55 -53c-18 -18 -34 -36.5 -48 -55.5s-25.167 -38.833 -33.5 -59.5s-12.5 -42.334 -12.5 -65.001c0 -23.333 5 -43.166 15 -59.499s28.333 -24.5 55 -24.5c20.667 0 38.167 3.66699 52.5 11s26.166 14.333 35.499 21l12 -85
c-12.667 -10 -28.834 -19.833 -48.501 -29.5s-44.5 -14.5 -74.5 -14.5c-42.667 0 -77.667 14.167 -105 42.5s-41 70.833 -41 127.5c0 43.333 12.667 86.5 38 129.5s61.666 82.5 108.999 118.5l-125 403h-546l-124 -407h-119l464 1456h106zM321.003 514h480l-240 781z" />
    <glyph glyph-name="aogonek" unicode="&#x105;" horiz-adv-x="964" 
d="M719 2c-5.33301 18.667 -9.49512 41.1709 -12.4951 67.5039s-5.16699 53.166 -6.5 80.499c-14 -22.667 -30.667 -44.167 -50 -64.5s-41.5 -38.333 -66.5 -54s-52.833 -28.167 -83.5 -37.5s-63.667 -14 -99 -14c-44.667 0 -85.167 6.33301 -121.5 19
s-67.5 31.667 -93.5 57s-46 57 -60 95s-21 82.333 -21 133c0 50 8.66699 96.167 26 138.5s43.166 78.833 77.499 109.5s77.166 54.667 128.499 72s111 26 179 26h183v151c0 77.333 -19.167 132.833 -57.5 166.5s-94.5 50.5 -168.5 50.5c-34.667 0 -66.5 -5.33301 -95.5 -16
s-53.833 -25.5 -74.5 -44.5s-36.667 -41.667 -48 -68s-17 -55.166 -17 -86.499l-111 1c0 42 8.33301 82.167 25 120.5s40.334 72.166 71.001 101.499s67.667 52.666 111 69.999s91.333 26 144 26c48.667 0 93.167 -5.83301 133.5 -17.5s75.166 -30.334 104.499 -56.001
s52.166 -59 68.499 -100s24.5 -90.833 24.5 -149.5v-552c0 -18.667 0.666992 -38 2 -58s3.16602 -39.5 5.49902 -58.5s5.33301 -37 9 -54s7.83398 -31.833 12.501 -44.5v-12h-16l-55 -53c-18 -18 -34 -36.5 -48 -55.5s-25.167 -38.833 -33.5 -59.5
s-12.5 -42.334 -12.5 -65.001c0 -23.333 5 -43.166 15 -59.499s28.333 -24.5 55 -24.5c20.667 0 38.167 3.66699 52.5 11s26.166 14.333 35.499 21l12 -85c-12.667 -10 -28.834 -19.833 -48.501 -29.5s-44.5 -14.5 -74.5 -14.5c-42.667 0 -77.667 14.167 -105 42.5
s-41 70.833 -41 127.5c0 43.333 12.667 86.166 38 128.499s61 81.5 107 117.5zM415.005 87.0039c34.667 0 67.167 4.83301 97.5 14.5s57.5 23 81.5 40s44.833 36.833 62.5 59.5s31.834 47 42.501 73v263h-167c-104.667 0 -183.334 -22 -236.001 -66s-79 -103.333 -79 -178
c0 -71.333 17.5 -123.5 52.5 -156.5s83.5 -49.5 145.5 -49.5z" />
    <glyph glyph-name="Cacute" unicode="&#x106;" horiz-adv-x="1158" 
d="M1045 454c-10.667 -163.333 -54.668 -283.165 -132.001 -359.498s-184.333 -114.5 -321 -114.5c-70 0 -133.167 13.667 -189.5 41s-104.166 66.666 -143.499 117.999s-69.666 113.833 -90.999 187.5s-32 156.834 -32 249.501v313c0 91.333 10.667 173.333 32 246
s52 134.167 92 184.5s88.667 89 146 116s122.333 40.5 195 40.5c66 0 125.167 -9.33301 177.5 -28s97.5 -47.334 135.5 -86.001s68 -88 90 -148s35.667 -131.333 41 -214h-116c-5.33301 66.667 -15.666 123.334 -30.999 170.001s-36.5 84.667 -63.5 114
s-59.833 50.666 -98.5 63.999s-83.667 20 -135 20c-56.667 0 -106.667 -10.833 -150 -32.5s-79.833 -52.834 -109.5 -93.501s-52 -90.667 -67 -150s-22.5 -126.333 -22.5 -201v-315c0 -74 7.16699 -141.167 21.5 -201.5s35.666 -111.833 63.999 -154.5
s63.666 -75.667 105.999 -99s91.833 -35 148.5 -35c53.333 0 100 6.16699 140 18.5s73.667 32.833 101 61.5s48.833 66.5 64.5 113.5s26.167 105.167 31.5 174.5h116zM709.999 1867h145l-231 -280h-105z" />
    <glyph glyph-name="cacute" unicode="&#x107;" horiz-adv-x="929" 
d="M490 83c30.667 0 60.334 4 89.001 12s54.167 21.667 76.5 41s40.666 45.166 54.999 77.499s22.5 72.833 24.5 121.5h107c-2.66699 -58 -13.667 -109.167 -33 -153.5s-45 -81.333 -77 -111s-68.667 -52.167 -110 -67.5s-85.333 -23 -132 -23
c-130 0 -227.833 42 -293.5 126s-98.5 208.667 -98.5 374v122c0 165.333 32.833 290 98.5 374s163.167 126 292.5 126c49.333 0 95.166 -7.83301 137.499 -23.5s79 -39.334 110 -71.001s55.833 -71.667 74.5 -120s29 -105.166 31 -170.499h-107
c-2 50 -9.66699 92.833 -23 128.5s-30.833 64.834 -52.5 87.501s-47 39.167 -76 49.5s-60.5 15.5 -94.5 15.5c-51.333 0 -94.666 -8.83301 -129.999 -26.5s-64 -43.5 -86 -77.5s-38 -75.5 -48 -124.5s-15 -104.833 -15 -167.5v-122
c0 -63.333 4.83301 -119.666 14.5 -168.999s25.5 -90.833 47.5 -124.5s50.833 -59.334 86.5 -77.001s79.5 -26.5 131.5 -26.5zM591 1525h145l-231 -280h-105z" />
    <glyph glyph-name="Ccircumflex" unicode="&#x108;" horiz-adv-x="1158" 
d="M1045 454c-10.667 -163.333 -54.668 -283.165 -132.001 -359.498s-184.333 -114.5 -321 -114.5c-70 0 -133.167 13.667 -189.5 41s-104.166 66.666 -143.499 117.999s-69.666 113.833 -90.999 187.5s-32 156.834 -32 249.501v313c0 91.333 10.667 173.333 32 246
s52 134.167 92 184.5s88.667 89 146 116s122.333 40.5 195 40.5c66 0 125.167 -9.33301 177.5 -28s97.5 -47.334 135.5 -86.001s68 -88 90 -148s35.667 -131.333 41 -214h-116c-5.33301 66.667 -15.666 123.334 -30.999 170.001s-36.5 84.667 -63.5 114
s-59.833 50.666 -98.5 63.999s-83.667 20 -135 20c-56.667 0 -106.667 -10.833 -150 -32.5s-79.833 -52.834 -109.5 -93.501s-52 -90.667 -67 -150s-22.5 -126.333 -22.5 -201v-315c0 -74 7.16699 -141.167 21.5 -201.5s35.666 -111.833 63.999 -154.5
s63.666 -75.667 105.999 -99s91.833 -35 148.5 -35c53.333 0 100 6.16699 140 18.5s73.667 32.833 101 61.5s48.833 66.5 64.5 113.5s26.167 105.167 31.5 174.5h116zM827.999 1610v-10h-100l-138 182l-138 -182h-98v12l201 256h69z" />
    <glyph glyph-name="ccircumflex" unicode="&#x109;" horiz-adv-x="929" 
d="M490 83c30.667 0 60.334 4 89.001 12s54.167 21.667 76.5 41s40.666 45.166 54.999 77.499s22.5 72.833 24.5 121.5h107c-2.66699 -58 -13.667 -109.167 -33 -153.5s-45 -81.333 -77 -111s-68.667 -52.167 -110 -67.5s-85.333 -23 -132 -23
c-130 0 -227.833 42 -293.5 126s-98.5 208.667 -98.5 374v122c0 165.333 32.833 290 98.5 374s163.167 126 292.5 126c49.333 0 95.166 -7.83301 137.499 -23.5s79 -39.334 110 -71.001s55.833 -71.667 74.5 -120s29 -105.166 31 -170.499h-107
c-2 50 -9.66699 92.833 -23 128.5s-30.833 64.834 -52.5 87.501s-47 39.167 -76 49.5s-60.5 15.5 -94.5 15.5c-51.333 0 -94.666 -8.83301 -129.999 -26.5s-64 -43.5 -86 -77.5s-38 -75.5 -48 -124.5s-15 -104.833 -15 -167.5v-122
c0 -63.333 4.83301 -119.666 14.5 -168.999s25.5 -90.833 47.5 -124.5s50.833 -59.334 86.5 -77.001s79.5 -26.5 131.5 -26.5zM709 1268v-10h-100l-138 182l-138 -182h-98v12l201 256h69z" />
    <glyph glyph-name="uni010A" unicode="&#x10a;" horiz-adv-x="1158" 
d="M1045 454c-10.667 -163.333 -54.668 -283.165 -132.001 -359.498s-184.333 -114.5 -321 -114.5c-70 0 -133.167 13.667 -189.5 41s-104.166 66.666 -143.499 117.999s-69.666 113.833 -90.999 187.5s-32 156.834 -32 249.501v313c0 91.333 10.667 173.333 32 246
s52 134.167 92 184.5s88.667 89 146 116s122.333 40.5 195 40.5c66 0 125.167 -9.33301 177.5 -28s97.5 -47.334 135.5 -86.001s68 -88 90 -148s35.667 -131.333 41 -214h-116c-5.33301 66.667 -15.666 123.334 -30.999 170.001s-36.5 84.667 -63.5 114
s-59.833 50.666 -98.5 63.999s-83.667 20 -135 20c-56.667 0 -106.667 -10.833 -150 -32.5s-79.833 -52.834 -109.5 -93.501s-52 -90.667 -67 -150s-22.5 -126.333 -22.5 -201v-315c0 -74 7.16699 -141.167 21.5 -201.5s35.666 -111.833 63.999 -154.5
s63.666 -75.667 105.999 -99s91.833 -35 148.5 -35c53.333 0 100 6.16699 140 18.5s73.667 32.833 101 61.5s48.833 66.5 64.5 113.5s26.167 105.167 31.5 174.5h116zM511.999 1723c0 23.333 7.33301 42.833 22 58.5s34.667 23.5 60 23.5c26 0 46.333 -7.83301 61 -23.5
s22 -35.167 22 -58.5c0 -22.667 -7.33301 -41.667 -22 -57s-35 -23 -61 -23c-25.333 0 -45.333 7.66699 -60 23s-22 34.333 -22 57z" />
    <glyph glyph-name="uni010B" unicode="&#x10b;" horiz-adv-x="929" 
d="M490 83c30.667 0 60.334 4 89.001 12s54.167 21.667 76.5 41s40.666 45.166 54.999 77.499s22.5 72.833 24.5 121.5h107c-2.66699 -58 -13.667 -109.167 -33 -153.5s-45 -81.333 -77 -111s-68.667 -52.167 -110 -67.5s-85.333 -23 -132 -23
c-130 0 -227.833 42 -293.5 126s-98.5 208.667 -98.5 374v122c0 165.333 32.833 290 98.5 374s163.167 126 292.5 126c49.333 0 95.166 -7.83301 137.499 -23.5s79 -39.334 110 -71.001s55.833 -71.667 74.5 -120s29 -105.166 31 -170.499h-107
c-2 50 -9.66699 92.833 -23 128.5s-30.833 64.834 -52.5 87.501s-47 39.167 -76 49.5s-60.5 15.5 -94.5 15.5c-51.333 0 -94.666 -8.83301 -129.999 -26.5s-64 -43.5 -86 -77.5s-38 -75.5 -48 -124.5s-15 -104.833 -15 -167.5v-122
c0 -63.333 4.83301 -119.666 14.5 -168.999s25.5 -90.833 47.5 -124.5s50.833 -59.334 86.5 -77.001s79.5 -26.5 131.5 -26.5zM393 1381c0 23.333 7.33301 42.833 22 58.5s34.667 23.5 60 23.5c26 0 46.333 -7.83301 61 -23.5s22 -35.167 22 -58.5
c0 -22.667 -7.33301 -41.667 -22 -57s-35 -23 -61 -23c-25.333 0 -45.333 7.66699 -60 23s-22 34.333 -22 57z" />
    <glyph glyph-name="Ccaron" unicode="&#x10c;" horiz-adv-x="1158" 
d="M1045 454c-10.667 -163.333 -54.668 -283.165 -132.001 -359.498s-184.333 -114.5 -321 -114.5c-70 0 -133.167 13.667 -189.5 41s-104.166 66.666 -143.499 117.999s-69.666 113.833 -90.999 187.5s-32 156.834 -32 249.501v313c0 91.333 10.667 173.333 32 246
s52 134.167 92 184.5s88.667 89 146 116s122.333 40.5 195 40.5c66 0 125.167 -9.33301 177.5 -28s97.5 -47.334 135.5 -86.001s68 -88 90 -148s35.667 -131.333 41 -214h-116c-5.33301 66.667 -15.666 123.334 -30.999 170.001s-36.5 84.667 -63.5 114
s-59.833 50.666 -98.5 63.999s-83.667 20 -135 20c-56.667 0 -106.667 -10.833 -150 -32.5s-79.833 -52.834 -109.5 -93.501s-52 -90.667 -67 -150s-22.5 -126.333 -22.5 -201v-315c0 -74 7.16699 -141.167 21.5 -201.5s35.666 -111.833 63.999 -154.5
s63.666 -75.667 105.999 -99s91.833 -35 148.5 -35c53.333 0 100 6.16699 140 18.5s73.667 32.833 101 61.5s48.833 66.5 64.5 113.5s26.167 105.167 31.5 174.5h116zM588.999 1673l141 193h98v-12l-201 -262h-77l-200 263v11h98z" />
    <glyph glyph-name="ccaron" unicode="&#x10d;" horiz-adv-x="929" 
d="M490 83c30.667 0 60.334 4 89.001 12s54.167 21.667 76.5 41s40.666 45.166 54.999 77.499s22.5 72.833 24.5 121.5h107c-2.66699 -58 -13.667 -109.167 -33 -153.5s-45 -81.333 -77 -111s-68.667 -52.167 -110 -67.5s-85.333 -23 -132 -23
c-130 0 -227.833 42 -293.5 126s-98.5 208.667 -98.5 374v122c0 165.333 32.833 290 98.5 374s163.167 126 292.5 126c49.333 0 95.166 -7.83301 137.499 -23.5s79 -39.334 110 -71.001s55.833 -71.667 74.5 -120s29 -105.166 31 -170.499h-107
c-2 50 -9.66699 92.833 -23 128.5s-30.833 64.834 -52.5 87.501s-47 39.167 -76 49.5s-60.5 15.5 -94.5 15.5c-51.333 0 -94.666 -8.83301 -129.999 -26.5s-64 -43.5 -86 -77.5s-38 -75.5 -48 -124.5s-15 -104.833 -15 -167.5v-122
c0 -63.333 4.83301 -119.666 14.5 -168.999s25.5 -90.833 47.5 -124.5s50.833 -59.334 86.5 -77.001s79.5 -26.5 131.5 -26.5zM470 1330l141 193h98v-12l-201 -262h-77l-200 263v11h98z" />
    <glyph glyph-name="Dcaron" unicode="&#x10e;" horiz-adv-x="1167" 
d="M172 0v1456h343c76.667 0 146.834 -12.667 210.501 -38s118.167 -62.666 163.5 -111.999s80.5 -110.333 105.5 -183s37.5 -156 37.5 -250v-291c0 -94 -12.5 -177.333 -37.5 -250s-60.333 -133.5 -106 -182.5s-100.834 -86.167 -165.501 -111.5s-136.667 -38 -216 -38
h-335zM286 1348l0.00195312 -1242h221c65.333 0 123.5 10.333 174.5 31s94.167 51.167 129.5 91.5s62.166 90.166 80.499 149.499s27.5 127.333 27.5 204v294c0 78 -9.33301 146.333 -28 205s-45.334 107.834 -80.001 147.501s-77 69.5 -127 89.5s-106.333 30 -169 30h-229z
M524.002 1652l141 193h98v-12l-201 -262h-77l-200 263v11h98z" />
    <glyph glyph-name="dcaron" unicode="&#x10f;" horiz-adv-x="1149" 
d="M108 591c0 90.667 8.16602 168.169 24.499 232.502s39.833 117.166 70.5 158.499s67.834 71.666 111.501 90.999s92.5 29 146.5 29c64.667 0 119.5 -14.5 164.5 -43.5s81.833 -69.5 110.5 -121.5v599h111v-1536h-104l-5 139c-28.667 -50 -65.834 -89 -111.501 -117
s-101.167 -42 -166.5 -42c-54 0 -102.667 10.167 -146 30.5s-80.166 51.5 -110.499 93.5s-53.833 95 -70.5 159s-25 139.667 -25 227v101zM220.999 490.002c0 -138.667 20.833 -240.667 62.5 -306s107.834 -98 198.501 -98c32.667 0 62.167 4.16699 88.5 12.5s50 20 71 35
s39.167 32.667 54.5 53s28.666 42.5 39.999 66.5v561c-10 24 -22.333 47 -37 69s-32.167 41.167 -52.5 57.5s-44 29.5 -71 39.5s-57.833 15 -92.5 15c-91.333 0 -157.833 -32.833 -199.5 -98.5s-62.5 -167.5 -62.5 -305.5v-101zM1123 1420
c0 -61.333 -10.8311 -120.5 -32.498 -177.5s-51.834 -105.5 -90.501 -145.5l-65 53c25.333 41.333 44.666 83 57.999 125s20 89.333 20 142v119h110v-116z" />
    <glyph glyph-name="Dcroat" unicode="&#x110;" horiz-adv-x="1197" 
d="M202 0v688.999h-128v104h128v663h343c76.667 0 146.834 -12.667 210.501 -38s118.167 -62.666 163.5 -111.999s80.5 -110.333 105.5 -183s37.5 -156 37.5 -250v-291c0 -94 -12.5 -177.333 -37.5 -250s-60.333 -133.5 -106 -182.5s-100.834 -86.167 -165.501 -111.5
s-136.667 -38 -216 -38h-335zM592 688.999h-275.998v-583h221c65.333 0 123.5 10.333 174.5 31s94.167 51.167 129.5 91.5s62.166 90.166 80.499 149.499s27.5 127.333 27.5 204v294c0 78 -9.33301 146.333 -28 205s-45.334 107.834 -80.001 147.501s-77 69.5 -127 89.5
s-106.333 30 -169 30h-229v-555h276v-104z" />
    <glyph glyph-name="dcroat" unicode="&#x111;" horiz-adv-x="1029" 
d="M996 1257l-149.001 0.00195312v-1257h-104l-5 139c-28.667 -50 -65.834 -89 -111.501 -117s-101.167 -42 -166.5 -42c-54 0 -102.667 10.167 -146 30.5s-80.166 51.5 -110.499 93.5s-53.833 95 -70.5 159s-25 139.667 -25 227v101c0 90.667 8.16699 168.167 24.5 232.5
s39.833 117.166 70.5 158.499s67.834 71.666 111.501 90.999s92.5 29 146.5 29c64.667 0 119.5 -14.5 164.5 -43.5s81.833 -69.5 110.5 -121.5v320h-258v104h258v175h111v-175h149v-104zM220.999 490.002c0 -138.667 20.833 -240.667 62.5 -306s107.834 -98 198.501 -98
c32.667 0 62.167 4.16699 88.5 12.5s50 20 71 35s39.167 32.667 54.5 53s28.666 42.5 39.999 66.5v561c-10 24 -22.333 47 -37 69s-32.167 41.167 -52.5 57.5s-44 29.5 -71 39.5s-57.833 15 -92.5 15c-91.333 0 -157.833 -32.833 -199.5 -98.5s-62.5 -167.5 -62.5 -305.5
v-101z" />
    <glyph glyph-name="Emacron" unicode="&#x112;" horiz-adv-x="1018" 
d="M851 697h-565v-591h650v-106h-764v1456h759v-108h-645v-545h565v-106zM824 1687h-570v99h570v-99z" />
    <glyph glyph-name="emacron" unicode="&#x113;" horiz-adv-x="937" 
d="M505 -20c-60 0 -115.002 9.83203 -165.002 29.499s-93.167 49.667 -129.5 90s-64.5 91.166 -84.5 152.499s-30 134 -30 218v123c0 90.667 10.667 168.167 32 232.5s49.833 117 85.5 158s77 71 124 90s96.5 28.5 148.5 28.5c118.667 0 208.834 -39.167 270.501 -117.5
s92.5 -198.166 92.5 -359.499v-94h-643v-61c0 -66 7.33301 -123.333 22 -172s35.334 -89 62.001 -121s58.667 -55.833 96 -71.5s78.666 -23.5 123.999 -23.5c56 0 104.667 9.5 146 28.5s79 48.5 113 88.5l58 -74c-14.667 -20 -31.834 -38.667 -51.501 -56
s-42.667 -32.666 -69 -45.999s-56.166 -23.833 -89.499 -31.5s-70.666 -11.5 -111.999 -11.5zM485.998 997.999c-39.333 0 -75.5 -6.66699 -108.5 -20s-61.667 -34.5 -86 -63.5s-43.833 -66.5 -58.5 -112.5s-23.334 -101.667 -26.001 -167h531v29
c-1.33301 52.667 -7.33301 99.667 -18 141s-26.167 76.333 -46.5 105s-46.166 50.5 -77.499 65.5s-68 22.5 -110 22.5zM778.998 1365h-570v99h570v-99z" />
    <glyph glyph-name="Ebreve" unicode="&#x114;" horiz-adv-x="1018" 
d="M851 697h-565v-591h650v-106h-764v1456h759v-108h-645v-545h565v-106zM829 1814c0 -38 -6.66699 -72.668 -20 -104.001s-32.333 -58.5 -57 -81.5s-55 -40.833 -91 -53.5s-76.333 -19 -121 -19s-84.834 6.33301 -120.501 19s-66 30.5 -91 53.5s-44.167 50.167 -57.5 81.5
s-20 66 -20 104h102c0 -23.333 3.33301 -45.166 10 -65.499s17.334 -38.333 32.001 -54s34 -28 58 -37s53 -13.5 87 -13.5c33.333 0 61.833 4.66699 85.5 14s43 21.666 58 36.999s26 33.333 33 54s10.5 42.334 10.5 65.001h102z" />
    <glyph glyph-name="ebreve" unicode="&#x115;" horiz-adv-x="937" 
d="M505 -20c-60 0 -115.002 9.83203 -165.002 29.499s-93.167 49.667 -129.5 90s-64.5 91.166 -84.5 152.499s-30 134 -30 218v123c0 90.667 10.667 168.167 32 232.5s49.833 117 85.5 158s77 71 124 90s96.5 28.5 148.5 28.5c118.667 0 208.834 -39.167 270.501 -117.5
s92.5 -198.166 92.5 -359.499v-94h-643v-61c0 -66 7.33301 -123.333 22 -172s35.334 -89 62.001 -121s58.667 -55.833 96 -71.5s78.666 -23.5 123.999 -23.5c56 0 104.667 9.5 146 28.5s79 48.5 113 88.5l58 -74c-14.667 -20 -31.834 -38.667 -51.501 -56
s-42.667 -32.666 -69 -45.999s-56.166 -23.833 -89.499 -31.5s-70.666 -11.5 -111.999 -11.5zM485.998 997.999c-39.333 0 -75.5 -6.66699 -108.5 -20s-61.667 -34.5 -86 -63.5s-43.833 -66.5 -58.5 -112.5s-23.334 -101.667 -26.001 -167h531v29
c-1.33301 52.667 -7.33301 99.667 -18 141s-26.167 76.333 -46.5 105s-46.166 50.5 -77.499 65.5s-68 22.5 -110 22.5zM783.998 1492c0 -38 -6.66699 -72.668 -20 -104.001s-32.333 -58.5 -57 -81.5s-55 -40.833 -91 -53.5s-76.333 -19 -121 -19
s-84.834 6.33301 -120.501 19s-66 30.5 -91 53.5s-44.167 50.167 -57.5 81.5s-20 66 -20 104h102c0 -23.333 3.33301 -45.166 10 -65.499s17.334 -38.333 32.001 -54s34 -28 58 -37s53 -13.5 87 -13.5c33.333 0 61.833 4.66699 85.5 14s43 21.666 58 36.999s26 33.333 33 54
s10.5 42.334 10.5 65.001h102z" />
    <glyph glyph-name="Edotaccent" unicode="&#x116;" horiz-adv-x="1018" 
d="M851 697h-565v-591h650v-106h-764v1456h759v-108h-645v-545h565v-106zM462 1702c0 23.333 7.33301 42.833 22 58.5s34.667 23.5 60 23.5c26 0 46.333 -7.83301 61 -23.5s22 -35.167 22 -58.5c0 -22.667 -7.33301 -41.667 -22 -57s-35 -23 -61 -23
c-25.333 0 -45.333 7.66699 -60 23s-22 34.333 -22 57z" />
    <glyph glyph-name="edotaccent" unicode="&#x117;" horiz-adv-x="937" 
d="M505 -20c-60 0 -115.002 9.83203 -165.002 29.499s-93.167 49.667 -129.5 90s-64.5 91.166 -84.5 152.499s-30 134 -30 218v123c0 90.667 10.667 168.167 32 232.5s49.833 117 85.5 158s77 71 124 90s96.5 28.5 148.5 28.5c118.667 0 208.834 -39.167 270.501 -117.5
s92.5 -198.166 92.5 -359.499v-94h-643v-61c0 -66 7.33301 -123.333 22 -172s35.334 -89 62.001 -121s58.667 -55.833 96 -71.5s78.666 -23.5 123.999 -23.5c56 0 104.667 9.5 146 28.5s79 48.5 113 88.5l58 -74c-14.667 -20 -31.834 -38.667 -51.501 -56
s-42.667 -32.666 -69 -45.999s-56.166 -23.833 -89.499 -31.5s-70.666 -11.5 -111.999 -11.5zM485.998 997.999c-39.333 0 -75.5 -6.66699 -108.5 -20s-61.667 -34.5 -86 -63.5s-43.833 -66.5 -58.5 -112.5s-23.334 -101.667 -26.001 -167h531v29
c-1.33301 52.667 -7.33301 99.667 -18 141s-26.167 76.333 -46.5 105s-46.166 50.5 -77.499 65.5s-68 22.5 -110 22.5zM416.998 1381c0 23.333 7.33301 42.833 22 58.5s34.667 23.5 60 23.5c26 0 46.333 -7.83301 61 -23.5s22 -35.167 22 -58.5
c0 -22.667 -7.33301 -41.667 -22 -57s-35 -23 -61 -23c-25.333 0 -45.333 7.66699 -60 23s-22 34.333 -22 57z" />
    <glyph glyph-name="Eogonek" unicode="&#x118;" horiz-adv-x="1018" 
d="M851 697h-564.998v-591h650v-106h-56l-55 -53c-18 -18 -34 -36.5 -48 -55.5s-25.167 -38.833 -33.5 -59.5s-12.5 -42.334 -12.5 -65.001c0 -23.333 5 -43.166 15 -59.499s28.333 -24.5 55 -24.5c20.667 0 38.167 3.66699 52.5 11s26.166 14.333 35.499 21l12 -85
c-12.667 -10 -28.834 -19.833 -48.501 -29.5s-44.5 -14.5 -74.5 -14.5c-42.667 0 -77.667 14.167 -105 42.5s-41 70.833 -41 127.5c0 42.667 12.167 85 36.5 127s59.5 81 105.5 117h-602v1456h759v-108h-645v-545h565v-106z" />
    <glyph glyph-name="eogonek" unicode="&#x119;" horiz-adv-x="937" 
d="M505 -20c-60 0 -114.998 9.83398 -164.998 29.501s-93.167 49.667 -129.5 90s-64.5 91.166 -84.5 152.499s-30 134 -30 218v123c0 90.667 10.667 168.167 32 232.5s49.833 117 85.5 158s77 71 124 90s96.5 28.5 148.5 28.5c118.667 0 208.834 -39.167 270.501 -117.5
s92.5 -198.166 92.5 -359.499v-94h-643v-61c0 -66 7.33301 -123.333 22 -172s35.334 -89 62.001 -121s58.667 -55.833 96 -71.5s78.666 -23.5 123.999 -23.5c56 0 104.667 9.5 146 28.5s79 48.5 113 88.5l58 -74c-17.333 -23.333 -38.5 -45.166 -63.5 -65.499
s-54.833 -37.166 -89.5 -50.499c-15.333 -14.667 -29.833 -29.834 -43.5 -45.501s-25.834 -31.834 -36.501 -48.501s-19 -33.834 -25 -51.501s-9 -36.167 -9 -55.5c0 -23.333 5 -43.166 15 -59.499s28.333 -24.5 55 -24.5c20.667 0 38.167 3.66699 52.5 11
s26.166 14.333 35.499 21l12 -85c-12.667 -10 -28.834 -19.833 -48.501 -29.5s-44.5 -14.5 -74.5 -14.5c-42.667 0 -77.667 14.167 -105 42.5s-41 70.833 -41 127.5c0 63.333 26 124.666 78 183.999c-5.33301 0 -11 -0.166992 -17 -0.5s-11.667 -0.5 -17 -0.5z
M486.002 998.001c-39.333 0 -75.5 -6.66699 -108.5 -20s-61.667 -34.5 -86 -63.5s-43.833 -66.5 -58.5 -112.5s-23.334 -101.667 -26.001 -167h531v29c-1.33301 52.667 -7.33301 99.667 -18 141s-26.167 76.333 -46.5 105s-46.166 50.5 -77.499 65.5s-68 22.5 -110 22.5z
" />
    <glyph glyph-name="Ecaron" unicode="&#x11a;" horiz-adv-x="1018" 
d="M851 697h-565v-591h650v-106h-764v1456h759v-108h-645v-545h565v-106zM539 1652l141 193h98v-12l-201 -262h-77l-200 263v11h98z" />
    <glyph glyph-name="ecaron" unicode="&#x11b;" horiz-adv-x="937" 
d="M505 -20c-60 0 -115.002 9.83203 -165.002 29.499s-93.167 49.667 -129.5 90s-64.5 91.166 -84.5 152.499s-30 134 -30 218v123c0 90.667 10.667 168.167 32 232.5s49.833 117 85.5 158s77 71 124 90s96.5 28.5 148.5 28.5c118.667 0 208.834 -39.167 270.501 -117.5
s92.5 -198.166 92.5 -359.499v-94h-643v-61c0 -66 7.33301 -123.333 22 -172s35.334 -89 62.001 -121s58.667 -55.833 96 -71.5s78.666 -23.5 123.999 -23.5c56 0 104.667 9.5 146 28.5s79 48.5 113 88.5l58 -74c-14.667 -20 -31.834 -38.667 -51.501 -56
s-42.667 -32.666 -69 -45.999s-56.166 -23.833 -89.499 -31.5s-70.666 -11.5 -111.999 -11.5zM485.998 997.999c-39.333 0 -75.5 -6.66699 -108.5 -20s-61.667 -34.5 -86 -63.5s-43.833 -66.5 -58.5 -112.5s-23.334 -101.667 -26.001 -167h531v29
c-1.33301 52.667 -7.33301 99.667 -18 141s-26.167 76.333 -46.5 105s-46.166 50.5 -77.499 65.5s-68 22.5 -110 22.5zM493.998 1330l141 193h98v-12l-201 -262h-77l-200 263v11h98z" />
    <glyph glyph-name="Gcircumflex" unicode="&#x11c;" horiz-adv-x="1215" 
d="M1059 169c-11.333 -14.667 -27.668 -32.666 -49.001 -53.999s-49.166 -42 -83.499 -62s-75.833 -37.167 -124.5 -51.5s-105.334 -21.5 -170.001 -21.5c-72.667 0 -138.834 12.5 -198.501 37.5s-110.667 62.167 -153 111.5s-75.166 110.5 -98.499 183.5
s-35 157.5 -35 253.5v334c0 94 10.5 177 31.5 249s51.5 132.167 91.5 180.5s89 84.833 147 109.5s124 37 198 37c68.667 0 129.5 -9.66699 182.5 -29s98 -47.333 135 -84s66 -81.834 87 -135.501s33.833 -114.5 38.5 -182.5h-114c-5.33301 50 -15.166 95 -29.499 135
s-34.666 74 -60.999 102s-59 49.333 -98 64s-85.5 22 -139.5 22c-118.667 0 -207.5 -39.5 -266.5 -118.5s-88.5 -194.833 -88.5 -347.5v-336c0 -78.667 8.66699 -147.834 26 -207.501s42 -109.667 74 -150s70.833 -70.833 116.5 -91.5s97.167 -31 154.5 -31
c46 0 86.667 4.66699 122 14s65.666 20.5 90.999 33.5s46 26.333 62 40s28.333 24.834 37 33.501v379h-319v107h434v-524zM832.998 1610v-10h-100l-138 182l-138 -182h-98v12l201 256h69z" />
    <glyph glyph-name="gcircumflex" unicode="&#x11d;" horiz-adv-x="996" 
d="M109 591c0 90.667 7.99707 168.167 23.9971 232.5s39.167 117.166 69.5 158.499s67.333 71.666 111 90.999s92.834 29 147.501 29c66 0 121.667 -15 167 -45s82.333 -72 111 -126l6 151h103v-1108c0 -70.667 -8.5 -131.5 -25.5 -182.5s-41.333 -93 -73 -126
s-69.834 -57.333 -114.501 -73s-94.667 -23.5 -150 -23.5c-27.333 0 -55.666 3.33301 -84.999 10s-58.166 16.5 -86.499 29.5s-55.166 28.667 -80.499 47s-47 39.5 -65 63.5l52 80c37.333 -42.667 77.666 -74.5 120.999 -95.5s88.666 -31.5 135.999 -31.5
c42 0 79.167 5.33301 111.5 16s59.333 27.834 81 51.501s38.167 54.334 49.5 92.001s17 83.5 17 137.5v166c-28.667 -48.667 -65.667 -86.667 -111 -114s-100.333 -41 -165 -41c-54 0 -102.667 10.167 -146 30.5s-80.166 51.5 -110.499 93.5s-53.666 95 -69.999 159
s-24.5 139.667 -24.5 227v101zM220.997 490c0 -138.667 20.998 -240.668 62.998 -306.001s108 -98 198 -98c33.333 0 63.333 4.33301 90 13s50.334 20.667 71.001 36s38.667 33.333 54 54s28.333 43.334 39 68.001v553c-10 24.667 -22.167 48.167 -36.5 70.5
s-31.666 42 -51.999 59s-44 30.5 -71 40.5s-57.833 15 -92.5 15c-91.333 0 -158 -32.833 -200 -98.5s-63 -167.5 -63 -305.5v-101zM727.995 1268v-10h-100l-138 182l-138 -182h-98v12l201 256h69z" />
    <glyph glyph-name="Gbreve" unicode="&#x11e;" horiz-adv-x="1215" 
d="M1059 169c-11.333 -14.667 -27.668 -32.666 -49.001 -53.999s-49.166 -42 -83.499 -62s-75.833 -37.167 -124.5 -51.5s-105.334 -21.5 -170.001 -21.5c-72.667 0 -138.834 12.5 -198.501 37.5s-110.667 62.167 -153 111.5s-75.166 110.5 -98.499 183.5
s-35 157.5 -35 253.5v334c0 94 10.5 177 31.5 249s51.5 132.167 91.5 180.5s89 84.833 147 109.5s124 37 198 37c68.667 0 129.5 -9.66699 182.5 -29s98 -47.333 135 -84s66 -81.834 87 -135.501s33.833 -114.5 38.5 -182.5h-114c-5.33301 50 -15.166 95 -29.499 135
s-34.666 74 -60.999 102s-59 49.333 -98 64s-85.5 22 -139.5 22c-118.667 0 -207.5 -39.5 -266.5 -118.5s-88.5 -194.833 -88.5 -347.5v-336c0 -78.667 8.66699 -147.834 26 -207.501s42 -109.667 74 -150s70.833 -70.833 116.5 -91.5s97.167 -31 154.5 -31
c46 0 86.667 4.66699 122 14s65.666 20.5 90.999 33.5s46 26.333 62 40s28.333 24.834 37 33.501v379h-319v107h434v-524zM883.998 1835c0 -38 -6.66699 -72.668 -20 -104.001s-32.333 -58.5 -57 -81.5s-55 -40.833 -91 -53.5s-76.333 -19 -121 -19
s-84.834 6.33301 -120.501 19s-66 30.5 -91 53.5s-44.167 50.167 -57.5 81.5s-20 66 -20 104h102c0 -23.333 3.33301 -45.166 10 -65.499s17.334 -38.333 32.001 -54s34 -28 58 -37s53 -13.5 87 -13.5c33.333 0 61.833 4.66699 85.5 14s43 21.666 58 36.999s26 33.333 33 54
s10.5 42.334 10.5 65.001h102z" />
    <glyph glyph-name="gbreve" unicode="&#x11f;" horiz-adv-x="996" 
d="M109 591c0 90.667 7.99707 168.167 23.9971 232.5s39.167 117.166 69.5 158.499s67.333 71.666 111 90.999s92.834 29 147.501 29c66 0 121.667 -15 167 -45s82.333 -72 111 -126l6 151h103v-1108c0 -70.667 -8.5 -131.5 -25.5 -182.5s-41.333 -93 -73 -126
s-69.834 -57.333 -114.501 -73s-94.667 -23.5 -150 -23.5c-27.333 0 -55.666 3.33301 -84.999 10s-58.166 16.5 -86.499 29.5s-55.166 28.667 -80.499 47s-47 39.5 -65 63.5l52 80c37.333 -42.667 77.666 -74.5 120.999 -95.5s88.666 -31.5 135.999 -31.5
c42 0 79.167 5.33301 111.5 16s59.333 27.834 81 51.501s38.167 54.334 49.5 92.001s17 83.5 17 137.5v166c-28.667 -48.667 -65.667 -86.667 -111 -114s-100.333 -41 -165 -41c-54 0 -102.667 10.167 -146 30.5s-80.166 51.5 -110.499 93.5s-53.666 95 -69.999 159
s-24.5 139.667 -24.5 227v101zM220.997 490c0 -138.667 20.998 -240.668 62.998 -306.001s108 -98 198 -98c33.333 0 63.333 4.33301 90 13s50.334 20.667 71.001 36s38.667 33.333 54 54s28.333 43.334 39 68.001v553c-10 24.667 -22.167 48.167 -36.5 70.5
s-31.666 42 -51.999 59s-44 30.5 -71 40.5s-57.833 15 -92.5 15c-91.333 0 -158 -32.833 -200 -98.5s-63 -167.5 -63 -305.5v-101zM778.995 1492c0 -38 -6.66699 -72.668 -20 -104.001s-32.333 -58.5 -57 -81.5s-55 -40.833 -91 -53.5s-76.333 -19 -121 -19
s-84.834 6.33301 -120.501 19s-66 30.5 -91 53.5s-44.167 50.167 -57.5 81.5s-20 66 -20 104h102c0 -23.333 3.33301 -45.166 10 -65.499s17.334 -38.333 32.001 -54s34 -28 58 -37s53 -13.5 87 -13.5c33.333 0 61.833 4.66699 85.5 14s43 21.666 58 36.999s26 33.333 33 54
s10.5 42.334 10.5 65.001h102z" />
    <glyph glyph-name="uni0120" unicode="&#x120;" horiz-adv-x="1215" 
d="M1059 169c-11.333 -14.667 -27.668 -32.666 -49.001 -53.999s-49.166 -42 -83.499 -62s-75.833 -37.167 -124.5 -51.5s-105.334 -21.5 -170.001 -21.5c-72.667 0 -138.834 12.5 -198.501 37.5s-110.667 62.167 -153 111.5s-75.166 110.5 -98.499 183.5
s-35 157.5 -35 253.5v334c0 94 10.5 177 31.5 249s51.5 132.167 91.5 180.5s89 84.833 147 109.5s124 37 198 37c68.667 0 129.5 -9.66699 182.5 -29s98 -47.333 135 -84s66 -81.834 87 -135.501s33.833 -114.5 38.5 -182.5h-114c-5.33301 50 -15.166 95 -29.499 135
s-34.666 74 -60.999 102s-59 49.333 -98 64s-85.5 22 -139.5 22c-118.667 0 -207.5 -39.5 -266.5 -118.5s-88.5 -194.833 -88.5 -347.5v-336c0 -78.667 8.66699 -147.834 26 -207.501s42 -109.667 74 -150s70.833 -70.833 116.5 -91.5s97.167 -31 154.5 -31
c46 0 86.667 4.66699 122 14s65.666 20.5 90.999 33.5s46 26.333 62 40s28.333 24.834 37 33.501v379h-319v107h434v-524zM516.998 1723c0 23.333 7.33301 42.833 22 58.5s34.667 23.5 60 23.5c26 0 46.333 -7.83301 61 -23.5s22 -35.167 22 -58.5
c0 -22.667 -7.33301 -41.667 -22 -57s-35 -23 -61 -23c-25.333 0 -45.333 7.66699 -60 23s-22 34.333 -22 57z" />
    <glyph glyph-name="uni0121" unicode="&#x121;" horiz-adv-x="996" 
d="M109 591c0 90.667 7.99707 168.167 23.9971 232.5s39.167 117.166 69.5 158.499s67.333 71.666 111 90.999s92.834 29 147.501 29c66 0 121.667 -15 167 -45s82.333 -72 111 -126l6 151h103v-1108c0 -70.667 -8.5 -131.5 -25.5 -182.5s-41.333 -93 -73 -126
s-69.834 -57.333 -114.501 -73s-94.667 -23.5 -150 -23.5c-27.333 0 -55.666 3.33301 -84.999 10s-58.166 16.5 -86.499 29.5s-55.166 28.667 -80.499 47s-47 39.5 -65 63.5l52 80c37.333 -42.667 77.666 -74.5 120.999 -95.5s88.666 -31.5 135.999 -31.5
c42 0 79.167 5.33301 111.5 16s59.333 27.834 81 51.501s38.167 54.334 49.5 92.001s17 83.5 17 137.5v166c-28.667 -48.667 -65.667 -86.667 -111 -114s-100.333 -41 -165 -41c-54 0 -102.667 10.167 -146 30.5s-80.166 51.5 -110.499 93.5s-53.666 95 -69.999 159
s-24.5 139.667 -24.5 227v101zM220.997 490c0 -138.667 20.998 -240.668 62.998 -306.001s108 -98 198 -98c33.333 0 63.333 4.33301 90 13s50.334 20.667 71.001 36s38.667 33.333 54 54s28.333 43.334 39 68.001v553c-10 24.667 -22.167 48.167 -36.5 70.5
s-31.666 42 -51.999 59s-44 30.5 -71 40.5s-57.833 15 -92.5 15c-91.333 0 -158 -32.833 -200 -98.5s-63 -167.5 -63 -305.5v-101zM411.995 1381c0 23.333 7.33301 42.833 22 58.5s34.667 23.5 60 23.5c26 0 46.333 -7.83301 61 -23.5s22 -35.167 22 -58.5
c0 -22.667 -7.33301 -41.667 -22 -57s-35 -23 -61 -23c-25.333 0 -45.333 7.66699 -60 23s-22 34.333 -22 57z" />
    <glyph glyph-name="Gcommaaccent" unicode="&#x122;" horiz-adv-x="1215" 
d="M1059 169c-11.333 -14.667 -27.668 -32.666 -49.001 -53.999s-49.166 -42 -83.499 -62s-75.833 -37.167 -124.5 -51.5s-105.334 -21.5 -170.001 -21.5c-72.667 0 -138.834 12.5 -198.501 37.5s-110.667 62.167 -153 111.5s-75.166 110.5 -98.499 183.5
s-35 157.5 -35 253.5v334c0 94 10.5 177 31.5 249s51.5 132.167 91.5 180.5s89 84.833 147 109.5s124 37 198 37c68.667 0 129.5 -9.66699 182.5 -29s98 -47.333 135 -84s66 -81.834 87 -135.501s33.833 -114.5 38.5 -182.5h-114c-5.33301 50 -15.166 95 -29.499 135
s-34.666 74 -60.999 102s-59 49.333 -98 64s-85.5 22 -139.5 22c-118.667 0 -207.5 -39.5 -266.5 -118.5s-88.5 -194.833 -88.5 -347.5v-336c0 -78.667 8.66699 -147.834 26 -207.501s42 -109.667 74 -150s70.833 -70.833 116.5 -91.5s97.167 -31 154.5 -31
c46 0 86.667 4.66699 122 14s65.666 20.5 90.999 33.5s46 26.333 62 40s28.333 24.834 37 33.501v379h-319v107h434v-524zM656.998 -186.999c0 -52.667 -8.5 -104.167 -25.5 -154.5s-42.5 -92.833 -76.5 -127.5l-65 52c20.667 36 36 71.5 46 106.5s15 75.167 15 120.5v80
h106v-77z" />
    <glyph glyph-name="gcommaaccent" unicode="&#x123;" horiz-adv-x="996" 
d="M109 591c0 90.667 7.99707 168.167 23.9971 232.5s39.167 117.166 69.5 158.499s67.333 71.666 111 90.999s92.834 29 147.501 29c66 0 121.667 -15 167 -45s82.333 -72 111 -126l6 151h103v-1108c0 -70.667 -8.5 -131.5 -25.5 -182.5s-41.333 -93 -73 -126
s-69.834 -57.333 -114.501 -73s-94.667 -23.5 -150 -23.5c-27.333 0 -55.666 3.33301 -84.999 10s-58.166 16.5 -86.499 29.5s-55.166 28.667 -80.499 47s-47 39.5 -65 63.5l52 80c37.333 -42.667 77.666 -74.5 120.999 -95.5s88.666 -31.5 135.999 -31.5
c42 0 79.167 5.33301 111.5 16s59.333 27.834 81 51.501s38.167 54.334 49.5 92.001s17 83.5 17 137.5v166c-28.667 -48.667 -65.667 -86.667 -111 -114s-100.333 -41 -165 -41c-54 0 -102.667 10.167 -146 30.5s-80.166 51.5 -110.499 93.5s-53.666 95 -69.999 159
s-24.5 139.667 -24.5 227v101zM220.997 490c0 -138.667 20.998 -240.668 62.998 -306.001s108 -98 198 -98c33.333 0 63.333 4.33301 90 13s50.334 20.667 71.001 36s38.667 33.333 54 54s28.333 43.334 39 68.001v553c-10 24.667 -22.167 48.167 -36.5 70.5
s-31.666 42 -51.999 59s-44 30.5 -71 40.5s-57.833 15 -92.5 15c-91.333 0 -158 -32.833 -200 -98.5s-63 -167.5 -63 -305.5v-101zM430.995 1392c0 24.667 2.66504 49 7.99805 73s12.333 46.5 21 67.5s18.334 40.5 29.001 58.5s21.334 33.667 32.001 47l69 -50
c-17.333 -36 -29.833 -69 -37.5 -99s-11.5 -63 -11.5 -99v-126h-110v128z" />
    <glyph glyph-name="Hcircumflex" unicode="&#x124;" horiz-adv-x="1259" 
d="M1085 0h-115v697h-684v-697h-114v1456h114v-653h684v653h115v-1456zM857 1589v-10h-100l-138 182l-138 -182h-98v12l201 256h69z" />
    <glyph glyph-name="hcircumflex" unicode="&#x125;" horiz-adv-x="985" 
d="M259 912c32 58 72.5 104.169 121.5 138.502s105.167 51.5 168.5 51.5c45.333 0 85.833 -7.33301 121.5 -22s66 -38 91 -70s44.167 -73.167 57.5 -123.5s20 -111.166 20 -182.499v-704h-110v705c0 55.333 -4.83301 101.666 -14.5 138.999s-23.5 67.166 -41.5 89.499
s-39.833 38.333 -65.5 48s-54.5 14.5 -86.5 14.5c-33.333 0 -63.833 -6.83301 -91.5 -20.5s-52.5 -31.834 -74.5 -54.501s-41 -48.667 -57 -78s-29 -60 -39 -92v-751h-111v1536h111v-624zM668 1588v-10h-100l-138 182l-138 -182h-98v12l201 256h69z" />
    <glyph glyph-name="Hbar" unicode="&#x126;" horiz-adv-x="1230" 
d="M1069 1125h119v-99h-119v-1026h-115v697h-684v-697h-114v1026h-114v99h114v331h114v-331h684v331h115v-331zM270 803h684v223h-684v-223z" />
    <glyph glyph-name="hbar" unicode="&#x127;" horiz-adv-x="1015" 
d="M563 1257l-274 0.00195312v-345c32 58 72.5 104.167 121.5 138.5s105.167 51.5 168.5 51.5c45.333 0 85.833 -7.33301 121.5 -22s66 -38 91 -70s44.167 -73.167 57.5 -123.5s20 -111.166 20 -182.499v-704h-110v705c0 55.333 -4.83301 101.666 -14.5 138.999
s-23.5 67.166 -41.5 89.499s-39.833 38.333 -65.5 48s-54.5 14.5 -86.5 14.5c-33.333 0 -63.833 -6.83301 -91.5 -20.5s-52.5 -31.834 -74.5 -54.501s-41 -48.667 -57 -78s-29 -60 -39 -92v-751h-111v1257h-133v104h133v175h111v-175h274v-104z" />
    <glyph glyph-name="Itilde" unicode="&#x128;" horiz-adv-x="500" 
d="M307 0h-114v1456h114v-1456zM539 1816c0 -32 -4.33301 -61.332 -13 -87.999s-20.5 -49.334 -35.5 -68.001s-32.5 -33.167 -52.5 -43.5s-41.667 -15.5 -65 -15.5c-29.333 0 -53.5 5.66699 -72.5 17s-36.333 24 -52 38s-31.667 26.667 -48 38s-36.5 17 -60.5 17
c-25.333 0 -46.666 -10.5 -63.999 -31.5s-26 -49.833 -26 -86.5l-81 3c0 32 4.16699 61.167 12.5 87.5s20 48.833 35 67.5s32.667 33.167 53 43.5s42.166 15.5 65.499 15.5c26 0 48.5 -5.66699 67.5 -17s37 -23.833 54 -37.5s34 -26.167 51 -37.5s37.167 -17 60.5 -17
c25.333 0 46.833 11 64.5 33s26.5 51.333 26.5 88z" />
    <glyph glyph-name="itilde" unicode="&#x129;" horiz-adv-x="431" 
d="M270 0h-111v1082h111v-1082zM506 1483c0 -32 -4.33301 -61.332 -13 -87.999s-20.5 -49.334 -35.5 -68.001s-32.5 -33.167 -52.5 -43.5s-41.667 -15.5 -65 -15.5c-29.333 0 -53.5 5.66699 -72.5 17s-36.333 24 -52 38s-31.667 26.667 -48 38s-36.5 17 -60.5 17
c-25.333 0 -46.666 -10.5 -63.999 -31.5s-26 -49.833 -26 -86.5l-81 3c0 32 4.16699 61.167 12.5 87.5s20 48.833 35 67.5s32.667 33.167 53 43.5s42.166 15.5 65.499 15.5c26 0 48.5 -5.66699 67.5 -17s37 -23.833 54 -37.5s34 -26.167 51 -37.5s37.167 -17 60.5 -17
c25.333 0 46.833 11 64.5 33s26.5 51.333 26.5 88z" />
    <glyph glyph-name="Imacron" unicode="&#x12a;" horiz-adv-x="500" 
d="M307 0h-114v1456h114v-1456zM535 1687h-570v99h570v-99z" />
    <glyph glyph-name="imacron" unicode="&#x12b;" horiz-adv-x="431" 
d="M270 0h-111v1082h111v-1082zM502 1354h-570v99h570v-99z" />
    <glyph glyph-name="Ibreve" unicode="&#x12c;" horiz-adv-x="500" 
d="M307 0h-114v1456h114v-1456zM540 1814c0 -38 -6.66699 -72.668 -20 -104.001s-32.333 -58.5 -57 -81.5s-55 -40.833 -91 -53.5s-76.333 -19 -121 -19s-84.834 6.33301 -120.501 19s-66 30.5 -91 53.5s-44.167 50.167 -57.5 81.5s-20 66 -20 104h102
c0 -23.333 3.33301 -45.166 10 -65.499s17.334 -38.333 32.001 -54s34 -28 58 -37s53 -13.5 87 -13.5c33.333 0 61.833 4.66699 85.5 14s43 21.666 58 36.999s26 33.333 33 54s10.5 42.334 10.5 65.001h102z" />
    <glyph glyph-name="ibreve" unicode="&#x12d;" horiz-adv-x="431" 
d="M270 0h-111v1082h111v-1082zM507 1481c0 -38 -6.66699 -72.668 -20 -104.001s-32.333 -58.5 -57 -81.5s-55 -40.833 -91 -53.5s-76.333 -19 -121 -19s-84.834 6.33301 -120.501 19s-66 30.5 -91 53.5s-44.167 50.167 -57.5 81.5s-20 66 -20 104h102
c0 -23.333 3.33301 -45.166 10 -65.499s17.334 -38.333 32.001 -54s34 -28 58 -37s53 -13.5 87 -13.5c33.333 0 61.833 4.66699 85.5 14s43 21.666 58 36.999s26 33.333 33 54s10.5 42.334 10.5 65.001h102z" />
    <glyph glyph-name="Iogonek" unicode="&#x12e;" horiz-adv-x="500" 
d="M307 0h-18.9971l-55 -53c-18 -18 -34 -36.5 -48 -55.5s-25.167 -38.833 -33.5 -59.5s-12.5 -42.334 -12.5 -65.001c0 -23.333 5 -43.166 15 -59.499s28.333 -24.5 55 -24.5c20.667 0 38.167 3.66699 52.5 11s26.166 14.333 35.499 21l12 -85
c-12.667 -10 -28.834 -19.833 -48.501 -29.5s-44.5 -14.5 -74.5 -14.5c-42.667 0 -77.667 14.167 -105 42.5s-41 70.833 -41 127.5c0 44 13.167 88 39.5 132s64.166 84 113.499 120v1448h114v-1456z" />
    <glyph glyph-name="iogonek" unicode="&#x12f;" horiz-adv-x="431" 
d="M272 0h-7.99805l-55 -53c-18 -18 -34 -36.5 -48 -55.5s-25.167 -38.833 -33.5 -59.5s-12.5 -42.334 -12.5 -65.001c0 -23.333 5 -43.166 15 -59.499s28.333 -24.5 55 -24.5c20.667 0 38.167 3.66699 52.5 11s26.166 14.333 35.499 21l12 -85
c-12.667 -10 -28.834 -19.833 -48.501 -29.5s-44.5 -14.5 -74.5 -14.5c-42.667 0 -77.667 14.167 -105 42.5s-41 70.833 -41 127.5c0 42.667 12.5 85.167 37.5 127.5s60.5 81.5 106.5 117.5v1081h112v-1082zM144.002 1394c0 22.667 6.33301 42 19 58s30.667 24 54 24
s41.5 -8 54.5 -24s19.5 -35.333 19.5 -58s-6.5 -41.834 -19.5 -57.501s-31.167 -23.5 -54.5 -23.5s-41.333 7.83301 -54 23.5s-19 34.834 -19 57.501z" />
    <glyph glyph-name="Idotaccent" unicode="&#x130;" horiz-adv-x="500" 
d="M307 0h-114v1456h114v-1456zM172 1702c0 23.333 7.33301 42.833 22 58.5s34.667 23.5 60 23.5c26 0 46.333 -7.83301 61 -23.5s22 -35.167 22 -58.5c0 -22.667 -7.33301 -41.667 -22 -57s-35 -23 -61 -23c-25.333 0 -45.333 7.66699 -60 23s-22 34.333 -22 57z" />
    <glyph glyph-name="dotlessi" unicode="&#x131;" horiz-adv-x="431" 
d="M270 0h-111v1082h111v-1082z" />
    <glyph glyph-name="IJ" unicode="&#x132;" horiz-adv-x="1487" 
d="M307 0h-114v1456h114v-1456zM1207 1456l115.002 -0.00292969v-1023c0 -73.333 -9.33301 -138.166 -28 -194.499s-44.667 -103.666 -78 -141.999s-72.833 -67.333 -118.5 -87s-95.167 -29.5 -148.5 -29.5c-55.333 0 -105.833 8.5 -151.5 25.5s-84.834 43 -117.501 78
s-58 78.833 -76 131.5s-27 114.667 -27 186h114c0 -105.333 22.833 -184.166 68.5 -236.499s108.834 -78.5 189.501 -78.5c36 0 69.667 7.33301 101 22s58.666 36.667 81.999 66s41.666 65.5 54.999 108.5s20 93.167 20 150.5v1023z" />
    <glyph glyph-name="ij" unicode="&#x133;" horiz-adv-x="867" 
d="M272 0h-112v1082h112v-1082zM144 1394c0 22.667 6.33301 42 19 58s30.667 24 54 24s41.5 -8 54.5 -24s19.5 -35.333 19.5 -58s-6.5 -41.834 -19.5 -57.501s-31.167 -23.5 -54.5 -23.5s-41.333 7.83301 -54 23.5s-19 34.834 -19 57.501zM698 1082v-1211
c0 -100 -20.167 -176.333 -60.5 -229s-99.833 -79 -178.5 -79c-14 0 -29 1.66699 -45 5s-30.667 8 -44 14l1 101c10 -3.33301 22 -6.33301 36 -9s26.667 -4 38 -4c46 0 81.167 16.5 105.5 49.5s36.5 83.5 36.5 151.5v1211h111zM570 1394c0 22.667 6.16699 42 18.5 58
s30.166 24 53.499 24s41.5 -8 54.5 -24s19.5 -35.333 19.5 -58s-6.5 -41.834 -19.5 -57.501s-31.167 -23.5 -54.5 -23.5s-41.166 7.83301 -53.499 23.5s-18.5 34.834 -18.5 57.501z" />
    <glyph glyph-name="Jcircumflex" unicode="&#x134;" horiz-adv-x="987" 
d="M707 1456l115.002 -0.00292969v-1023c0 -73.333 -9.33301 -138.166 -28 -194.499s-44.667 -103.666 -78 -141.999s-72.833 -67.333 -118.5 -87s-95.167 -29.5 -148.5 -29.5c-55.333 0 -105.833 8.5 -151.5 25.5s-84.834 43 -117.501 78s-58 78.833 -76 131.5
s-27 114.667 -27 186h114c0 -105.333 22.833 -184.166 68.5 -236.499s108.834 -78.5 189.501 -78.5c36 0 69.667 7.33301 101 22s58.666 36.667 81.999 66s41.666 65.5 54.999 108.5s20 93.167 20 150.5v1023zM990.002 1567v-10h-100l-138 182l-138 -182h-98v12l201 256h69z
" />
    <glyph glyph-name="jcircumflex" unicode="&#x135;" horiz-adv-x="440" 
d="M280 1082v-1171c0 -113.333 -22.667 -199.666 -68 -258.999s-108.666 -89 -189.999 -89c-16.667 0 -32.167 1.5 -46.5 4.5s-29.833 7.83301 -46.5 14.5l11 101c9.33301 -4 22.5 -7.66699 39.5 -11s31.167 -5 42.5 -5c47.333 0 83.666 21.333 108.999 64
s38 102.667 38 180v1171h111zM463 1227v-10h-100l-138 182l-138 -182h-98v12l201 256h69z" />
    <glyph glyph-name="Kcommaaccent" unicode="&#x136;" horiz-adv-x="1124" 
d="M455 718l-169 -196v-522h-114v1456h114v-776l160 200l451 576h143l-508 -648l547 -808h-139zM614 -84c0 -52.667 -8.5 -104.167 -25.5 -154.5s-42.5 -92.833 -76.5 -127.5l-65 52c20.667 36 36 71.5 46 106.5s15 75.167 15 120.5v80h106v-77z" />
    <glyph glyph-name="kcommaaccent" unicode="&#x137;" horiz-adv-x="888" 
d="M373 541l-113 -126v-415h-112v1536h112v-977l93 118l335 405h138l-380 -457l416 -625h-132zM513 -92c0 -52.667 -8.5 -104.167 -25.5 -154.5s-42.5 -92.833 -76.5 -127.5l-65 52c20.667 36 36 71.5 46 106.5s15 75.167 15 120.5v80h106v-77z" />
    <glyph glyph-name="kgreenlandic" unicode="&#x138;" horiz-adv-x="978" 
d="M377 494h-110v-494h-112v1082h112v-479h105l365 479h135l-401 -526l441 -556h-141z" />
    <glyph glyph-name="Lacute" unicode="&#x139;" horiz-adv-x="950" 
d="M287 106h600v-106h-715v1456h115v-1350zM350 1806h145l-231 -280h-105z" />
    <glyph glyph-name="lacute" unicode="&#x13a;" horiz-adv-x="431" 
d="M272 0h-112v1536h112v-1536zM337 1919h145l-231 -280h-105z" />
    <glyph glyph-name="Lcommaaccent" unicode="&#x13b;" horiz-adv-x="950" 
d="M287 106h600v-106h-715v1456h115v-1350zM595 -173c0 -52.667 -8.5 -104.167 -25.5 -154.5s-42.5 -92.833 -76.5 -127.5l-65 52c20.667 36 36 71.5 46 106.5s15 75.167 15 120.5v80h106v-77z" />
    <glyph glyph-name="lcommaaccent" unicode="&#x13c;" horiz-adv-x="431" 
d="M272 0h-112v1536h112v-1536zM271 -173c0 -52.667 -8.5 -104.167 -25.5 -154.5s-42.5 -92.833 -76.5 -127.5l-65 52c20.667 36 36 71.5 46 106.5s15 75.167 15 120.5v80h106v-77z" />
    <glyph glyph-name="Lcaron" unicode="&#x13d;" horiz-adv-x="950" 
d="M287 106h600v-106h-715v1456h115v-1350zM685 1340c0 -61.333 -10.8311 -120.5 -32.498 -177.5s-51.834 -105.5 -90.501 -145.5l-65 53c25.333 41.333 44.666 83 57.999 125s20 89.333 20 142v119h110v-116z" />
    <glyph glyph-name="lcaron" unicode="&#x13e;" horiz-adv-x="581" 
d="M272 0h-112v1536h112v-1536zM570 1420c0 -61.333 -10.8311 -120.5 -32.498 -177.5s-51.834 -105.5 -90.501 -145.5l-65 53c25.333 41.333 44.666 83 57.999 125s20 89.333 20 142v119h110v-116z" />
    <glyph glyph-name="Ldot" unicode="&#x13f;" horiz-adv-x="950" 
d="M287 106h600v-106h-715v1456h115v-1350zM519 776c0 23.333 7.33301 42.833 22 58.5s34.667 23.5 60 23.5c26 0 46.333 -7.83301 61 -23.5s22 -35.167 22 -58.5c0 -22.667 -7.33301 -41.667 -22 -57s-35 -23 -61 -23c-25.333 0 -45.333 7.66699 -60 23s-22 34.333 -22 57z
" />
    <glyph glyph-name="ldot" unicode="&#x140;" horiz-adv-x="651" 
d="M272 0h-112v1536h112v-1536zM383 787c0 23.333 7.33301 42.833 22 58.5s34.667 23.5 60 23.5c26 0 46.333 -7.83301 61 -23.5s22 -35.167 22 -58.5c0 -22.667 -7.33301 -41.667 -22 -57s-35 -23 -61 -23c-25.333 0 -45.333 7.66699 -60 23s-22 34.333 -22 57z" />
    <glyph glyph-name="Lslash" unicode="&#x141;" horiz-adv-x="952" 
d="M284 820l251 95v-110l-251 -95v-604h600v-106h-715v666l-129 -48v110l129 48v680h115v-636z" />
    <glyph glyph-name="lslash" unicode="&#x142;" horiz-adv-x="488" 
d="M299 861l148 69v-112l-148 -69v-749h-112v697l-144 -66v112l144 66v727h112v-675z" />
    <glyph glyph-name="Nacute" unicode="&#x143;" horiz-adv-x="1262" 
d="M1088 0h-114l-687 1240v-1240h-115v1456h115l688 -1242v1242h113v-1456zM750 1840h145l-231 -280h-105z" />
    <glyph glyph-name="nacute" unicode="&#x144;" horiz-adv-x="986" 
d="M254 1082l3 -171.999c32 58.667 72.833 105.334 122.5 140.001s106.167 52 169.5 52c45.333 0 85.833 -7.33301 121.5 -22s66 -38 91 -70s44.167 -73.167 57.5 -123.5s20 -111.166 20 -182.499v-704h-110v705c0 55.333 -4.83301 101.666 -14.5 138.999
s-23.5 67.166 -41.5 89.499s-39.833 38.333 -65.5 48s-54.5 14.5 -86.5 14.5c-33.333 0 -63.833 -6.83301 -91.5 -20.5s-52.5 -31.834 -74.5 -54.501s-41 -48.667 -57 -78s-29 -60 -39 -92v-751h-111v1082h106zM623 1525h145l-231 -280h-105z" />
    <glyph glyph-name="Ncommaaccent" unicode="&#x145;" horiz-adv-x="1262" 
d="M1088 0h-114l-687 1240v-1240h-115v1456h115l688 -1242v1242h113v-1456zM679 -173c0 -52.667 -8.5 -104.167 -25.5 -154.5s-42.5 -92.833 -76.5 -127.5l-65 52c20.667 36 36 71.5 46 106.5s15 75.167 15 120.5v80h106v-77z" />
    <glyph glyph-name="ncommaaccent" unicode="&#x146;" horiz-adv-x="986" 
d="M254 1082l3 -171.999c32 58.667 72.833 105.334 122.5 140.001s106.167 52 169.5 52c45.333 0 85.833 -7.33301 121.5 -22s66 -38 91 -70s44.167 -73.167 57.5 -123.5s20 -111.166 20 -182.499v-704h-110v705c0 55.333 -4.83301 101.666 -14.5 138.999
s-23.5 67.166 -41.5 89.499s-39.833 38.333 -65.5 48s-54.5 14.5 -86.5 14.5c-33.333 0 -63.833 -6.83301 -91.5 -20.5s-52.5 -31.834 -74.5 -54.501s-41 -48.667 -57 -78s-29 -60 -39 -92v-751h-111v1082h106zM551 -172.999c0 -52.667 -8.5 -104.167 -25.5 -154.5
s-42.5 -92.833 -76.5 -127.5l-65 52c20.667 36 36 71.5 46 106.5s15 75.167 15 120.5v80h106v-77z" />
    <glyph glyph-name="Ncaron" unicode="&#x147;" horiz-adv-x="1262" 
d="M1088 0h-114l-687 1240v-1240h-115v1456h115l688 -1242v1242h113v-1456zM629 1646l141 193h98v-12l-201 -262h-77l-200 263v11h98z" />
    <glyph glyph-name="ncaron" unicode="&#x148;" horiz-adv-x="986" 
d="M254 1082l3 -171.999c32 58.667 72.833 105.334 122.5 140.001s106.167 52 169.5 52c45.333 0 85.833 -7.33301 121.5 -22s66 -38 91 -70s44.167 -73.167 57.5 -123.5s20 -111.166 20 -182.499v-704h-110v705c0 55.333 -4.83301 101.666 -14.5 138.999
s-23.5 67.166 -41.5 89.499s-39.833 38.333 -65.5 48s-54.5 14.5 -86.5 14.5c-33.333 0 -63.833 -6.83301 -91.5 -20.5s-52.5 -31.834 -74.5 -54.501s-41 -48.667 -57 -78s-29 -60 -39 -92v-751h-111v1082h106zM502 1330l141 193h98v-12l-201 -262h-77l-200 263v11h98z" />
    <glyph glyph-name="napostrophe" unicode="&#x149;" horiz-adv-x="986" 
d="M254 1082l3 -171.999c32 58.667 72.833 105.334 122.5 140.001s106.167 52 169.5 52c45.333 0 85.833 -7.33301 121.5 -22s66 -38 91 -70s44.167 -73.167 57.5 -123.5s20 -111.166 20 -182.499v-704h-110v705c0 55.333 -4.83301 101.666 -14.5 138.999
s-23.5 67.166 -41.5 89.499s-39.833 38.333 -65.5 48s-54.5 14.5 -86.5 14.5c-33.333 0 -63.833 -6.83301 -91.5 -20.5s-52.5 -31.834 -74.5 -54.501s-41 -48.667 -57 -78s-29 -60 -39 -92v-751h-111v1082h106zM178 1421c0 -61.333 -10.8311 -120.5 -32.498 -177.5
s-51.834 -105.5 -90.501 -145.5l-65 53c25.333 41.333 44.666 83 57.999 125s20 89.333 20 142v119h110v-116z" />
    <glyph glyph-name="Eng" unicode="&#x14a;" horiz-adv-x="1242" 
d="M1077 1456l-0.000976562 -1542c0 -114 -23 -201 -69 -261s-109.667 -90 -191 -90c-17.333 0 -33.5 1.5 -48.5 4.5s-30.5 7.83301 -46.5 14.5l10 104c4.66699 -2 10.667 -3.83301 18 -5.5l22.5 -5c7.66699 -1.66699 15.334 -2.83398 23.001 -3.50098s14.5 -1 20.5 -1
c46.667 0 82.667 21.167 108 63.5s38 102.166 38 179.499v86l-679 1235v-1235h-114v1456h114l679 -1233v1233h115z" />
    <glyph glyph-name="eng" unicode="&#x14b;" horiz-adv-x="1001" 
d="M249 1082l8.99609 -178c29.333 62 67.833 110.5 115.5 145.5s104.834 52.5 171.501 52.5c48 0 90.667 -8.33301 128 -25s69 -43 95 -79s45.833 -81.833 59.5 -137.5s20.5 -122.5 20.5 -200.5v-749c0 -113.333 -22.833 -199.666 -68.5 -258.999s-108.834 -89 -189.501 -89
c-18.667 0 -36 1.5 -52 4.5s-33 7.83301 -51 14.5l12 106c4.66699 -2 10.834 -4 18.501 -6s15.834 -3.66699 24.501 -5s17.334 -2.5 26.001 -3.5s16 -1.5 22 -1.5c46.667 0 82.834 20.5 108.501 61.5s38.5 100.167 38.5 177.5v748c0 64.667 -5.16699 118.667 -15.5 162
s-25.166 77.833 -44.499 103.5s-42.5 43.834 -69.5 54.501s-56.833 16 -89.5 16c-34.667 0 -65.834 -5.33301 -93.501 -16s-52 -25.334 -73 -44.001s-38.833 -40.834 -53.5 -66.501s-27 -53.5 -37 -83.5v-785h-111v1082h99z" />
    <glyph glyph-name="Omacron" unicode="&#x14c;" horiz-adv-x="1208" 
d="M1075 570c0 -96 -10.833 -180.833 -32.5 -254.5s-52.834 -135.334 -93.501 -185.001s-90 -87.167 -148 -112.5s-123.333 -38 -196 -38c-72 0 -137 12.667 -195 38s-107.667 62.833 -149 112.5s-73.166 111.334 -95.499 185.001s-33.5 158.5 -33.5 254.5v314
c0 96 11 180.833 33 254.5s53.5 135.5 94.5 185.5s90.5 87.833 148.5 113.5s123 38.5 195 38.5c72.667 0 138.167 -12.833 196.5 -38.5s107.833 -63.5 148.5 -113.5s72 -111.833 94 -185.5s33 -158.5 33 -254.5v-314zM960 886c0 159.333 -30.667 279 -92 359
s-149.666 120 -264.999 120c-112.667 0 -200.334 -40 -263.001 -120s-94 -199.667 -94 -359v-316c0 -160 31.667 -280.167 95 -360.5s151.333 -120.5 264 -120.5c116 0 204.167 40 264.5 120s90.5 200.333 90.5 361v316zM887 1692h-570v99h570v-99z" />
    <glyph glyph-name="omacron" unicode="&#x14d;" horiz-adv-x="1005" 
d="M106 596c0 82 9.66699 154.333 29 217s46.333 115.5 81 158.5s76.167 75.5 124.5 97.5s101.833 33 160.5 33c59.333 0 113.333 -11 162 -33s90.334 -54.5 125.001 -97.5s61.5 -95.833 80.5 -158.5s28.5 -135 28.5 -217v-112c0 -82 -9.5 -154.333 -28.5 -217
s-45.833 -115.167 -80.5 -157.5s-76.167 -74.5 -124.5 -96.5s-101.833 -33 -160.5 -33c-59.333 0 -113.333 11 -162 33s-90.334 54.167 -125.001 96.5s-61.667 94.833 -81 157.5s-29 135 -29 217v112zM218 484c0 -62 6.33398 -117.667 19.001 -167s31.167 -91.333 55.5 -126
s54.166 -61.334 89.499 -80.001s75.666 -28 120.999 -28c48 0 89.667 9.33301 125 28s64.666 45.334 87.999 80.001s40.833 76.667 52.5 126s17.5 105 17.5 167v112c0 60.667 -6.33301 115.834 -19 165.501s-31.167 92 -55.5 127s-54.166 62 -89.499 81
s-75.666 28.5 -120.999 28.5c-44.667 0 -84.5 -9.5 -119.5 -28.5s-64.667 -46 -89 -81s-42.833 -77.333 -55.5 -127s-19 -104.834 -19 -165.501v-112zM790.001 1365h-570v99h570v-99z" />
    <glyph glyph-name="Obreve" unicode="&#x14e;" horiz-adv-x="1208" 
d="M1075 570c0 -96 -10.833 -180.833 -32.5 -254.5s-52.834 -135.334 -93.501 -185.001s-90 -87.167 -148 -112.5s-123.333 -38 -196 -38c-72 0 -137 12.667 -195 38s-107.667 62.833 -149 112.5s-73.166 111.334 -95.499 185.001s-33.5 158.5 -33.5 254.5v314
c0 96 11 180.833 33 254.5s53.5 135.5 94.5 185.5s90.5 87.833 148.5 113.5s123 38.5 195 38.5c72.667 0 138.167 -12.833 196.5 -38.5s107.833 -63.5 148.5 -113.5s72 -111.833 94 -185.5s33 -158.5 33 -254.5v-314zM960 886c0 159.333 -30.667 279 -92 359
s-149.666 120 -264.999 120c-112.667 0 -200.334 -40 -263.001 -120s-94 -199.667 -94 -359v-316c0 -160 31.667 -280.167 95 -360.5s151.333 -120.5 264 -120.5c116 0 204.167 40 264.5 120s90.5 200.333 90.5 361v316zM892 1819c0 -38 -6.66699 -72.668 -20 -104.001
s-32.333 -58.5 -57 -81.5s-55 -40.833 -91 -53.5s-76.333 -19 -121 -19s-84.834 6.33301 -120.501 19s-66 30.5 -91 53.5s-44.167 50.167 -57.5 81.5s-20 66 -20 104h102c0 -23.333 3.33301 -45.166 10 -65.499s17.334 -38.333 32.001 -54s34 -28 58 -37s53 -13.5 87 -13.5
c33.333 0 61.833 4.66699 85.5 14s43 21.666 58 36.999s26 33.333 33 54s10.5 42.334 10.5 65.001h102z" />
    <glyph glyph-name="obreve" unicode="&#x14f;" horiz-adv-x="1005" 
d="M106 596c0 82 9.66699 154.333 29 217s46.333 115.5 81 158.5s76.167 75.5 124.5 97.5s101.833 33 160.5 33c59.333 0 113.333 -11 162 -33s90.334 -54.5 125.001 -97.5s61.5 -95.833 80.5 -158.5s28.5 -135 28.5 -217v-112c0 -82 -9.5 -154.333 -28.5 -217
s-45.833 -115.167 -80.5 -157.5s-76.167 -74.5 -124.5 -96.5s-101.833 -33 -160.5 -33c-59.333 0 -113.333 11 -162 33s-90.334 54.167 -125.001 96.5s-61.667 94.833 -81 157.5s-29 135 -29 217v112zM218 484c0 -62 6.33398 -117.667 19.001 -167s31.167 -91.333 55.5 -126
s54.166 -61.334 89.499 -80.001s75.666 -28 120.999 -28c48 0 89.667 9.33301 125 28s64.666 45.334 87.999 80.001s40.833 76.667 52.5 126s17.5 105 17.5 167v112c0 60.667 -6.33301 115.834 -19 165.501s-31.167 92 -55.5 127s-54.166 62 -89.499 81
s-75.666 28.5 -120.999 28.5c-44.667 0 -84.5 -9.5 -119.5 -28.5s-64.667 -46 -89 -81s-42.833 -77.333 -55.5 -127s-19 -104.834 -19 -165.501v-112zM795.001 1492c0 -38 -6.66699 -72.668 -20 -104.001s-32.333 -58.5 -57 -81.5s-55 -40.833 -91 -53.5
s-76.333 -19 -121 -19s-84.834 6.33301 -120.501 19s-66 30.5 -91 53.5s-44.167 50.167 -57.5 81.5s-20 66 -20 104h102c0 -23.333 3.33301 -45.166 10 -65.499s17.334 -38.333 32.001 -54s34 -28 58 -37s53 -13.5 87 -13.5c33.333 0 61.833 4.66699 85.5 14
s43 21.666 58 36.999s26 33.333 33 54s10.5 42.334 10.5 65.001h102z" />
    <glyph glyph-name="Ohungarumlaut" unicode="&#x150;" horiz-adv-x="1208" 
d="M1075 570c0 -96 -10.833 -180.833 -32.5 -254.5s-52.834 -135.334 -93.501 -185.001s-90 -87.167 -148 -112.5s-123.333 -38 -196 -38c-72 0 -137 12.667 -195 38s-107.667 62.833 -149 112.5s-73.166 111.334 -95.499 185.001s-33.5 158.5 -33.5 254.5v314
c0 96 11 180.833 33 254.5s53.5 135.5 94.5 185.5s90.5 87.833 148.5 113.5s123 38.5 195 38.5c72.667 0 138.167 -12.833 196.5 -38.5s107.833 -63.5 148.5 -113.5s72 -111.833 94 -185.5s33 -158.5 33 -254.5v-314zM960 886c0 159.333 -30.667 279 -92 359
s-149.666 120 -264.999 120c-112.667 0 -200.334 -40 -263.001 -120s-94 -199.667 -94 -359v-316c0 -160 31.667 -280.167 95 -360.5s151.333 -120.5 264 -120.5c116 0 204.167 40 264.5 120s90.5 200.333 90.5 361v316zM847 1861h131l-233 -303h-109zM582 1861h125
l-192 -303h-98z" />
    <glyph glyph-name="ohungarumlaut" unicode="&#x151;" horiz-adv-x="1005" 
d="M106 596c0 82 9.66699 154.333 29 217s46.333 115.5 81 158.5s76.167 75.5 124.5 97.5s101.833 33 160.5 33c59.333 0 113.333 -11 162 -33s90.334 -54.5 125.001 -97.5s61.5 -95.833 80.5 -158.5s28.5 -135 28.5 -217v-112c0 -82 -9.5 -154.333 -28.5 -217
s-45.833 -115.167 -80.5 -157.5s-76.167 -74.5 -124.5 -96.5s-101.833 -33 -160.5 -33c-59.333 0 -113.333 11 -162 33s-90.334 54.167 -125.001 96.5s-61.667 94.833 -81 157.5s-29 135 -29 217v112zM218 484c0 -62 6.33398 -117.667 19.001 -167s31.167 -91.333 55.5 -126
s54.166 -61.334 89.499 -80.001s75.666 -28 120.999 -28c48 0 89.667 9.33301 125 28s64.666 45.334 87.999 80.001s40.833 76.667 52.5 126s17.5 105 17.5 167v112c0 60.667 -6.33301 115.834 -19 165.501s-31.167 92 -55.5 127s-54.166 62 -89.499 81
s-75.666 28.5 -120.999 28.5c-44.667 0 -84.5 -9.5 -119.5 -28.5s-64.667 -46 -89 -81s-42.833 -77.333 -55.5 -127s-19 -104.834 -19 -165.501v-112zM750.001 1535h131l-233 -303h-109zM485.001 1535h125l-192 -303h-98z" />
    <glyph glyph-name="OE" unicode="&#x152;" horiz-adv-x="1653" 
d="M1533 0h-710.001c-40 -5.33301 -81.5 -10.166 -124.5 -14.499s-87.5 -6.5 -133.5 -6.5c-67.333 0 -128.833 14.5 -184.5 43.5s-103.5 69.833 -143.5 122.5s-71.167 115.667 -93.5 189s-33.5 154 -33.5 242v304c0 88 11 168.667 33 242s52.833 136.166 92.5 188.499
s87.334 93 143.001 122s117.167 43.5 184.5 43.5c46 0 90.833 -2 134.5 -6s85.5 -8.66699 125.5 -14h705v-108h-645v-545h565v-106h-565v-591h650v-106zM564.999 83c34.667 0 69.333 1.16797 104 3.50098s68 5.83301 100 10.5v1261c-64 10 -132.667 15 -206 15
c-52 0 -99.167 -11.167 -141.5 -33.5s-78.333 -54.666 -108 -96.999s-52.5 -93.833 -68.5 -154.5s-24 -129.334 -24 -206.001v-306c0 -76 8.16699 -144.333 24.5 -205s39.5 -112.334 69.5 -155.001s66.167 -75.5 108.5 -98.5s89.5 -34.5 141.5 -34.5z" />
    <glyph glyph-name="oe" unicode="&#x153;" horiz-adv-x="1624" 
d="M99 556c0 78.667 9.32617 151.33 27.9932 217.997s45.5 124.334 80.5 173.001s77.333 86.667 127 114s105.5 41 167.5 41c40.667 0 78.834 -6.16699 114.501 -18.5s68.334 -29.666 98.001 -51.999s56.167 -49.5 79.5 -81.5s43 -68 59 -108c16.667 40 37 76 61 108
s50.167 59.333 78.5 82s58.833 40 91.5 52s66.334 18 101.001 18c57.333 0 108.5 -11 153.5 -33s82.833 -53.333 113.5 -94s54 -89.334 70 -146.001s24 -120 24 -190v-103h-634v-26c0 -59.333 6.66699 -115 20 -167s32.5 -97.167 57.5 -135.5s55.167 -68.666 90.5 -90.999
s75.333 -33.5 120 -33.5c65.333 0 119.5 10.833 162.5 32.5s78.833 50.5 107.5 86.5l48 -85c-15.333 -19.333 -33.166 -37.333 -53.499 -54s-43.666 -31.167 -69.999 -43.5s-55.666 -22 -87.999 -29s-67.833 -10.5 -106.5 -10.5s-75.5 6 -110.5 18s-67.167 29 -96.5 51
s-56 48.833 -80 80.5s-44.333 67.167 -61 106.5c-32.667 -78.667 -78.667 -141 -138 -187s-129.666 -69 -210.999 -69c-62 0 -118 13.5 -168 40.5s-92.5 64.667 -127.5 113s-61.833 105.833 -80.5 172.5s-28 139.334 -28 218.001v32zM210.993 523.996
c0 -59.333 6.16504 -115.5 18.498 -168.5s30.666 -99.833 54.999 -140.5s54.833 -72.834 91.5 -96.501s79 -35.5 127 -35.5s90 11.833 126 35.5s66.167 55.834 90.5 96.501s42.666 87.5 54.999 140.5s18.5 109.167 18.5 168.5v32c0 58 -6.16699 113.667 -18.5 167
s-30.666 100.333 -54.999 141s-54.666 73.167 -90.999 97.5s-78.5 36.5 -126.5 36.5s-90.167 -12.167 -126.5 -36.5s-66.666 -56.833 -90.999 -97.5s-42.666 -87.667 -54.999 -141s-18.5 -109 -18.5 -167v-32zM1184.99 997.996c-36 0 -69.333 -9.16602 -100 -27.499
s-57.667 -43.5 -81 -75.5s-42.5 -69.833 -57.5 -113.5s-25.167 -90.834 -30.5 -141.501h519v29c0 44.667 -5.5 87 -16.5 127s-27 75 -48 105s-47 53.667 -78 71s-66.833 26 -107.5 26z" />
    <glyph glyph-name="Racute" unicode="&#x154;" horiz-adv-x="1126" 
d="M625 606l-340.001 -0.00195312v-606h-115v1456h399c64.667 0 122.834 -9.33301 174.501 -28s95.5 -46.167 131.5 -82.5s63.667 -81.166 83 -134.499s29 -114.666 29 -183.999c0 -48 -6 -93 -18 -135s-29 -80 -51 -114s-48.5 -63.5 -79.5 -88.5
s-65.167 -44.167 -102.5 -57.5l303 -619v-13h-122zM284.999 711.998l304 -0.000976562c46.667 0 87.834 8.66699 123.501 26s65.167 40.5 88.5 69.5s41 62.5 53 100.5s18 77.667 18 119c0 49.333 -6.5 93.833 -19.5 133.5s-32.333 73.334 -58 101.001s-57.334 49 -95.001 64
s-81.167 22.5 -130.5 22.5h-284v-636zM649.999 1840h145l-231 -280h-105z" />
    <glyph glyph-name="racute" unicode="&#x155;" horiz-adv-x="619" 
d="M572 978c-11.333 2 -22.501 3.66699 -33.501 5s-23.167 2 -36.5 2c-32.667 0 -62.167 -5.83301 -88.5 -17.5s-49.5 -28 -69.5 -49s-37.167 -46.167 -51.5 -75.5s-25.5 -61.333 -33.5 -96v-747h-111v1082h109l2 -162c24.667 56.667 57.334 101.167 98.001 133.5
s90.667 48.5 150 48.5c12 0 24.667 -1.33301 38 -4s23 -5.66699 29 -9zM483.999 1525h145l-231 -280h-105z" />
    <glyph glyph-name="Rcommaaccent" unicode="&#x156;" horiz-adv-x="1126" 
d="M625 606l-340.001 -0.00195312v-606h-115v1456h399c64.667 0 122.834 -9.33301 174.501 -28s95.5 -46.167 131.5 -82.5s63.667 -81.166 83 -134.499s29 -114.666 29 -183.999c0 -48 -6 -93 -18 -135s-29 -80 -51 -114s-48.5 -63.5 -79.5 -88.5
s-65.167 -44.167 -102.5 -57.5l303 -619v-13h-122zM284.999 711.998l304 -0.000976562c46.667 0 87.834 8.66699 123.501 26s65.167 40.5 88.5 69.5s41 62.5 53 100.5s18 77.667 18 119c0 49.333 -6.5 93.833 -19.5 133.5s-32.333 73.334 -58 101.001s-57.334 49 -95.001 64
s-81.167 22.5 -130.5 22.5h-284v-636zM583.999 -173.003c0 -52.667 -8.5 -104.167 -25.5 -154.5s-42.5 -92.833 -76.5 -127.5l-65 52c20.667 36 36 71.5 46 106.5s15 75.167 15 120.5v80h106v-77z" />
    <glyph glyph-name="rcommaaccent" unicode="&#x157;" horiz-adv-x="619" 
d="M572 978c-11.333 2 -22.501 3.66699 -33.501 5s-23.167 2 -36.5 2c-32.667 0 -62.167 -5.83301 -88.5 -17.5s-49.5 -28 -69.5 -49s-37.167 -46.167 -51.5 -75.5s-25.5 -61.333 -33.5 -96v-747h-111v1082h109l2 -162c24.667 56.667 57.334 101.167 98.001 133.5
s90.667 48.5 150 48.5c12 0 24.667 -1.33301 38 -4s23 -5.66699 29 -9zM263.999 -169c0 -52.667 -8.5 -104.167 -25.5 -154.5s-42.5 -92.833 -76.5 -127.5l-65 52c20.667 36 36 71.5 46 106.5s15 75.167 15 120.5v80h106v-77z" />
    <glyph glyph-name="Rcaron" unicode="&#x158;" horiz-adv-x="1126" 
d="M625 606l-340.001 -0.00195312v-606h-115v1456h399c64.667 0 122.834 -9.33301 174.501 -28s95.5 -46.167 131.5 -82.5s63.667 -81.166 83 -134.499s29 -114.666 29 -183.999c0 -48 -6 -93 -18 -135s-29 -80 -51 -114s-48.5 -63.5 -79.5 -88.5
s-65.167 -44.167 -102.5 -57.5l303 -619v-13h-122zM284.999 711.998l304 -0.000976562c46.667 0 87.834 8.66699 123.501 26s65.167 40.5 88.5 69.5s41 62.5 53 100.5s18 77.667 18 119c0 49.333 -6.5 93.833 -19.5 133.5s-32.333 73.334 -58 101.001s-57.334 49 -95.001 64
s-81.167 22.5 -130.5 22.5h-284v-636zM528.999 1646l141 193h98v-12l-201 -262h-77l-200 263v11h98z" />
    <glyph glyph-name="rcaron" unicode="&#x159;" horiz-adv-x="619" 
d="M572 978c-11.333 2 -22.501 3.66699 -33.501 5s-23.167 2 -36.5 2c-32.667 0 -62.167 -5.83301 -88.5 -17.5s-49.5 -28 -69.5 -49s-37.167 -46.167 -51.5 -75.5s-25.5 -61.333 -33.5 -96v-747h-111v1082h109l2 -162c24.667 56.667 57.334 101.167 98.001 133.5
s90.667 48.5 150 48.5c12 0 24.667 -1.33301 38 -4s23 -5.66699 29 -9zM363.999 1330l141 193h98v-12l-201 -262h-77l-200 263v11h98z" />
    <glyph glyph-name="Sacute" unicode="&#x15a;" horiz-adv-x="1059" 
d="M856 358c0 40 -5.16309 75.5049 -15.4961 106.505s-28 59.167 -53 84.5s-58.5 48.666 -100.5 69.999s-94.333 42.666 -157 63.999c-61.333 20.667 -116.5 43.167 -165.5 67.5s-90.833 52.666 -125.5 84.999s-61.334 70 -80.001 113s-28 93.167 -28 150.5
c0 56 10.167 107.167 30.5 153.5s48.666 86 84.999 119s79.666 58.667 129.999 77s105.833 27.5 166.5 27.5c65.333 0 124 -11.333 176 -34s96.333 -53.667 133 -93s64.667 -85.5 84 -138.5s29 -109.833 29 -170.5h-115c0 47.333 -6.83301 91 -20.5 131
s-33.5 74.667 -59.5 104s-58 52.166 -96 68.499s-81.667 24.5 -131 24.5s-92.5 -7 -129.5 -21s-67.833 -33.167 -92.5 -57.5s-43.334 -52.666 -56.001 -84.999s-19 -66.833 -19 -103.5c0 -34.667 5.5 -66.5 16.5 -95.5s29.167 -55.833 54.5 -80.5s58.5 -47.834 99.5 -69.501
s91.167 -42.167 150.5 -61.5c65.333 -21.333 123.166 -44.833 173.499 -70.5s92.666 -55.5 126.999 -89.5s60.333 -73.5 78 -118.5s26.5 -96.833 26.5 -155.5c0 -59.333 -10.5 -112.5 -31.5 -159.5s-50.167 -86.833 -87.5 -119.5s-81.666 -57.667 -132.999 -75
s-107.666 -26 -168.999 -26c-54.667 0 -109.334 8.33301 -164.001 25s-103.667 42.5 -147 77.5s-78.666 80 -105.999 135s-41 121.167 -41 198.5h114c0 -61.333 10.167 -113 30.5 -155s46.833 -76 79.5 -102s69.5 -44.667 110.5 -56s82.167 -17 123.5 -17
c46.667 0 88.834 6.5 126.501 19.5s69.667 31.333 96 55s46.666 52.167 60.999 85.5s21.5 70.666 21.5 111.999zM666.004 1851h145l-231 -280h-105z" />
    <glyph glyph-name="sacute" unicode="&#x15b;" horiz-adv-x="914" 
d="M689 266c0 22 -4.16504 42.6641 -12.498 61.9971s-22 38 -41 56s-44 36.333 -75 55s-69.5 38.667 -115.5 60c-49.333 22 -93.333 43.167 -132 63.5s-71.167 42.333 -97.5 66s-46.5 50.334 -60.5 80.001s-21 64.834 -21 105.501c0 40 7.5 77.5 22.5 112.5
s36.5 65.5 64.5 91.5s62 46.5 102 61.5s84.667 22.5 134 22.5c52.667 0 100 -7.83301 142 -23.5s77.5 -37.5 106.5 -65.5s51.167 -61.5 66.5 -100.5s23 -81.5 23 -127.5h-111c0 28 -5 54.833 -15 80.5s-24.667 48.334 -44 68.001s-43 35.334 -71 47.001
s-60.333 17.5 -97 17.5c-38 0 -70.333 -5.16699 -97 -15.5s-48.667 -24 -66 -41s-30 -36.333 -38 -58s-12 -43.5 -12 -65.5s3.33301 -41.5 10 -58.5s18.834 -33.5 36.501 -49.5s41.5 -32.5 71.5 -49.5s68.667 -36.833 116 -59.5c50 -22 95 -43.333 135 -64
s73.833 -43.5 101.5 -68.5s49 -53.167 64 -84.5s22.5 -68.666 22.5 -111.999c0 -44.667 -8 -85 -24 -121s-38.833 -66.667 -68.5 -92s-65.334 -44.833 -107.001 -58.5s-87.834 -20.5 -138.501 -20.5c-58.667 0 -110.334 8.5 -155.001 25.5s-82.167 39.833 -112.5 68.5
s-53.333 62 -69 100s-23.5 78.333 -23.5 121h112c2 -42.667 10.833 -77.667 26.5 -105s35.167 -49 58.5 -65s49.333 -27 78 -33s57 -9 85 -9c36.667 0 69.167 4.83301 97.5 14.5s52 22.667 71 39s33.333 35.666 43 57.999s14.5 46.166 14.5 71.499zM595.002 1525h145
l-231 -280h-105z" />
    <glyph glyph-name="Scircumflex" unicode="&#x15c;" horiz-adv-x="1059" 
d="M856 358c0 40 -5.16309 75.5049 -15.4961 106.505s-28 59.167 -53 84.5s-58.5 48.666 -100.5 69.999s-94.333 42.666 -157 63.999c-61.333 20.667 -116.5 43.167 -165.5 67.5s-90.833 52.666 -125.5 84.999s-61.334 70 -80.001 113s-28 93.167 -28 150.5
c0 56 10.167 107.167 30.5 153.5s48.666 86 84.999 119s79.666 58.667 129.999 77s105.833 27.5 166.5 27.5c65.333 0 124 -11.333 176 -34s96.333 -53.667 133 -93s64.667 -85.5 84 -138.5s29 -109.833 29 -170.5h-115c0 47.333 -6.83301 91 -20.5 131
s-33.5 74.667 -59.5 104s-58 52.166 -96 68.499s-81.667 24.5 -131 24.5s-92.5 -7 -129.5 -21s-67.833 -33.167 -92.5 -57.5s-43.334 -52.666 -56.001 -84.999s-19 -66.833 -19 -103.5c0 -34.667 5.5 -66.5 16.5 -95.5s29.167 -55.833 54.5 -80.5s58.5 -47.834 99.5 -69.501
s91.167 -42.167 150.5 -61.5c65.333 -21.333 123.166 -44.833 173.499 -70.5s92.666 -55.5 126.999 -89.5s60.333 -73.5 78 -118.5s26.5 -96.833 26.5 -155.5c0 -59.333 -10.5 -112.5 -31.5 -159.5s-50.167 -86.833 -87.5 -119.5s-81.666 -57.667 -132.999 -75
s-107.666 -26 -168.999 -26c-54.667 0 -109.334 8.33301 -164.001 25s-103.667 42.5 -147 77.5s-78.666 80 -105.999 135s-41 121.167 -41 198.5h114c0 -61.333 10.167 -113 30.5 -155s46.833 -76 79.5 -102s69.5 -44.667 110.5 -56s82.167 -17 123.5 -17
c46.667 0 88.834 6.5 126.501 19.5s69.667 31.333 96 55s46.666 52.167 60.999 85.5s21.5 70.666 21.5 111.999zM784.004 1594v-10h-100l-138 182l-138 -182h-98v12l201 256h69z" />
    <glyph glyph-name="scircumflex" unicode="&#x15d;" horiz-adv-x="914" 
d="M689 266c0 22 -4.16504 42.6641 -12.498 61.9971s-22 38 -41 56s-44 36.333 -75 55s-69.5 38.667 -115.5 60c-49.333 22 -93.333 43.167 -132 63.5s-71.167 42.333 -97.5 66s-46.5 50.334 -60.5 80.001s-21 64.834 -21 105.501c0 40 7.5 77.5 22.5 112.5
s36.5 65.5 64.5 91.5s62 46.5 102 61.5s84.667 22.5 134 22.5c52.667 0 100 -7.83301 142 -23.5s77.5 -37.5 106.5 -65.5s51.167 -61.5 66.5 -100.5s23 -81.5 23 -127.5h-111c0 28 -5 54.833 -15 80.5s-24.667 48.334 -44 68.001s-43 35.334 -71 47.001
s-60.333 17.5 -97 17.5c-38 0 -70.333 -5.16699 -97 -15.5s-48.667 -24 -66 -41s-30 -36.333 -38 -58s-12 -43.5 -12 -65.5s3.33301 -41.5 10 -58.5s18.834 -33.5 36.501 -49.5s41.5 -32.5 71.5 -49.5s68.667 -36.833 116 -59.5c50 -22 95 -43.333 135 -64
s73.833 -43.5 101.5 -68.5s49 -53.167 64 -84.5s22.5 -68.666 22.5 -111.999c0 -44.667 -8 -85 -24 -121s-38.833 -66.667 -68.5 -92s-65.334 -44.833 -107.001 -58.5s-87.834 -20.5 -138.501 -20.5c-58.667 0 -110.334 8.5 -155.001 25.5s-82.167 39.833 -112.5 68.5
s-53.333 62 -69 100s-23.5 78.333 -23.5 121h112c2 -42.667 10.833 -77.667 26.5 -105s35.167 -49 58.5 -65s49.333 -27 78 -33s57 -9 85 -9c36.667 0 69.167 4.83301 97.5 14.5s52 22.667 71 39s33.333 35.666 43 57.999s14.5 46.166 14.5 71.499zM713.002 1268v-10h-100
l-138 182l-138 -182h-98v12l201 256h69z" />
    <glyph glyph-name="Scedilla" unicode="&#x15e;" horiz-adv-x="1059" 
d="M856 358c0 40 -5.16309 75.5049 -15.4961 106.505s-28 59.167 -53 84.5s-58.5 48.666 -100.5 69.999s-94.333 42.666 -157 63.999c-61.333 20.667 -116.5 43.167 -165.5 67.5s-90.833 52.666 -125.5 84.999s-61.334 70 -80.001 113s-28 93.167 -28 150.5
c0 56 10.167 107.167 30.5 153.5s48.666 86 84.999 119s79.666 58.667 129.999 77s105.833 27.5 166.5 27.5c65.333 0 124 -11.333 176 -34s96.333 -53.667 133 -93s64.667 -85.5 84 -138.5s29 -109.833 29 -170.5h-115c0 47.333 -6.83301 91 -20.5 131
s-33.5 74.667 -59.5 104s-58 52.166 -96 68.499s-81.667 24.5 -131 24.5s-92.5 -7 -129.5 -21s-67.833 -33.167 -92.5 -57.5s-43.334 -52.666 -56.001 -84.999s-19 -66.833 -19 -103.5c0 -34.667 5.5 -66.5 16.5 -95.5s29.167 -55.833 54.5 -80.5s58.5 -47.834 99.5 -69.501
s91.167 -42.167 150.5 -61.5c65.333 -21.333 123.166 -44.833 173.499 -70.5s92.666 -55.5 126.999 -89.5s60.333 -73.5 78 -118.5s26.5 -96.833 26.5 -155.5c0 -59.333 -10.5 -112.5 -31.5 -159.5s-50.167 -86.833 -87.5 -119.5s-81.666 -57.667 -132.999 -75
s-107.666 -26 -168.999 -26c-54.667 0 -109.334 8.33301 -164.001 25s-103.667 42.5 -147 77.5s-78.666 80 -105.999 135s-41 121.167 -41 198.5h114c0 -61.333 10.167 -113 30.5 -155s46.833 -76 79.5 -102s69.5 -44.667 110.5 -56s82.167 -17 123.5 -17
c46.667 0 88.834 6.5 126.501 19.5s69.667 31.333 96 55s46.666 52.167 60.999 85.5s21.5 70.666 21.5 111.999zM595.004 -3.99512l-10 -64c16.667 -2.66699 33.167 -7.5 49.5 -14.5s31 -17.167 44 -30.5s23.333 -30.166 31 -50.499s11.5 -45.5 11.5 -75.5
s-5.5 -57.167 -16.5 -81.5s-27 -45.333 -48 -63s-46.833 -31.334 -77.5 -41.001s-66 -14.5 -106 -14.5l-6 79c20.667 0 40.834 2.33301 60.501 7s37.167 11.667 52.5 21s27.666 21.5 36.999 36.5s14 33.167 14 54.5c0 19.333 -3 35.5 -9 48.5s-15 23.5 -27 31.5
s-27.167 14.167 -45.5 18.5s-39.833 7.83301 -64.5 10.5l25 128h85z" />
    <glyph glyph-name="scedilla" unicode="&#x15f;" horiz-adv-x="914" 
d="M689 266c0 22 -4.16504 42.6641 -12.498 61.9971s-22 38 -41 56s-44 36.333 -75 55s-69.5 38.667 -115.5 60c-49.333 22 -93.333 43.167 -132 63.5s-71.167 42.333 -97.5 66s-46.5 50.334 -60.5 80.001s-21 64.834 -21 105.501c0 40 7.5 77.5 22.5 112.5
s36.5 65.5 64.5 91.5s62 46.5 102 61.5s84.667 22.5 134 22.5c52.667 0 100 -7.83301 142 -23.5s77.5 -37.5 106.5 -65.5s51.167 -61.5 66.5 -100.5s23 -81.5 23 -127.5h-111c0 28 -5 54.833 -15 80.5s-24.667 48.334 -44 68.001s-43 35.334 -71 47.001
s-60.333 17.5 -97 17.5c-38 0 -70.333 -5.16699 -97 -15.5s-48.667 -24 -66 -41s-30 -36.333 -38 -58s-12 -43.5 -12 -65.5s3.33301 -41.5 10 -58.5s18.834 -33.5 36.501 -49.5s41.5 -32.5 71.5 -49.5s68.667 -36.833 116 -59.5c50 -22 95 -43.333 135 -64
s73.833 -43.5 101.5 -68.5s49 -53.167 64 -84.5s22.5 -68.666 22.5 -111.999c0 -44.667 -8 -85 -24 -121s-38.833 -66.667 -68.5 -92s-65.334 -44.833 -107.001 -58.5s-87.834 -20.5 -138.501 -20.5c-58.667 0 -110.334 8.5 -155.001 25.5s-82.167 39.833 -112.5 68.5
s-53.333 62 -69 100s-23.5 78.333 -23.5 121h112c2 -42.667 10.833 -77.667 26.5 -105s35.167 -49 58.5 -65s49.333 -27 78 -33s57 -9 85 -9c36.667 0 69.167 4.83301 97.5 14.5s52 22.667 71 39s33.333 35.666 43 57.999s14.5 46.166 14.5 71.499zM521.002 -6.00293
l-10 -64c16.667 -2.66699 33.167 -7.5 49.5 -14.5s31 -17.167 44 -30.5s23.333 -30.166 31 -50.499s11.5 -45.5 11.5 -75.5s-5.5 -57.167 -16.5 -81.5s-27 -45.333 -48 -63s-46.833 -31.334 -77.5 -41.001s-66 -14.5 -106 -14.5l-6 79c20.667 0 40.834 2.33301 60.501 7
s37.167 11.667 52.5 21s27.666 21.5 36.999 36.5s14 33.167 14 54.5c0 19.333 -3 35.5 -9 48.5s-15 23.5 -27 31.5s-27.167 14.167 -45.5 18.5s-39.833 7.83301 -64.5 10.5l25 128h85z" />
    <glyph glyph-name="Scaron" unicode="&#x160;" horiz-adv-x="1059" 
d="M856 358c0 40 -5.16309 75.5049 -15.4961 106.505s-28 59.167 -53 84.5s-58.5 48.666 -100.5 69.999s-94.333 42.666 -157 63.999c-61.333 20.667 -116.5 43.167 -165.5 67.5s-90.833 52.666 -125.5 84.999s-61.334 70 -80.001 113s-28 93.167 -28 150.5
c0 56 10.167 107.167 30.5 153.5s48.666 86 84.999 119s79.666 58.667 129.999 77s105.833 27.5 166.5 27.5c65.333 0 124 -11.333 176 -34s96.333 -53.667 133 -93s64.667 -85.5 84 -138.5s29 -109.833 29 -170.5h-115c0 47.333 -6.83301 91 -20.5 131
s-33.5 74.667 -59.5 104s-58 52.166 -96 68.499s-81.667 24.5 -131 24.5s-92.5 -7 -129.5 -21s-67.833 -33.167 -92.5 -57.5s-43.334 -52.666 -56.001 -84.999s-19 -66.833 -19 -103.5c0 -34.667 5.5 -66.5 16.5 -95.5s29.167 -55.833 54.5 -80.5s58.5 -47.834 99.5 -69.501
s91.167 -42.167 150.5 -61.5c65.333 -21.333 123.166 -44.833 173.499 -70.5s92.666 -55.5 126.999 -89.5s60.333 -73.5 78 -118.5s26.5 -96.833 26.5 -155.5c0 -59.333 -10.5 -112.5 -31.5 -159.5s-50.167 -86.833 -87.5 -119.5s-81.666 -57.667 -132.999 -75
s-107.666 -26 -168.999 -26c-54.667 0 -109.334 8.33301 -164.001 25s-103.667 42.5 -147 77.5s-78.666 80 -105.999 135s-41 121.167 -41 198.5h114c0 -61.333 10.167 -113 30.5 -155s46.833 -76 79.5 -102s69.5 -44.667 110.5 -56s82.167 -17 123.5 -17
c46.667 0 88.834 6.5 126.501 19.5s69.667 31.333 96 55s46.666 52.167 60.999 85.5s21.5 70.666 21.5 111.999zM545.004 1657l141 193h98v-12l-201 -262h-77l-200 263v11h98z" />
    <glyph glyph-name="scaron" unicode="&#x161;" horiz-adv-x="914" 
d="M689 266c0 22 -4.16504 42.6641 -12.498 61.9971s-22 38 -41 56s-44 36.333 -75 55s-69.5 38.667 -115.5 60c-49.333 22 -93.333 43.167 -132 63.5s-71.167 42.333 -97.5 66s-46.5 50.334 -60.5 80.001s-21 64.834 -21 105.501c0 40 7.5 77.5 22.5 112.5
s36.5 65.5 64.5 91.5s62 46.5 102 61.5s84.667 22.5 134 22.5c52.667 0 100 -7.83301 142 -23.5s77.5 -37.5 106.5 -65.5s51.167 -61.5 66.5 -100.5s23 -81.5 23 -127.5h-111c0 28 -5 54.833 -15 80.5s-24.667 48.334 -44 68.001s-43 35.334 -71 47.001
s-60.333 17.5 -97 17.5c-38 0 -70.333 -5.16699 -97 -15.5s-48.667 -24 -66 -41s-30 -36.333 -38 -58s-12 -43.5 -12 -65.5s3.33301 -41.5 10 -58.5s18.834 -33.5 36.501 -49.5s41.5 -32.5 71.5 -49.5s68.667 -36.833 116 -59.5c50 -22 95 -43.333 135 -64
s73.833 -43.5 101.5 -68.5s49 -53.167 64 -84.5s22.5 -68.666 22.5 -111.999c0 -44.667 -8 -85 -24 -121s-38.833 -66.667 -68.5 -92s-65.334 -44.833 -107.001 -58.5s-87.834 -20.5 -138.501 -20.5c-58.667 0 -110.334 8.5 -155.001 25.5s-82.167 39.833 -112.5 68.5
s-53.333 62 -69 100s-23.5 78.333 -23.5 121h112c2 -42.667 10.833 -77.667 26.5 -105s35.167 -49 58.5 -65s49.333 -27 78 -33s57 -9 85 -9c36.667 0 69.167 4.83301 97.5 14.5s52 22.667 71 39s33.333 35.666 43 57.999s14.5 46.166 14.5 71.499zM474.002 1330l141 193h98
v-12l-201 -262h-77l-200 263v11h98z" />
    <glyph glyph-name="uni0162" unicode="&#x162;" horiz-adv-x="1067" 
d="M1005 1348h-414v-1348h-115v1348h-413v108h942v-108zM580 0l-10 -64c16.667 -2.66699 33.167 -7.5 49.5 -14.5s31 -17.167 44 -30.5s23.333 -30.166 31 -50.499s11.5 -45.5 11.5 -75.5s-5.5 -57.167 -16.5 -81.5s-27 -45.333 -48 -63s-46.833 -31.334 -77.5 -41.001
s-66 -14.5 -106 -14.5l-6 79c20.667 0 40.834 2.33301 60.501 7s37.167 11.667 52.5 21s27.666 21.5 36.999 36.5s14 33.167 14 54.5c0 19.333 -3 35.5 -9 48.5s-15 23.5 -27 31.5s-27.167 14.167 -45.5 18.5s-39.833 7.83301 -64.5 10.5l25 128h85z" />
    <glyph glyph-name="uni0163" unicode="&#x163;" horiz-adv-x="594" 
d="M315 1358l-0.000976562 -276h185v-100h-185v-719c0 -37.333 3.16699 -67.5 9.5 -90.5s14.833 -40.833 25.5 -53.5s22.834 -21.167 36.501 -25.5s28.167 -6.5 43.5 -6.5c14.667 0 29 1.16699 43 3.5s26.333 4.5 37 6.5l3 -100c-12 -5.33301 -27.833 -9.5 -47.5 -12.5
s-40.167 -4.5 -61.5 -4.5c-28.667 0 -55.167 4.66699 -79.5 14s-45.5 25 -63.5 47s-32 51.167 -42 87.5s-15 81.5 -15 135.5v718h-167v100h167v276h111zM431.999 0l-10 -64c16.667 -2.66699 33.167 -7.5 49.5 -14.5s31 -17.167 44 -30.5s23.333 -30.166 31 -50.499
s11.5 -45.5 11.5 -75.5s-5.5 -57.167 -16.5 -81.5s-27 -45.333 -48 -63s-46.833 -31.334 -77.5 -41.001s-66 -14.5 -106 -14.5l-6 79c20.667 0 40.834 2.33301 60.501 7s37.167 11.667 52.5 21s27.666 21.5 36.999 36.5s14 33.167 14 54.5c0 19.333 -3 35.5 -9 48.5
s-15 23.5 -27 31.5s-27.167 14.167 -45.5 18.5s-39.833 7.83301 -64.5 10.5l25 128h85z" />
    <glyph glyph-name="Tcaron" unicode="&#x164;" horiz-adv-x="1067" 
d="M1005 1348h-414v-1348h-115v1348h-413v108h942v-108zM532 1642l141 193h98v-12l-201 -262h-77l-200 263v11h98z" />
    <glyph glyph-name="tcaron" unicode="&#x165;" horiz-adv-x="634" 
d="M315 1358l-0.000976562 -276h185v-100h-185v-719c0 -37.333 3.16699 -67.5 9.5 -90.5s14.833 -40.833 25.5 -53.5s22.834 -21.167 36.501 -25.5s28.167 -6.5 43.5 -6.5c14.667 0 29 1.16699 43 3.5s26.333 4.5 37 6.5l3 -100c-12 -5.33301 -27.833 -9.5 -47.5 -12.5
s-40.167 -4.5 -61.5 -4.5c-28.667 0 -55.167 4.66699 -79.5 14s-45.5 25 -63.5 47s-32 51.167 -42 87.5s-15 81.5 -15 135.5v718h-167v100h167v276h111zM622.999 1492c0 -61.333 -10.8311 -120.5 -32.498 -177.5s-51.834 -105.5 -90.501 -145.5l-65 53
c25.333 41.333 44.666 83 57.999 125s20 89.333 20 142v119h110v-116z" />
    <glyph glyph-name="Tbar" unicode="&#x166;" horiz-adv-x="1067" 
d="M791 834h-200v-834h-115v834h-203v104h203v410h-413v108h942v-108h-414v-410h200v-104z" />
    <glyph glyph-name="tbar" unicode="&#x167;" horiz-adv-x="594" 
d="M315 1358l-0.000976562 -276h185v-100h-185v-261h231v-104h-231v-354c0 -37.333 3.16699 -67.5 9.5 -90.5s14.833 -40.833 25.5 -53.5s22.834 -21.167 36.501 -25.5s28.167 -6.5 43.5 -6.5c14.667 0 29 1.16699 43 3.5s26.333 4.5 37 6.5l3 -100
c-12 -5.33301 -27.833 -9.5 -47.5 -12.5s-40.167 -4.5 -61.5 -4.5c-28.667 0 -55.167 4.66699 -79.5 14s-45.5 25 -63.5 47s-32 51.167 -42 87.5s-15 81.5 -15 135.5v353h-176v104h176v261h-167v100h167v276h111z" />
    <glyph glyph-name="Utilde" unicode="&#x168;" horiz-adv-x="1168" 
d="M1018 1456l-0.00195312 -1027c0 -82 -11.5 -151.5 -34.5 -208.5s-54.167 -103.333 -93.5 -139s-85.166 -61.5 -137.499 -77.5s-108.166 -24 -167.499 -24c-61.333 0 -118.333 8 -171 24s-98.5 41.833 -137.5 77.5s-69.5 82 -91.5 139s-33 126.5 -33 208.5v1027h114v-1027
c0 -63.333 7.83301 -116.833 23.5 -160.5s37.667 -79 66 -106s62 -46.5 101 -58.5s81.833 -18 128.5 -18s89.5 6 128.5 18s72.5 31.5 100.5 58.5s49.833 62.333 65.5 106s23.5 97.167 23.5 160.5v1027h115zM877.998 1810c0 -32 -4.33301 -61.332 -13 -87.999
s-20.5 -49.334 -35.5 -68.001s-32.5 -33.167 -52.5 -43.5s-41.667 -15.5 -65 -15.5c-29.333 0 -53.5 5.66699 -72.5 17s-36.333 24 -52 38s-31.667 26.667 -48 38s-36.5 17 -60.5 17c-25.333 0 -46.666 -10.5 -63.999 -31.5s-26 -49.833 -26 -86.5l-81 3
c0 32 4.16699 61.167 12.5 87.5s20 48.833 35 67.5s32.667 33.167 53 43.5s42.166 15.5 65.499 15.5c26 0 48.5 -5.66699 67.5 -17s37 -23.833 54 -37.5s34 -26.167 51 -37.5s37.167 -17 60.5 -17c25.333 0 46.833 11 64.5 33s26.5 51.333 26.5 88z" />
    <glyph glyph-name="utilde" unicode="&#x169;" horiz-adv-x="986" 
d="M728 129c-28.667 -46.667 -66.1699 -83.1699 -112.503 -109.503s-103.833 -39.5 -172.5 -39.5c-44.667 0 -85.334 7.5 -122.001 22.5s-68 38.833 -94 71.5s-46.167 74.834 -60.5 126.501s-21.5 114.5 -21.5 188.5v693h110v-695c0 -57.333 5.33301 -105.166 16 -143.499
s25.334 -69.166 44.001 -92.499s40.167 -40 64.5 -50s50.166 -15 77.499 -15c38.667 0 72.834 5 102.501 15s55.334 24 77.001 42s39.834 39.5 54.501 64.5s26.334 52.5 35.001 82.5v792h112v-1082h-108zM787.997 1495c0 -32 -4.33301 -61.332 -13 -87.999
s-20.5 -49.334 -35.5 -68.001s-32.5 -33.167 -52.5 -43.5s-41.667 -15.5 -65 -15.5c-29.333 0 -53.5 5.66699 -72.5 17s-36.333 24 -52 38s-31.667 26.667 -48 38s-36.5 17 -60.5 17c-25.333 0 -46.666 -10.5 -63.999 -31.5s-26 -49.833 -26 -86.5l-81 3
c0 32 4.16699 61.167 12.5 87.5s20 48.833 35 67.5s32.667 33.167 53 43.5s42.166 15.5 65.499 15.5c26 0 48.5 -5.66699 67.5 -17s37 -23.833 54 -37.5s34 -26.167 51 -37.5s37.167 -17 60.5 -17c25.333 0 46.833 11 64.5 33s26.5 51.333 26.5 88z" />
    </font>
</defs>
</svg>
